<svg xmlns="http://www.w3.org/2000/svg" width="241.066" height="211.838" viewBox="0 0 241.066 211.838"><defs><style>.a{fill:#002270;}.b{fill:#858b97;}</style></defs><g transform="translate(273.55 -221.237)"><g transform="translate(-266.021 274.007)"><path class="a" d="M-213.721,278.513h17.349V274h-17.349V260.587h19.084v-4.511h-24.056v39.9h4.973Z" transform="translate(294.255 -256.076)"/><rect class="a" width="4.973" height="39.903" transform="translate(106.849)"/><path class="a" d="M-182.909,265.791l17.234,30.188h4.858v-39.9h-4.974v30.477l-17.349-30.477h-4.741v39.9h4.973Z" transform="translate(310.114 -256.076)"/><path class="a" d="M-150.8,256.076h-12.723v39.9H-150.8c8.849,0,14.458-4.974,14.458-17.869v-4.165C-136.342,261.049-141.951,256.076-150.8,256.076Zm9.483,22.034c0,9.888-3.354,13.358-9.483,13.358h-7.749V260.587h7.749c6.13,0,9.483,3.47,9.483,13.358Z" transform="translate(322.651 -256.076)"/><path class="a" d="M-241.764,304.806l-9.081-17.349h-5.841l12.434,22.784v17.117h4.973V310.241l12.434-22.784h-5.841Z" transform="translate(274.701 -239.925)"/><path class="a" d="M-220.616,327.979c8.847,0,14.458-5.32,14.458-18.216v-4.4c0-12.9-5.61-18.217-14.458-18.217s-14.458,5.321-14.458,18.217v4.4C-235.074,322.66-229.464,327.979-220.616,327.979Zm-9.485-22.611c0-9.889,3.354-13.706,9.485-13.706s9.485,3.817,9.485,13.706v4.4c0,9.888-3.355,13.7-9.485,13.7s-9.485-3.817-9.485-13.7Z" transform="translate(285.824 -240.082)"/><path class="a" d="M-205.855,311.167V287.456h-4.974v23.711c0,11.74,5.61,16.655,14.458,16.655s14.458-4.915,14.458-16.713V287.456h-4.973v23.711c0,8.734-3.355,12.145-9.485,12.145S-205.855,319.9-205.855,311.167Z" transform="translate(298.303 -239.925)"/><path class="a" d="M-156.968,327.359l-8.906-17.7c5.089-1.5,7.866-5.03,7.866-10.641,0-7.749-5.32-11.566-14.517-11.566h-12.72v39.9h4.973V310.532h9.426l8.328,16.827Zm-15.557-21.337h-7.748V291.968h7.748c6.768,0,9.543,2.081,9.543,7.054C-162.983,303.937-165.758,306.022-172.526,306.022Z" transform="translate(311.47 -239.925)"/><path class="a" d="M-247.123,343.085l-11.766-22.023h-9.691V364.48h9.817V340.129l8.746,17.178h5.6l8.937-17.367V364.48h9.815V321.062h-9.753Z" transform="translate(268.58 -222.629)"/><path class="a" d="M-217.254,321.062l-15.1,43.418h11.139l2.264-7.425h13.4l2.328,7.425h11.137l-15.1-43.418Zm1.006,27.31,4.028-12.837,3.965,12.837Z" transform="translate(287.223 -222.629)"/><path class="a" d="M-201.615,329.746h11.325V364.48h10.445V329.746h11.327v-8.684h-33.1Z" transform="translate(303.045 -222.629)"/><path class="a" d="M-154.965,329.33c3.713,0,5.6,2.579,6.041,5.348h9.942c-1.447-9.438-7.361-14.03-15.983-14.03-9.879,0-17.114,5.85-17.114,18.938v6.8c0,12.963,7.236,18.94,17.114,18.94,9.187,0,14.473-4.279,15.983-14.031h-9.942c-.63,3.46-2.328,5.347-6.041,5.347-4.4,0-6.671-3.46-6.671-10.256v-6.8C-161.635,332.476-159.306,329.33-154.965,329.33Z" transform="translate(318.247 -222.842)"/><path class="a" d="M-116.888,321.062v16.613h-13.34V321.062h-10.447V364.48h10.447V346.359h13.34V364.48h10.445V321.062Z" transform="translate(334.41 -222.629)"/></g><g transform="translate(-273.55 221.237)"><path class="b" d="M-158.643,221.237a126,126,0,0,0-111.5,67.073l-3.411,6.424,46.168.006v8.617l11.451-6.61,11.451-6.612-11.451-6.612-11.451-6.612v9.079l-31.36,0a117.235,117.235,0,0,1,100.1-56A117.561,117.561,0,0,1-41.311,343.024H-80.882v-8.731l-11.451,6.61-11.451,6.612,11.451,6.612,11.451,6.612v-8.967h48.4V347.4A126.3,126.3,0,0,0-158.643,221.237Z" transform="translate(273.55 -221.237)"/><rect class="b" width="229.419" height="8.747" transform="translate(7.274 203.09)"/></g></g></svg>