<svg xmlns="http://www.w3.org/2000/svg" width="36" height="36" viewBox="0 0 36 36"><defs><style>.a{fill:#fff;}.b{fill:#002270;}</style></defs><g transform="translate(0 0.323)"><circle class="a" cx="18" cy="18" r="18" transform="translate(0 -0.323)"/><g transform="translate(13.103 8.712)"><path class="b" d="M816.774,273.582l-2.823-.063a4.138,4.138,0,0,0-4.229,4.136v2.678H807.1a.2.2,0,0,0-.2.2v3.365a.2.2,0,0,0,.2.2h2.623V292.6a.2.2,0,0,0,.2.2h3.474a.2.2,0,0,0,.2-.2v-8.513h2.645a.2.2,0,0,0,.194-.17l.437-3.365a.195.195,0,0,0-.194-.22h-3.082v-1.7a1.94,1.94,0,0,1,.358-1.3,1.06,1.06,0,0,1,.831-.324h2a.2.2,0,0,0,.2-.2v-3.037A.2.2,0,0,0,816.774,273.582Z" transform="translate(-806.903 -273.518)"/></g></g></svg>