<svg xmlns="http://www.w3.org/2000/svg" width="35.598" height="35.598" viewBox="0 0 35.598 35.598"><defs><style>.a{fill:none;stroke:#fff;stroke-linecap:round;stroke-linejoin:round;stroke-width:2px;}</style></defs><path class="a" d="M36.6,18.866a15.642,15.642,0,0,1-1.68,7.093,15.866,15.866,0,0,1-14.186,8.773,15.642,15.642,0,0,1-7.093-1.68L3,36.6,6.546,25.958a15.642,15.642,0,0,1-1.68-7.093A15.866,15.866,0,0,1,13.639,4.68,15.642,15.642,0,0,1,20.732,3h.933A15.828,15.828,0,0,1,36.6,17.932Z" transform="translate(-2 -2)"/></svg>