<svg xmlns="http://www.w3.org/2000/svg" width="101.929" height="95.792" viewBox="0 0 101.929 95.792"><defs><style>.a{fill:#002270;}</style></defs><g transform="translate(-14.185 -19.534)"><path class="a" d="M32.949,41.226,97.14,62.82c.148,0,.444.148.592.148a1.679,1.679,0,0,0,1.183-.444,2.375,2.375,0,0,0,.74-1.627c-1.035-9.466-8.726-18.784-20.115-24.7l3.106-9.318A1.75,1.75,0,0,0,82.5,25.4a1.564,1.564,0,0,0-1.035-.887L66.82,19.631a1.75,1.75,0,0,0-1.479.148,1.564,1.564,0,0,0-.887,1.035L61.2,30.429c-11.98-1.627-22.925,1.183-29.137,7.839a1.844,1.844,0,0,0-.444,1.775A3.492,3.492,0,0,0,32.949,41.226Zm34.462-17.6,11.241,3.7-2.366,7.1a44.757,44.757,0,0,0-4.733-1.775,61.548,61.548,0,0,0-6.508-1.775ZM70.369,36.2c12.572,4.289,22.482,13.016,25,22.038L37.09,38.711C44.634,33.091,57.8,31.908,70.369,36.2Z" transform="translate(8.325)"/><path class="a" d="M27.544,52.88a2.5,2.5,0,0,0-.444,1.479l5.768,42.005a1.891,1.891,0,0,0,1.775,1.627H89.368a1.776,1.776,0,0,0,1.775-1.627l4.881-42.005a2.5,2.5,0,0,0-.444-1.479,1.606,1.606,0,0,0-1.331-.592H64.668C63.928,48.3,60.822,40.9,53.427,40.9c-8.726,0-11.241,3.254-15.53,11.093l.3.148H28.875A1.765,1.765,0,0,0,27.544,52.88ZM53.427,44.6c5.177,0,6.952,5.62,7.543,7.691H42.038C45.292,46.077,47.215,44.6,53.427,44.6ZM92.178,55.838,87.741,94.146H36.27L30.946,55.838Z" transform="translate(6.187 10.235)"/><path class="a" d="M31.857,43.113a10.049,10.049,0,0,1,3.7,1.035c3.106,1.627,2.958,3.7,2.958,3.993a1.84,1.84,0,0,0,1.627,2.071h.3a1.776,1.776,0,0,0,1.775-1.627c0-.148.592-4.733-4.881-7.691A12.762,12.762,0,0,0,32.3,39.416a5.826,5.826,0,0,1-4.141-1.923c-3.254-3.106-2.958-9.17-2.958-9.17A1.834,1.834,0,0,0,23.427,26.4,1.93,1.93,0,0,0,21.5,28.175c0,.3-.444,7.839,3.993,12.128A9.653,9.653,0,0,0,31.857,43.113Z" transform="translate(3.5 3.289)"/><path class="a" d="M28.258,46.91a11.111,11.111,0,0,1,3.846,0c3.4.74,3.846,2.662,3.846,2.958A1.891,1.891,0,0,0,37.724,51.5h.3a1.84,1.84,0,0,0,1.627-2.071c0-.148-.74-4.733-6.8-6.064a10.6,10.6,0,0,0-5.325,0,5.489,5.489,0,0,1-4.585-.74c-3.7-2.219-5.029-8.135-5.029-8.135a1.885,1.885,0,0,0-3.7.74c0,.3,1.627,7.691,7.1,10.5C24.709,47.5,26.631,47.206,28.258,46.91Z" transform="translate(0 6.444)"/><path class="a" d="M112.128,81.9H20.575A1.8,1.8,0,0,0,18.8,83.675a1.909,1.909,0,0,0,1.775,1.775h91.554a1.775,1.775,0,1,0,0-3.55Z" transform="translate(2.211 29.877)"/></g></svg>