<svg xmlns="http://www.w3.org/2000/svg" width="103.53" height="103.53" viewBox="0 0 103.53 103.53"><defs><style>.a{fill:#002270;}</style></defs><g transform="translate(-0.001)"><g transform="translate(0.001)"><g transform="translate(0)"><path class="a" d="M98.521,63.454c0-.91.5-1.632,1.448-2.934a15.791,15.791,0,0,0,3.562-10.425c0-8.082-5.863-13.912-11.689-14.873V25.048H88.5V18.368H78.483v3.553a41.745,41.745,0,1,0-36.736,61.57,43.709,43.709,0,0,0,23.378-6.846V95.181a8.359,8.359,0,0,0,8.349,8.349H93.512a8.359,8.359,0,0,0,8.349-8.349V75.143a17,17,0,0,0-2.286-8.7A6.609,6.609,0,0,1,98.521,63.454ZM88.5,28.387v6.679H78.483V28.387Zm-6.679-6.679h3.34v3.34h-3.34Zm-3.34,3.219v.12h-.264ZM67.41,66.446a17.559,17.559,0,0,0-2.092,6.018,40.328,40.328,0,0,1-23.571,7.688,38.406,38.406,0,1,1,34.574-55.1H75.144V35.222a12.272,12.272,0,0,0-3.807,1.326A30.05,30.05,0,1,0,41.747,71.8c10.22,0,19.308-4.377,24.882-11.821.13.182.264.367.387.538.952,1.3,1.448,2.024,1.448,2.934A6.612,6.612,0,0,1,67.41,66.446Zm-2.638-9.62c-4.881,7.4-13.2,11.637-23.025,11.637A26.717,26.717,0,1,1,68.269,38.78a15.475,15.475,0,0,0-4.814,11.315A16.15,16.15,0,0,0,64.772,56.826Zm28.74,43.364H73.474a5.016,5.016,0,0,1-5.01-5.01V75.143a13.719,13.719,0,0,1,1.905-7.15A9.52,9.52,0,0,0,71.8,63.454c0-2.042-1.062-3.5-2.091-4.9a12.555,12.555,0,0,1-2.919-8.454c0-7.242,5.836-11.689,10.019-11.689H90.172c4.183,0,10.019,4.447,10.019,11.689a12.555,12.555,0,0,1-2.919,8.454c-1.028,1.408-2.091,2.862-2.091,4.9a9.518,9.518,0,0,0,1.435,4.539,13.716,13.716,0,0,1,1.905,7.15V95.181h0A5.016,5.016,0,0,1,93.512,100.19Z" transform="translate(-0.001)"/><rect class="a" width="13.359" height="3.34" transform="translate(70.133 48.425)"/><rect class="a" width="23.378" height="3.34" transform="translate(71.803 91.841)"/><rect class="a" width="3.34" height="3.34" transform="translate(93.511 48.425)"/><rect class="a" width="3.34" height="3.34" transform="translate(86.831 48.425)"/><path class="a" d="M15.03,215.625H11.69A11.7,11.7,0,0,1,0,227.314v3.34A11.7,11.7,0,0,1,11.69,242.343h3.34a11.7,11.7,0,0,1,11.689-11.689v-3.34A11.7,11.7,0,0,1,15.03,215.625Zm-1.67,19.836a15.125,15.125,0,0,0-6.477-6.477,15.125,15.125,0,0,0,6.477-6.477,15.125,15.125,0,0,0,6.477,6.477A15.121,15.121,0,0,0,13.36,235.461Z" transform="translate(-0.001 -138.813)"/><path class="a" d="M72.627,98.438h-3.34a8.359,8.359,0,0,1-8.349,8.349v3.34a8.359,8.359,0,0,1,8.349,8.349h3.34a8.359,8.359,0,0,1,8.349-8.349v-3.34A8.359,8.359,0,0,1,72.627,98.438Zm-1.67,14.021a11.783,11.783,0,0,0-4-4,11.783,11.783,0,0,0,4-4,11.783,11.783,0,0,0,4,4A11.8,11.8,0,0,0,70.957,112.459Z" transform="translate(-39.23 -63.371)"/></g></g></g></svg>