<svg xmlns="http://www.w3.org/2000/svg" width="84.803" height="96.632" viewBox="0 0 84.803 96.632"><defs><style>.a{fill:#002270;}</style></defs><path class="a" d="M83.443,2.154H76.414V1.36A1.361,1.361,0,0,0,75.053,0H48.411a1.361,1.361,0,0,0-1.36,1.36v.794h-9.3V1.36A1.361,1.361,0,0,0,36.393,0H9.75A1.361,1.361,0,0,0,8.39,1.36v.794H1.36A1.361,1.361,0,0,0,0,3.515V93.306a1.361,1.361,0,0,0,1.36,1.36H6.424v.6a1.361,1.361,0,0,0,1.36,1.36h4.157a1.361,1.361,0,0,0,1.36-1.36v-.6H70.594v.6a1.361,1.361,0,0,0,1.36,1.36h4.157a1.361,1.361,0,0,0,1.36-1.36v-.6h5.971a1.361,1.361,0,0,0,1.36-1.36V3.515A1.361,1.361,0,0,0,83.443,2.154Zm-1.36,2.721V22.448H22.9a1.36,1.36,0,0,0,0,2.721H82.082V79.957H2.721V25.169H14.172a1.36,1.36,0,1,0,0-2.721H2.721V4.875ZM2.721,91.946V82.678H82.082v9.268H2.721Z"/><path class="a" d="M15.893,19.223a4.705,4.705,0,1,0-4.705-4.705A4.71,4.71,0,0,0,15.893,19.223Zm0-6.689a1.984,1.984,0,1,1-1.984,1.984A1.986,1.986,0,0,1,15.893,12.533Z" transform="translate(-1.041 -0.913)"/><path class="a" d="M30.392,19.223a4.705,4.705,0,1,0-4.7-4.705A4.71,4.71,0,0,0,30.392,19.223Zm0-6.689a1.984,1.984,0,1,1-1.984,1.984A1.986,1.986,0,0,1,30.392,12.533Z" transform="translate(-2.389 -0.913)"/><path class="a" d="M44.893,19.223a4.705,4.705,0,1,0-4.705-4.705A4.71,4.71,0,0,0,44.893,19.223Zm0-6.689a1.984,1.984,0,1,1-1.984,1.984A1.986,1.986,0,0,1,44.893,12.533Z" transform="translate(-3.738 -0.913)"/><path class="a" d="M59.393,19.223a4.705,4.705,0,1,0-4.705-4.705A4.71,4.71,0,0,0,59.393,19.223Zm0-6.689a1.984,1.984,0,1,1-1.984,1.984A1.986,1.986,0,0,1,59.393,12.533Z" transform="translate(-5.087 -0.913)"/><path class="a" d="M73.892,19.223a4.705,4.705,0,1,0-4.705-4.705A4.71,4.71,0,0,0,73.892,19.223Zm0-6.689a1.984,1.984,0,1,1-1.984,1.984A1.986,1.986,0,0,1,73.892,12.533Z" transform="translate(-6.435 -0.913)"/><path class="a" d="M7.063,30.735a1.361,1.361,0,0,0,1.36,1.36H77.071a1.36,1.36,0,0,0,0-2.721H8.423A1.361,1.361,0,0,0,7.063,30.735Z" transform="translate(-0.657 -2.732)"/><path class="a" d="M75.914,36.709H10.61a1.361,1.361,0,0,0-1.36,1.36V79.942a1.361,1.361,0,0,0,1.36,1.36h65.3a1.361,1.361,0,0,0,1.36-1.36V38.069A1.361,1.361,0,0,0,75.914,36.709Zm-1.36,41.872H11.971V39.43H74.553Z" transform="translate(-0.86 -3.414)"/></svg>