<svg xmlns="http://www.w3.org/2000/svg" width="102.5" height="86.555" viewBox="0 0 102.5 86.555"><defs><style>.a{fill:#002270;}</style></defs><g transform="translate(-9.5 -15.8)"><path class="a" d="M84.16,99.825a2.538,2.538,0,0,1-2.531,2.531H40.377a2.531,2.531,0,1,1,0-5.062H81.5A2.568,2.568,0,0,1,84.16,99.825ZM112,51.106a2.538,2.538,0,0,1-2.531,2.531h-5.948a42.591,42.591,0,0,1-85.037,0H12.031a2.531,2.531,0,0,1,0-5.062h97.438A2.538,2.538,0,0,1,112,51.106ZM98.586,53.636H23.42a37.675,37.675,0,0,0,75.167,0ZM47.843,43.513a2.538,2.538,0,0,0,2.531-2.531V33.9a2.531,2.531,0,0,0-5.062,0v7.086A2.538,2.538,0,0,0,47.843,43.513Zm13.16,0a2.538,2.538,0,0,0,2.531-2.531V18.331a2.531,2.531,0,1,0-5.062,0V40.982A2.538,2.538,0,0,0,61,43.513Zm13.16,0a2.538,2.538,0,0,0,2.531-2.531V22.76a2.531,2.531,0,1,0-5.062,0V40.982A2.538,2.538,0,0,0,74.164,43.513Z" transform="translate(0 0)"/></g></svg>