<svg xmlns="http://www.w3.org/2000/svg" width="93.49" height="77.908" viewBox="0 0 93.49 77.908"><defs><style>.a{fill:#002270;}</style></defs><g transform="translate(0 -4)"><g transform="translate(0 4)"><path class="a" d="M46.745,4C29.216,4,13.459,9.122,5.415,17.361A17.2,17.2,0,0,0,0,29.32H0V41.006a13.634,13.634,0,0,0,3.9,9.622,13.42,13.42,0,0,0,9.739,4.012h0c22.3,0,34.4,10.031,40.59,18.445a21.6,21.6,0,0,0,17.3,8.823H75.96A17.529,17.529,0,0,0,93.49,64.379V29.32C93.49,15.121,72.961,4,46.745,4ZM89.594,29.32V48.8a17.374,17.374,0,0,1-5.843,12.991V31.268a1.948,1.948,0,1,0-3.9,0V64.476a17.529,17.529,0,0,1-7.791,1.85h0V12.161C82.622,16.115,89.594,22.406,89.594,29.32ZM58.431,19.582a1.948,1.948,0,0,0-1.948,1.948v33.4a49.8,49.8,0,0,0-7.791-6.505V7.9a75.337,75.337,0,0,1,19.477,2.98V65.684a13.05,13.05,0,0,1-6.213-4.363l-1.714-2.142a1.948,1.948,0,0,0,.136-.643V21.529A1.948,1.948,0,0,0,58.431,19.582ZM35.059,13.739a1.948,1.948,0,0,0-1.948,1.948V41.415a64.683,64.683,0,0,0-7.791-1.578V10.856A76.116,76.116,0,0,1,44.8,7.9V46.051a51.615,51.615,0,0,0-7.791-3.428V15.686A1.948,1.948,0,0,0,35.059,13.739ZM8.2,20.088a36.032,36.032,0,0,1,13.225-7.947V39.409c-2.337-.195-4.733-.351-7.323-.351h-.467V27.372a1.948,1.948,0,1,0-3.9,0V38.085A9.738,9.738,0,0,1,3.9,29.573a13.127,13.127,0,0,1,4.3-9.485ZM89.594,64.379A13.634,13.634,0,0,1,75.96,78.013H71.52a17.7,17.7,0,0,1-14.16-7.226c-6.72-9.154-19.789-20.042-43.726-20.042h0a9.563,9.563,0,0,1-6.817-2.863A9.739,9.739,0,0,1,3.9,41.006V38.669A14.3,14.3,0,0,0,14.1,42.954h0c28.475,0,39.09,13.517,44.8,20.762a16.731,16.731,0,0,0,13.166,6.505,21.425,21.425,0,0,0,17.529-9.1Z" transform="translate(0 -4)"/></g></g></svg>