<svg xmlns="http://www.w3.org/2000/svg" width="100.369" height="74.938" viewBox="0 0 100.369 74.938"><defs><style>.a{fill:#002270;}</style></defs><g transform="translate(-6.64 -17.626)"><g transform="translate(6.64 17.626)"><path class="a" d="M104.925,46.329H94.378c-.66-8.649-6.213-18.061-27.037-18.462V25.559c0-7.933-7.5-7.933-10.32-7.933s-10.32,0-10.32,7.933v2.312C29.358,28.1,20.148,34.305,19.288,46.33H8.723a2.083,2.083,0,1,0,0,4.167H19.2V72.213c0,12.553,7.024,20.352,18.333,20.352h38.58c11.309,0,18.335-7.8,18.335-20.352V50.5h10.476a2.083,2.083,0,1,0,0-4.167ZM57.02,21.793c5.265,0,6.154,1.162,6.154,3.766v2.289H50.866V25.559C50.866,22.955,51.755,21.793,57.02,21.793ZM47.693,32.013H65.958c15.166,0,23.3,4.816,24.232,14.316H23.439C23.964,39.7,27.812,32.013,47.693,32.013Zm42.591,40.2C90.283,82.5,85.119,88.4,76.115,88.4H37.534c-9,0-14.166-5.9-14.166-16.185V50.5H90.283Z" transform="translate(-6.64 -17.626)"/></g></g></svg>