<svg xmlns="http://www.w3.org/2000/svg" width="104.936" height="104.875" viewBox="0 0 104.936 104.875"><defs><style>.a{fill:#002270;}</style></defs><g transform="translate(0 0)"><path class="a" d="M74.754,61.967a6.555,6.555,0,0,1,1.092-7.014l8.3-9.351A15.054,15.054,0,0,0,72.831,20.454c-.262,0-.262.568-.262-3.758A13.743,13.743,0,0,0,47.683,8.721L43.947,13.9a6.555,6.555,0,0,1-7.407,2.425L29.985,14.14A13.94,13.94,0,0,0,12.921,33.192L20.9,50.453c1.77,3.824.874,3.627-12.672,32.249-5.79,12.235,10.007,23.684,19.664,13.94L43.051,81.478a6.555,6.555,0,0,1,8-1.005l8.958,5.375A12.716,12.716,0,0,0,78.162,69.789ZM62.365,82.2l-8.958-5.375a10.924,10.924,0,0,0-13.35,1.639L24.894,93.626a7.909,7.909,0,0,1-12.738-8.958L24.72,57.86a10.793,10.793,0,0,0,0-9.264L16.81,31.379a9.548,9.548,0,0,1,1.923-10.75c4.938-4.96,10.182-2.185,16.43-.109a10.924,10.924,0,0,0,12.345-4L51.222,11.3A9.373,9.373,0,0,1,68.2,16.7v5.943a2.185,2.185,0,0,0,2.185,2.185h2.447a10.684,10.684,0,0,1,7.975,17.763l-8.237,9.351a10.924,10.924,0,0,0-1.835,11.689l3.518,7.909A8.346,8.346,0,0,1,62.278,82.09Z" transform="translate(8.272 3.58)"/><path class="a" d="M56.261,36.686a7.647,7.647,0,1,0-1.869,6.04,7.647,7.647,0,0,0,1.869-6.04Zm-7.232,4.239a3.3,3.3,0,1,1,2.862-3.692A3.3,3.3,0,0,1,49.029,40.925Z" transform="translate(48.614 35.547)"/><path class="a" d="M23.555,13.109A6.555,6.555,0,1,0,17,6.555,6.555,6.555,0,0,0,23.555,13.109Zm0-8.74A2.185,2.185,0,1,1,21.37,6.555,2.185,2.185,0,0,1,23.555,4.37Z" transform="translate(20.143 0)"/><path class="a" d="M21.849,29.924A10.924,10.924,0,1,0,10.924,40.849,10.924,10.924,0,0,0,21.849,29.924ZM10.924,36.479a6.555,6.555,0,1,1,6.555-6.555A6.555,6.555,0,0,1,10.924,36.479Z" transform="translate(0 22.513)"/><path class="a" d="M28.555,42a6.555,6.555,0,1,0,6.555,6.555A6.555,6.555,0,0,0,28.555,42Zm0,8.74a2.185,2.185,0,1,1,2.185-2.185A2.185,2.185,0,0,1,28.555,50.74Z" transform="translate(26.068 49.766)"/></g></svg>