<svg xmlns="http://www.w3.org/2000/svg" width="102" height="102" viewBox="0 0 102 102"><defs><style>.a{fill:#002270;}</style></defs><g transform="translate(-1 -1)"><path class="a" d="M9.592,51.5,6.746,53.15A21.476,21.476,0,0,0,25.261,63.84V60.55A18.177,18.177,0,0,1,9.592,51.5Z" transform="translate(3.707 32.579)"/><path class="a" d="M93.294,55.414A32.885,32.885,0,1,0,41.17,52.276C29.3,54.659,21.936,58.888,20.885,63.909,10.1,64.969,1,68.177,1,73.387v1.645A27.928,27.928,0,0,0,47.209,96.186a24.36,24.36,0,0,0,3.206.234H73.326a24,24,0,0,0,22.764-16.2c4.274-2.256,6.91-5.09,6.91-8.476V65.161c0-3.772-3.35-7.115-9.706-9.748Zm6.416,9.748c0,5.447-15.54,11.516-37.839,11.516-1.67,0-3.346-.048-5.013-.12.028-.508.077-1.01.077-1.525V73.387c0-.038-.013-.071-.015-.109,1.668.064,3.328.109,4.95.109,11.61,0,31.258-1.732,31.258-8.226,0-1.95-1.7-3.547-5.135-4.848A33.38,33.38,0,0,0,90.8,57.982c5.579,2.1,8.907,4.746,8.907,7.179ZM68.452,66.806a32.677,32.677,0,0,0,16-4.179c4.065,1.122,5.294,2.242,5.388,2.506C89.355,66.864,79.318,70.1,61.871,70.1c-2.117,0-4.3-.064-6.485-.176-3.178-3.341-10.9-5.4-19.531-6.115C38.1,62.787,42.443,61.57,49.6,60.833A32.7,32.7,0,0,0,68.452,66.806Zm0-62.516A29.613,29.613,0,1,1,38.839,33.9,29.647,29.647,0,0,1,68.452,4.29ZM43.422,55.206a33.251,33.251,0,0,0,2.631,2.731c-6.62.895-13.212,2.543-14.979,5.61-.7-.016-1.4-.031-2.106-.031-1.5,0-3,.048-4.491.127C26.067,60.709,32.149,57.238,43.422,55.206Zm-14.454,11.6c15.065,0,24.677,3.9,24.677,6.581s-9.613,6.581-24.677,6.581S4.29,76.07,4.29,73.387,13.9,66.806,28.968,66.806Zm0,32.9A24.694,24.694,0,0,1,4.557,78.457c5.051,3.165,14.767,4.8,24.411,4.8s19.36-1.635,24.411-4.8A24.694,24.694,0,0,1,28.968,99.71Zm44.358-6.581H50.416c-.053,0-.105-.007-.156-.007a28,28,0,0,0,4.282-6.814c2.41.15,4.865.24,7.329.24,10.743,0,21.843-1.509,29.8-4.4A20.721,20.721,0,0,1,73.326,93.129ZM61.871,83.258c-2.058,0-4.1-.072-6.128-.178a27.931,27.931,0,0,0,.75-3.246c1.787.081,3.586.133,5.378.133,15.208,0,31.133-3.022,37.839-8.723v.5c0,5.447-15.54,11.516-37.839,11.516Z"/><path class="a" d="M30,28.742A19.742,19.742,0,1,0,49.742,9,19.764,19.764,0,0,0,30,28.742Zm36.194,0A16.452,16.452,0,1,1,49.742,12.29,16.47,16.47,0,0,1,66.194,28.742Z" transform="translate(18.71 5.161)"/><path class="a" d="M42,34.161A13.177,13.177,0,0,0,55.161,21h-3.29A9.881,9.881,0,0,1,42,30.871Z" transform="translate(26.452 12.903)"/><path class="a" d="M52.323,8.29V5A26.353,26.353,0,0,0,26,31.323h3.29A23.058,23.058,0,0,1,52.323,8.29Z" transform="translate(16.129 2.581)"/><path class="a" d="M26.141,23.3a26.136,26.136,0,0,0,.714,3.511l3.172-.874a23.016,23.016,0,0,1-.624-3.07Z" transform="translate(16.22 14.109)"/></g></svg>