<svg xmlns="http://www.w3.org/2000/svg" width="88.208" height="70.383" viewBox="0 0 88.208 70.383"><defs><style>.a{fill:#002270;}</style></defs><g transform="translate(0 -4.9)"><g transform="translate(0 4.9)"><path class="a" d="M80.49,4.9H7.718A7.647,7.647,0,0,0,0,12.618V58.744a7.765,7.765,0,0,0,7.718,7.718H7.9v6.983A1.736,1.736,0,0,0,9.74,75.283h9a1.736,1.736,0,0,0,1.838-1.838V66.462H67.626v6.983a1.736,1.736,0,0,0,1.838,1.838h9a1.736,1.736,0,0,0,1.838-1.838V66.462h.184a7.765,7.765,0,0,0,7.718-7.718V12.618A7.647,7.647,0,0,0,80.49,4.9ZM16.907,71.424H11.577V66.278h5.329Zm59.724,0H71.3V66.278h5.329Zm7.9-12.68a4.079,4.079,0,0,1-4.043,4.043H7.718a4.079,4.079,0,0,1-4.043-4.043V12.618A4.079,4.079,0,0,1,7.718,8.575H80.49a4.079,4.079,0,0,1,4.043,4.043Z" transform="translate(0 -4.9)"/><path class="a" d="M64.459,8.9H5.838A1.736,1.736,0,0,0,4,10.738V53.923A1.736,1.736,0,0,0,5.838,55.76H64.459A1.736,1.736,0,0,0,66.3,53.923V10.738A1.736,1.736,0,0,0,64.459,8.9ZM62.622,52.085H7.675V12.575H62.622Z" transform="translate(3.351 -1.549)"/><path class="a" d="M34.238,34.893a1.736,1.736,0,0,0,1.838-1.838V18.538a1.838,1.838,0,1,0-3.675,0V33.055A1.976,1.976,0,0,0,34.238,34.893Z" transform="translate(27.14 4.984)"/><path class="a" d="M44.513,10.6A5.415,5.415,0,0,0,39,16.113a5.513,5.513,0,0,0,11.026,0A5.529,5.529,0,0,0,44.513,10.6Zm0,7.351a1.736,1.736,0,0,1-1.838-1.838,1.838,1.838,0,1,1,3.675,0A1.841,1.841,0,0,1,44.513,17.951Z" transform="translate(32.669 -0.125)"/><path class="a" d="M42.838,18.3A1.736,1.736,0,0,0,41,20.138v1.47a1.838,1.838,0,0,0,3.675,0v-1.47A1.842,1.842,0,0,0,42.838,18.3Z" transform="translate(34.344 6.325)"/><path class="a" d="M42.838,22.6A1.736,1.736,0,0,0,41,24.438v1.47a1.838,1.838,0,1,0,3.675,0v-1.47A1.842,1.842,0,0,0,42.838,22.6Z" transform="translate(34.344 9.927)"/><path class="a" d="M42.838,26.8A1.736,1.736,0,0,0,41,28.638v1.47a1.838,1.838,0,1,0,3.675,0v-1.47A1.976,1.976,0,0,0,42.838,26.8Z" transform="translate(34.344 13.445)"/><path class="a" d="M10.754,23.151c.184-.184,3.675-4.227,9-.735a1.991,1.991,0,0,0,2.021,0c5.329-3.492,8.637.184,9,.735a1.721,1.721,0,0,0,2.756,0c.184-.184,3.675-4.227,9-.735a1.86,1.86,0,0,0,2.021-3.124c-5.329-3.492-9.923-1.838-12.5,0a10.242,10.242,0,0,0-11.394-.735A10.144,10.144,0,0,0,7.813,20.578,1.776,1.776,0,0,0,8,23.151,1.819,1.819,0,0,0,10.754,23.151Z" transform="translate(6.153 5.333)"/><path class="a" d="M44.667,24.592c-5.329-3.492-9.923-1.838-12.5,0a10.242,10.242,0,0,0-11.394-.735A10.144,10.144,0,0,0,7.913,25.878a1.824,1.824,0,1,0,2.756,2.389c.368-.368,3.859-4.043,9-.735a1.991,1.991,0,0,0,2.021,0c5.329-3.492,8.637.184,9,.735a1.922,1.922,0,0,0,2.757,0c.368-.368,3.859-4.043,9-.735a1.807,1.807,0,0,0,2.573-.551A1.483,1.483,0,0,0,44.667,24.592Z" transform="translate(6.237 9.772)"/></g></g></svg>