<svg xmlns="http://www.w3.org/2000/svg" width="90.963" height="90.963" viewBox="0 0 90.963 90.963"><defs><style>.a{fill:#002270;}</style></defs><g transform="translate(-2 -2)"><g transform="translate(2 2)"><g transform="translate(0 0)"><path class="a" d="M106.274,322,92,336.274v4.947L111.221,322Z" transform="translate(-92 -322)"/><path class="a" d="M135.96,322,92,365.96v4.947L140.907,322Z" transform="translate(-92 -322)"/><path class="a" d="M165.645,322,92,395.645v4.947L170.592,322Z" transform="translate(-92 -322)"/><path class="a" d="M174.128,330.483v-4.947L95.536,404.128h4.947Z" transform="translate(-83.165 -313.165)"/><path class="a" d="M108.968,382.928l43.96-43.96v-4.947l-48.907,48.907Z" transform="translate(-61.965 -291.965)"/><path class="a" d="M117.453,361.727l14.274-14.274v-4.947l-19.221,19.221Z" transform="translate(-40.764 -270.764)"/></g></g></g></svg>