<svg xmlns="http://www.w3.org/2000/svg" width="86.011" height="98.752" viewBox="0 0 86.011 98.752"><defs><style>.a{fill:#002270;}</style></defs><g transform="translate(-0.496 0)"><path class="a" d="M108.951,62.118V44.6a7.973,7.973,0,0,0-7.964-7.964H65.945V28.669H62.759V21.747l22.815-9.984a4.447,4.447,0,0,0,2.67-4.078V4.452A4.494,4.494,0,0,0,82.79.112L44.163,9.027a4.754,4.754,0,0,0-3.7,4.656V28.669H37.274v66.9H32.5v3.186H70.723V95.567H65.945V52.561H93.023v9.557A3.189,3.189,0,0,0,89.837,65.3v3.186a3.189,3.189,0,0,0,3.186,3.186h15.928a3.189,3.189,0,0,0,3.186-3.186V65.3A3.189,3.189,0,0,0,108.951,62.118Zm-65.3-48.436a1.582,1.582,0,0,1,1.233-1.552L83.5,3.216a1.277,1.277,0,0,1,1.556,1.237V7.685a1.272,1.272,0,0,1-.76,1.161L59.574,19.663v9.006H43.646ZM93.023,49.376H62.759V95.567H40.46V31.855h22.3v7.964h38.227a4.784,4.784,0,0,1,4.778,4.778V62.118H96.208V52.561A3.189,3.189,0,0,0,93.023,49.376Zm0,19.114V65.3h15.928l0,3.186Zm0,0" transform="translate(-25.629 0)"/><path class="a" d="M88.5,175.992h3.186v3.186H88.5Zm0,0" transform="translate(-70.479 -140.952)"/><path class="a" d="M88.5,207.992h3.186v50.97H88.5Zm0,0" transform="translate(-70.479 -166.581)"/><path class="a" d="M344.46,366.109l-7.125,14.247a8.129,8.129,0,0,0-.839,3.649,7.964,7.964,0,1,0,15.088-3.651Zm0,22.674a4.854,4.854,0,0,1-4.275-7.006l4.275-8.548,4.275,8.547a4.928,4.928,0,0,1,.5,2.229A4.785,4.785,0,0,1,344.46,388.783Zm0,0" transform="translate(-269.102 -293.217)"/><path class="a" d="M.5,479.992H3.682v3.186H.5Zm0,0" transform="translate(0 -384.425)"/><path class="a" d="M240.5,479.992h3.186v3.186H240.5Zm0,0" transform="translate(-192.216 -384.425)"/></g></svg>