<svg xmlns="http://www.w3.org/2000/svg" width="92.603" height="59.284" viewBox="0 0 92.603 59.284"><defs><style>.a{fill:#002270;}</style></defs><g transform="translate(-1.2 -12.3)"><g transform="translate(1.2 12.3)"><path class="a" d="M68.225,31.5H26.951a1.951,1.951,0,0,0,0,3.9H68.225a1.951,1.951,0,0,0,0-3.9Z" transform="translate(10.72 -2.684)"/><path class="a" d="M60.361,40.2H42.651a1.951,1.951,0,1,0,0,3.9h17.71a1.951,1.951,0,0,0,0-3.9Z" transform="translate(18.584 1.674)"/><path class="a" d="M44.611,40.2H27.051a1.951,1.951,0,0,0,0,3.9h17.71a1.987,1.987,0,0,0,1.951-1.951A2.124,2.124,0,0,0,44.611,40.2Z" transform="translate(10.77 1.674)"/><path class="a" d="M16.327,39.306c-2.251-.75-3.3-1.351-3.452-2.4a2.067,2.067,0,0,1,1.351-1.951,7.51,7.51,0,0,1,4.352.45,1.853,1.853,0,1,0,1.351-3.452,7.071,7.071,0,0,0-2.551-.6v-.9a1.951,1.951,0,0,0-3.9,0V31.5a.9.9,0,0,0-.6.15,5.507,5.507,0,0,0-4.052,6c.45,3.6,3.6,4.653,6,5.553a10.1,10.1,0,0,1,2.852,1.351,1.876,1.876,0,0,1,0,3,5.034,5.034,0,0,1-2.4.9,12.336,12.336,0,0,1-3.152-.3c-.3,0-.6-.15-.9-.15-.75-.75-1.8-.15-2.1.9a1.967,1.967,0,0,0,1.2,2.4c.45.15.75.15,1.2.3.75.15,1.351.15,2.1.3v.9a1.951,1.951,0,1,0,3.9,0V51.763a5.8,5.8,0,0,0,2.852-1.5,5.584,5.584,0,0,0,1.951-4.2,5.45,5.45,0,0,0-1.8-4.2A10.251,10.251,0,0,0,16.327,39.306Z" transform="translate(2.583 -4.186)"/><path class="a" d="M87.649,12.3H7.354A6.086,6.086,0,0,0,1.2,18.454V65.43a6.086,6.086,0,0,0,6.154,6.154h80.3A6.086,6.086,0,0,0,93.8,65.43V18.3A6.253,6.253,0,0,0,87.649,12.3Zm-80.3,3.752h80.3a2.371,2.371,0,0,1,2.4,2.4v8.7H4.952v-8.7A2.371,2.371,0,0,1,7.354,16.052Zm80.3,51.629H7.354a2.371,2.371,0,0,1-2.4-2.4V30.761h85.1V65.43A2.564,2.564,0,0,1,87.649,67.682Z" transform="translate(-1.2 -12.3)"/></g></g></svg>