<svg xmlns="http://www.w3.org/2000/svg" width="260" height="55.511" viewBox="0 0 260 55.511"><defs><style>.a{fill-rule:evenodd;}</style></defs><g transform="translate(1436.06 -154.214)"><path class="a" d="M259.746,133.725h-2.173V78.876h2.173Zm-26.253-.167H231.32V78.708h2.173ZM31.013,103.234,33.2,87.416l2.216,15.818H46.069l5.171-24.425H42.9L40.617,94.255,38.331,78.808H28.165L25.879,93.847,23.627,78.808H14.94l5.241,24.425Zm24.407,0H76.635V96.882H65.95V93.994H76.028V87.709H65.95V85.093H76.285V78.808H55.42v24.425ZM81.2,95.387a7.387,7.387,0,0,0-.037.883c0,4.654,4.223,7.379,12.18,7.379,7.842,0,12.111-2.8,12.111-7.967,0-4.45-2.5-5.768-8.748-7.872-3.336-1.123-5.27-1.063-5.27-2.763,0-.917.585-1.583,1.98-1.583,1.649,0,2.451,1.089,2.376,2.692H104.8V85.128c0-4.314-3.9-6.914-11.1-6.914-7.918,0-12.122,3.076-12.122,7.866,0,3.432,2.13,5.417,6.5,6.671a46.834,46.834,0,0,1,6.439,2.292,1.56,1.56,0,0,1,.877,1.74c-.142.95-.714,1.536-2.161,1.536-1.772,0-2.271-1.063-2.271-2.728v-.2H81.2v0Zm50.132-16.579H108.1v6.523h6.468v17.9H124.9v-17.9h6.428V78.808Zm4.447,24.425h21.213V96.882H146.309V93.994h9.979V87.709h-9.979V85.093h10.335V78.808H135.78v24.425Zm27.678,0h10.164v-8.7c.341-.034.677-.034.94-.034,2.439,0,2.8.886,3.187,3.537l.266,1.8a24.889,24.889,0,0,0,.788,3.4h10.317c-.451-1.8-.788-3.261-.937-4.349l-.341-2.616c-.457-3.536-1.8-4.864-4.537-5.408a5.932,5.932,0,0,0,4.876-5.721c0-4.887-3.084-6.335-10.508-6.335H163.456v24.428Zm10.164-14.7V84.277c.454-.034.827-.034,1.164-.034,2.289,0,3.3.558,3.3,2.075,0,1.552-1.277,2.251-3.716,2.251a5.7,5.7,0,0,1-.752-.035Zm28.591.766,5.452,13.934h11.822V78.808H211.5V91.245l-4.512-12.436H194.229v24.425h7.984V89.3Zm-80.85,29.151,5.452,13.934h11.819V107.961h-7.985V120.4l-4.511-12.435h-12.76v24.424h7.985Zm81.1,0,5.452,13.934h11.819V107.961h-7.987V120.4l-4.509-12.435h-12.76v24.424h7.985V118.451Zm-120.7-10.49v14.716c0,2.815.186,5.023,2.358,7.13,2.248,2.173,5.507,2.993,10.151,2.993,8.539,0,12.543-3.2,12.543-10.123V107.961H96.664V123.05c0,2-.9,3.087-2.4,3.087-1.574,0-2.4-1.018-2.4-3.087V107.961Zm73.922,0H145.276v24.427h10.407Zm19.056,24.806c9.258,0,14.212-4.48,14.212-12.77,0-8.153-4.994-12.8-13.868-12.8-8.953,0-13.981,4.647-13.981,12.835C161.1,128.151,166.089,132.767,174.739,132.767Zm.3-19.9c2.4,0,2.972,2.119,2.972,6.745,0,5.163-.611,7.515-3.012,7.515-2.361,0-2.969-2.313-2.969-7.014C172.035,115.18,172.566,112.868,175.043,112.868Zm95.9-34.412a3.791,3.791,0,0,0-2.764,1.129,4.065,4.065,0,0,0-1.209,2.854,4.031,4.031,0,0,0,3.973,3.987,4.054,4.054,0,0,0,2.833-1.186,3.817,3.817,0,0,0,1.164-2.8,3.973,3.973,0,0,0-1.152-2.8A3.919,3.919,0,0,0,270.943,78.455Zm3.466,4.017a3.3,3.3,0,0,1-1.005,2.4,3.5,3.5,0,0,1-2.48,1.018,3.409,3.409,0,0,1-2.414-1.028,3.444,3.444,0,0,1-1.015-2.423,3.533,3.533,0,0,1,1.051-2.478,3.326,3.326,0,0,1,2.411-.986A3.38,3.38,0,0,1,273.424,80a3.425,3.425,0,0,1,.984,2.468ZM271.057,80.1h-1.7v4.517h.851V82.694h.842l.917,1.927h.955l-1.009-2.06a1.179,1.179,0,0,0,1.03-1.218c0-.819-.623-1.239-1.882-1.239Zm-.159.553c.8,0,1.164.222,1.164.775,0,.53-.364.72-1.14.72h-.72V80.657h.7Z" transform="translate(-1451 76)"/></g></svg>