<svg xmlns="http://www.w3.org/2000/svg" width="69.434" height="69.56" viewBox="0 0 69.434 69.56"><defs><style>.a{fill:none;stroke:#002270;stroke-linecap:round;stroke-linejoin:round;stroke-width:4px;}</style></defs><g transform="translate(-0.109 1.828)"><path class="a" d="M35.557,19.557V1H17" transform="translate(31.158)"/><line class="a" y1="21.65" x2="21.65" transform="translate(45.065 1)"/><path class="a" d="M63.622,48.145v9.278a6.186,6.186,0,0,1-6.742,6.186,61.207,61.207,0,0,1-26.691-9.495A60.31,60.31,0,0,1,11.632,35.557,61.207,61.207,0,0,1,2.137,8.743,6.186,6.186,0,0,1,8.292,2H17.57a6.186,6.186,0,0,1,6.186,5.32,39.711,39.711,0,0,0,2.165,8.691,6.186,6.186,0,0,1-1.392,6.526L20.6,26.464A49.485,49.485,0,0,0,39.158,45.021l3.928-3.928A6.186,6.186,0,0,1,49.612,39.7,39.712,39.712,0,0,0,58.3,41.867a6.186,6.186,0,0,1,5.32,6.278Z" transform="translate(0 2.093)"/></g></svg>