<svg xmlns="http://www.w3.org/2000/svg" width="82" height="81" viewBox="0 0 82 81"><defs><style>.a{fill:#002270;}.b{fill:#fff;}</style></defs><g transform="translate(0.331)"><ellipse class="a" cx="41" cy="40.5" rx="41" ry="40.5" transform="translate(-0.331)"/><g transform="translate(21.464 21.902)"><path class="b" d="M923.025,274.959H906.24a11.419,11.419,0,0,0-11.407,11.407v16.785a11.42,11.42,0,0,0,11.407,11.407h16.785a11.42,11.42,0,0,0,11.407-11.407V286.366A11.419,11.419,0,0,0,923.025,274.959Zm7.366,28.192a7.373,7.373,0,0,1-7.366,7.366H906.24a7.374,7.374,0,0,1-7.367-7.366V286.366A7.375,7.375,0,0,1,906.24,279h16.785a7.375,7.375,0,0,1,7.366,7.367Z" transform="translate(-894.833 -274.959)"/><path class="b" d="M912.066,283a9.2,9.2,0,1,0,9.2,9.2A9.207,9.207,0,0,0,912.066,283Zm0,14.163a4.967,4.967,0,1,1,4.967-4.967A4.973,4.973,0,0,1,912.066,297.159Z" transform="translate(-892.267 -272.392)"/><path class="b" d="M918.31,279.974a2.727,2.727,0,1,0,2.727,2.727A2.728,2.728,0,0,0,918.31,279.974Z" transform="translate(-888.207 -273.357)"/></g></g></svg>