<svg xmlns="http://www.w3.org/2000/svg" width="448.007" height="18.008" viewBox="0 0 448.007 18.008"><defs><style>.a{fill:#002270;}.b,.d{fill:none;}.b{stroke:#002270;}.c{stroke:none;}</style></defs><g transform="translate(-676 -3030.5)"><circle class="a" cx="9.004" cy="9.004" r="9.004" transform="translate(909.007 3030.5) rotate(90)"/><g class="b" transform="translate(995.008 3030.5) rotate(90)"><circle class="c" cx="9.004" cy="9.004" r="9.004"/><circle class="d" cx="9.004" cy="9.004" r="8.504"/></g><g class="b" transform="translate(737.008 3030.5) rotate(90)"><circle class="c" cx="9.004" cy="9.004" r="9.004"/><circle class="d" cx="9.004" cy="9.004" r="8.504"/></g><g class="b" transform="translate(952.007 3030.5) rotate(90)"><circle class="c" cx="9.004" cy="9.004" r="9.004"/><circle class="d" cx="9.004" cy="9.004" r="8.504"/></g><g class="b" transform="translate(694.007 3030.5) rotate(90)"><circle class="c" cx="9.004" cy="9.004" r="9.004"/><circle class="d" cx="9.004" cy="9.004" r="8.504"/></g><g class="b" transform="translate(1038.007 3030.5) rotate(90)"><circle class="c" cx="9.004" cy="9.004" r="9.004"/><circle class="d" cx="9.004" cy="9.004" r="8.504"/></g><g class="b" transform="translate(780.007 3030.5) rotate(90)"><circle class="c" cx="9.004" cy="9.004" r="9.004"/><circle class="d" cx="9.004" cy="9.004" r="8.504"/></g><g class="b" transform="translate(1081.007 3030.5) rotate(90)"><circle class="c" cx="9.004" cy="9.004" r="9.004"/><circle class="d" cx="9.004" cy="9.004" r="8.504"/></g><g class="b" transform="translate(823.007 3030.5) rotate(90)"><circle class="c" cx="9.004" cy="9.004" r="9.004"/><circle class="d" cx="9.004" cy="9.004" r="8.504"/></g><g class="b" transform="translate(1124.007 3030.5) rotate(90)"><circle class="c" cx="9.004" cy="9.004" r="9.004"/><circle class="d" cx="9.004" cy="9.004" r="8.504"/></g><g class="b" transform="translate(866.007 3030.5) rotate(90)"><circle class="c" cx="9.004" cy="9.004" r="9.004"/><circle class="d" cx="9.004" cy="9.004" r="8.504"/></g></g></svg>