<svg xmlns="http://www.w3.org/2000/svg" width="313" height="70" viewBox="0 0 313 70"><defs><style>.a{fill:#868c98;}.b{fill:#fff;font-size:16px;font-family:Asap-Bold, Asap;font-weight:700;}.c{font-family:Asap-Regular, Asap;font-weight:400;}.d{fill:none;stroke:#fff;stroke-linecap:round;stroke-linejoin:round;stroke-width:2px;}</style></defs><g transform="translate(-1833 -1010)"><rect class="a" width="87" height="70" transform="translate(1833 1010)"/><text class="b" transform="translate(1987 1040)"><tspan x="0" y="0">¡Chatea con nosotros!</tspan><tspan class="c"><tspan x="0" y="18">Resolvemos tus dudas.</tspan></tspan></text><path class="d" d="M40,20.472a17.226,17.226,0,0,1-1.85,7.811,17.472,17.472,0,0,1-15.622,9.661,17.225,17.225,0,0,1-7.811-1.85L3,40,6.906,28.283a17.226,17.226,0,0,1-1.85-7.811A17.472,17.472,0,0,1,14.717,4.85,17.226,17.226,0,0,1,22.528,3h1.028A17.431,17.431,0,0,1,40,19.444Z" transform="translate(1853 1022)"/></g></svg>