<svg xmlns="http://www.w3.org/2000/svg" width="81" height="81" viewBox="0 0 81 81"><defs><style>.a{fill:#002270;}.b{fill:#fff;}</style></defs><circle class="a" cx="40.5" cy="40.5" r="40.5"/><g transform="translate(29.498 19.614)"><path class="b" d="M829.124,273.662l-6.355-.142a9.315,9.315,0,0,0-9.522,9.312v6.029h-5.905a.439.439,0,0,0-.439.439v7.574a.439.439,0,0,0,.439.439h5.905V316.48a.44.44,0,0,0,.44.439h7.82a.439.439,0,0,0,.439-.439V297.314H827.9a.44.44,0,0,0,.437-.383l.984-7.574a.438.438,0,0,0-.437-.5h-6.938v-3.83a4.367,4.367,0,0,1,.806-2.924,2.386,2.386,0,0,1,1.871-.73h4.492a.439.439,0,0,0,.44-.439V274.1A.439.439,0,0,0,829.124,273.662Z" transform="translate(-806.903 -273.518)"/></g></svg>