<svg xmlns="http://www.w3.org/2000/svg" width="103.441" height="97.629" viewBox="0 0 103.441 97.629"><defs><style>.a{fill:none;stroke:#002270;stroke-linecap:round;stroke-linejoin:round;stroke-width:4px;}</style></defs><g transform="translate(-1390 -2885.709)"><g transform="translate(0 1507)"><path class="a" d="M32.426,5.578a8.8,8.8,0,0,0-12.453,0l-1.7,1.7-1.7-1.7A8.805,8.805,0,0,0,4.128,18.031l1.7,1.7L18.277,32.18,30.729,19.727l1.7-1.7a8.8,8.8,0,0,0,0-12.453Z" transform="translate(1456.436 1377.711)"/><g transform="translate(1391 1407.156)"><path class="a" d="M58.051,36.394V29.263A14.263,14.263,0,0,0,43.788,15H15.263A14.263,14.263,0,0,0,1,29.263v7.131" transform="translate(0 30.788)"/><circle class="a" cx="14" cy="14" r="14" transform="translate(16 2.844)"/><path class="a" d="M30.7,36.06V28.929A14.263,14.263,0,0,0,20,15.13" transform="translate(48.747 31.121)"/><path class="a" d="M16,3.13a14.263,14.263,0,0,1,0,27.634" transform="translate(38.485 0.334)"/></g></g></g></svg>