<svg xmlns="http://www.w3.org/2000/svg" width="122.328" height="115.439" viewBox="0 0 122.328 115.439"><defs><style>.a,.b{fill:none;stroke:#002270;stroke-linecap:round;stroke-linejoin:round;}.a{stroke-width:4px;}.b{stroke-width:2px;}</style></defs><g transform="translate(-417 -2846.5)"><g transform="translate(18 1507)"><g transform="translate(427.56 1381.534)"><path class="a" d="M63,39.8V31.534A16.534,16.534,0,0,0,46.47,15H17.534A16.534,16.534,0,0,0,1,31.534V39.8" transform="translate(-1 31.603)"/><ellipse class="a" cx="16.534" cy="16.534" rx="16.534" ry="16.534" transform="translate(14.468 0)"/><path class="a" d="M17,17.267l8.267,8.267L41.8,9" transform="translate(49.138 15.802)"/></g><path class="b" d="M14.249,2l3.785,7.668L26.5,10.905,20.374,16.87,21.819,25.3l-7.57-3.981L6.679,25.3,8.125,16.87,2,10.905l8.464-1.237Z" transform="translate(428.623 1338.5)"/><path class="b" d="M10.881,2l2.744,5.559,6.136.9-4.44,4.325,1.048,6.11L10.881,16,5.392,18.891l1.048-6.11L2,8.456l6.136-.9Z" transform="translate(406.574 1362.055)"/><path class="b" d="M8.849,2l2.116,4.287,4.733.692-3.424,3.335.808,4.712L8.849,12.8,4.616,15.026l.808-4.712L2,6.979l4.733-.692Z" transform="translate(398 1390.228)"/></g></g></svg>