<svg xmlns="http://www.w3.org/2000/svg" width="39" height="39" viewBox="0 0 39 39"><defs><style>.a{fill:none;stroke:#fff;stroke-linecap:round;stroke-linejoin:round;stroke-width:2px;}</style></defs><path class="a" d="M40,20.472a17.226,17.226,0,0,1-1.85,7.811,17.472,17.472,0,0,1-15.622,9.661,17.225,17.225,0,0,1-7.811-1.85L3,40,6.906,28.283a17.226,17.226,0,0,1-1.85-7.811A17.472,17.472,0,0,1,14.717,4.85,17.226,17.226,0,0,1,22.528,3h1.028A17.431,17.431,0,0,1,40,19.444Z" transform="translate(-2 -2)"/></svg>