<svg id="ARGENTINA" xmlns="http://www.w3.org/2000/svg" xmlns:xlink="http://www.w3.org/1999/xlink" width="41.719" height="24.335" viewBox="0 0 41.719 24.335">
  <defs>
    <clipPath id="clip-path">
      <rect id="Rectángulo_310" data-name="Rectángulo 310" width="41.719" height="24.335" fill="none"/>
    </clipPath>
  </defs>
  <g id="Grupo_515" data-name="Grupo 515">
    <g id="Grupo_514" data-name="Grupo 514">
      <g id="Grupo_513" data-name="Grupo 513" clip-path="url(#clip-path)">
        <rect id="Rectángulo_306" data-name="Rectángulo 306" width="41.719" height="8.113" transform="translate(0 8.112)" fill="#fff"/>
        <rect id="Rectángulo_307" data-name="Rectángulo 307" width="41.719" height="8.112" fill="#80a7d8"/>
        <rect id="Rectángulo_308" data-name="Rectángulo 308" width="41.719" height="8.11" transform="translate(0 16.225)" fill="#80a7d8"/>
        <g id="Grupo_512" data-name="Grupo 512">
          <g id="Grupo_511" data-name="Grupo 511" clip-path="url(#clip-path)">
            <path id="Trazado_1281" data-name="Trazado 1281" d="M987.4,170.472l.127,3.322s0,.061.041.061.039-.061.039-.061l.127-3.322Z" transform="translate(-966.708 -158.308)" fill="#f1bd51"/>
            <g id="Grupo_478" data-name="Grupo 478" transform="translate(20.684 12.164)">
              <path id="Trazado_1282" data-name="Trazado 1282" d="M987.569,173.864c-.041,0-.051-.048-.051-.071l-.125-3.318.021,0,.122,3.322s0,.051.034.051.03-.051.03-.051l.126-3.322-.1,3.322c0,.022-.015.071-.054.071Z" transform="translate(-987.393 -170.472)" fill="#7a361d"/>
            </g>
            <path id="Trazado_1283" data-name="Trazado 1283" d="M987.469,170.472l.083,2.281.08-2.281Z" transform="translate(-966.691 -158.308)" fill="#7a361d"/>
            <path id="Trazado_1284" data-name="Trazado 1284" d="M987.366,171.336c-.189.418-.031.758-.216,1.123a1.411,1.411,0,0,0-.085.833c-.015.168-.148.215-.117.254s.18-.037.234-.262-.076-.349.148-.8.051-.65.281-1.049Z" transform="translate(-966.819 -158.098)" fill="#f1bd51"/>
            <g id="Grupo_479" data-name="Grupo 479" transform="translate(20.114 13.235)">
              <path id="Trazado_1285" data-name="Trazado 1285" d="M986.987,173.564l-.046-.012c-.017-.024,0-.048.026-.075a.288.288,0,0,0,.085-.188.75.75,0,0,0-.007-.162,1.059,1.059,0,0,1,.1-.673,1.2,1.2,0,0,0,.1-.537,1.389,1.389,0,0,1,.114-.586l.017.007a1.4,1.4,0,0,0-.109.579,1.262,1.262,0,0,1-.107.543,1.065,1.065,0,0,0-.094.665c0,.063.01.117.01.164a.337.337,0,0,1-.094.2c-.025.029-.032.039-.025.048.083-.01.178-.091.219-.257a.644.644,0,0,0,.012-.206.99.99,0,0,1,.138-.592,1.185,1.185,0,0,0,.135-.536,1.04,1.04,0,0,1,.142-.515,1.291,1.291,0,0,0-.122.515,1.283,1.283,0,0,1-.135.544,1.061,1.061,0,0,0-.142.581.754.754,0,0,1-.011.216.367.367,0,0,1-.2.275Z" transform="translate(-986.934 -171.333)" fill="#7a361d"/>
            </g>
            <path id="Trazado_1286" data-name="Trazado 1286" d="M987.366,171.421c-.15.416.005.691-.194,1.045.221-.254.075-.579.265-1.011Z" transform="translate(-966.763 -158.077)" fill="#7a361d"/>
            <path id="Trazado_1287" data-name="Trazado 1287" d="M987.733,171.132l-.127-3.315s0-.061-.039-.061-.041.061-.041.061l-.127,3.315Z" transform="translate(-966.708 -158.968)" fill="#f1bd51"/>
            <g id="Grupo_480" data-name="Grupo 480" transform="translate(20.705 8.774)">
              <path id="Trazado_1288" data-name="Trazado 1288" d="M987.721,171.139l-.125-3.318s0-.053-.03-.053-.034.052-.034.052l-.122,3.319.1-3.319c0-.027.01-.075.051-.075s.054.047.054.075l.127,3.315-.025,0Z" transform="translate(-987.41 -167.745)" fill="#7a361d"/>
            </g>
            <path id="Trazado_1289" data-name="Trazado 1289" d="M987.631,170.916l-.08-2.274-.083,2.274Z" transform="translate(-966.691 -158.752)" fill="#7a361d"/>
            <path id="Trazado_1290" data-name="Trazado 1290" d="M987.834,170.043c.19-.415.027-.756.216-1.121a1.392,1.392,0,0,0,.082-.832c.015-.167.153-.214.117-.254s-.175.04-.232.26.08.351-.15.8-.045.648-.275,1.048Z" transform="translate(-966.661 -158.951)" fill="#f1bd51"/>
            <g id="Grupo_481" data-name="Grupo 481" transform="translate(20.941 8.868)">
              <path id="Trazado_1291" data-name="Trazado 1291" d="M987.842,170.05l-.017-.007a1.509,1.509,0,0,0,.107-.576,1.192,1.192,0,0,1,.109-.548,1.05,1.05,0,0,0,.089-.661c0-.065-.009-.122,0-.165a.31.31,0,0,1,.091-.2c.026-.03.031-.04.026-.047-.08.006-.174.087-.216.255a.566.566,0,0,0-.011.208,1.029,1.029,0,0,1-.142.593,1.23,1.23,0,0,0-.135.537,1.056,1.056,0,0,1-.138.51,1.3,1.3,0,0,0,.116-.513,1.246,1.246,0,0,1,.139-.543.957.957,0,0,0,.135-.583.771.771,0,0,1,.015-.21c.043-.18.143-.265.2-.277h.005l.046.014c.022.022,0,.046-.025.073a.294.294,0,0,0-.087.185.748.748,0,0,0,.008.163,1.089,1.089,0,0,1-.094.674,1.179,1.179,0,0,0-.107.538,1.425,1.425,0,0,1-.109.583Z" transform="translate(-987.6 -167.82)" fill="#7a361d"/>
            </g>
            <path id="Trazado_1292" data-name="Trazado 1292" d="M987.759,169.729c.153-.414-.01-.69.194-1.043-.22.254-.08.578-.268,1.007Z" transform="translate(-966.638 -158.742)" fill="#7a361d"/>
            <path id="Trazado_1293" data-name="Trazado 1293" d="M988.2,170.34l-3.319.123s-.062,0-.062.041.062.045.062.045l3.319.123Z" transform="translate(-967.336 -158.34)" fill="#f1bd51"/>
            <g id="Grupo_482" data-name="Grupo 482" transform="translate(17.472 11.99)">
              <path id="Trazado_1294" data-name="Trazado 1294" d="M988.2,170.665l-3.322-.106c-.021,0-.07-.01-.07-.053s.048-.048.07-.048l3.319-.126,0,.021-3.322.123s-.053,0-.053.03.053.034.053.034l3.322.126Z" transform="translate(-984.809 -170.332)" fill="#7a361d"/>
            </g>
            <path id="Trazado_1295" data-name="Trazado 1295" d="M987.981,170.406l-2.277.081,2.277.085Z" transform="translate(-967.12 -158.324)" fill="#7a361d"/>
            <path id="Trazado_1296" data-name="Trazado 1296" d="M987.106,170.3c-.415-.193-.757-.03-1.119-.219a1.476,1.476,0,0,0-.838-.082c-.165-.015-.211-.153-.252-.116s.041.175.261.231.351-.075.8.152.651.048,1.052.278Z" transform="translate(-967.318 -158.451)" fill="#f1bd51"/>
            <g id="Grupo_483" data-name="Grupo 483" transform="translate(17.561 11.419)">
              <path id="Trazado_1297" data-name="Trazado 1297" d="M987.013,170.541a1.4,1.4,0,0,0-.515-.118,1.256,1.256,0,0,1-.547-.139,1,1,0,0,0-.581-.138.612.612,0,0,1-.211-.014c-.167-.041-.261-.132-.276-.2l0-.007.012-.044c.029-.024.051,0,.077.024a.273.273,0,0,0,.185.09.848.848,0,0,0,.158-.011,1.114,1.114,0,0,1,.679.094,1.152,1.152,0,0,0,.537.108,1.414,1.414,0,0,1,.583.109l-.005.021a1.422,1.422,0,0,0-.578-.109,1.174,1.174,0,0,1-.548-.109,1.055,1.055,0,0,0-.664-.092.987.987,0,0,1-.167.007.3.3,0,0,1-.2-.093c-.026-.021-.039-.03-.048-.021.01.081.086.17.257.213a.718.718,0,0,0,.206.014,1,1,0,0,1,.59.14,1.264,1.264,0,0,0,.537.137,1.085,1.085,0,0,1,.515.138Z" transform="translate(-984.881 -169.872)" fill="#7a361d"/>
            </g>
            <path id="Trazado_1298" data-name="Trazado 1298" d="M986.793,170.3c-.415-.145-.69.01-1.047-.19.252.223.583.076,1.011.269Z" transform="translate(-967.11 -158.396)" fill="#7a361d"/>
            <path id="Trazado_1299" data-name="Trazado 1299" d="M987.535,170.672l3.319-.123s.061,0,.061-.045-.061-.041-.061-.041l-3.319-.123Z" transform="translate(-966.675 -158.34)" fill="#f1bd51"/>
            <g id="Grupo_484" data-name="Grupo 484" transform="translate(20.86 12.011)">
              <path id="Trazado_1300" data-name="Trazado 1300" d="M987.537,170.682l0-.021,3.319-.126s.051,0,.051-.034-.051-.03-.051-.03l-3.319-.123,3.319.1c.022,0,.068.01.068.048s-.046.053-.068.053l-3.317.127Z" transform="translate(-987.535 -170.349)" fill="#7a361d"/>
            </g>
            <path id="Trazado_1301" data-name="Trazado 1301" d="M987.535,170.572l2.277-.085-2.277-.081Z" transform="translate(-966.675 -158.324)" fill="#7a361d"/>
            <path id="Trazado_1302" data-name="Trazado 1302" d="M988.4,170.774c.419.19.762.026,1.126.218a1.459,1.459,0,0,0,.83.086c.165.012.211.148.252.112s-.041-.177-.262-.232-.352.078-.794-.15-.653-.046-1.049-.277Z" transform="translate(-966.465 -158.294)" fill="#f1bd51"/>
            <g id="Grupo_485" data-name="Grupo 485" transform="translate(21.927 12.244)">
              <path id="Trazado_1303" data-name="Trazado 1303" d="M990.592,171.2a.086.086,0,0,1-.053-.031.282.282,0,0,0-.184-.087.77.77,0,0,0-.163.009,1.077,1.077,0,0,1-.672-.1,1.2,1.2,0,0,0-.542-.108,1.394,1.394,0,0,1-.584-.111l.009-.017a1.419,1.419,0,0,0,.576.109,1.225,1.225,0,0,1,.552.109,1.055,1.055,0,0,0,.658.093.933.933,0,0,1,.168-.009.319.319,0,0,1,.2.091c.031.027.041.03.046.026-.005-.081-.084-.173-.252-.214a.661.661,0,0,0-.206-.016.976.976,0,0,1-.593-.138,1.237,1.237,0,0,0-.533-.137,1.059,1.059,0,0,1-.515-.142,1.321,1.321,0,0,0,.515.121,1.287,1.287,0,0,1,.543.14.987.987,0,0,0,.583.135.656.656,0,0,1,.211.014.366.366,0,0,1,.275.2v.006l-.015.044c0,.007-.008.009-.018.009Z" transform="translate(-988.393 -170.536)" fill="#7a361d"/>
            </g>
            <path id="Trazado_1304" data-name="Trazado 1304" d="M988.48,170.7c.418.15.7,0,1.049.191-.252-.22-.58-.075-1.009-.267Z" transform="translate(-966.445 -158.271)" fill="#7a361d"/>
            <path id="Trazado_1305" data-name="Trazado 1305" d="M987.886,170.379l-2.259,2.435s-.041.044-.013.075.071-.017.071-.017l2.435-2.259Z" transform="translate(-967.144 -158.33)" fill="#f1bd51"/>
            <g id="Grupo_486" data-name="Grupo 486" transform="translate(18.457 12.042)">
              <path id="Trazado_1306" data-name="Trazado 1306" d="M985.638,172.91a.064.064,0,0,1-.017-.1l2.259-2.433.016.014-2.258,2.434s-.036.037-.017.058.063-.015.063-.015l2.433-2.255-2.42,2.271a.1.1,0,0,1-.058.029Z" transform="translate(-985.602 -170.374)" fill="#7a361d"/>
            </g>
            <path id="Trazado_1307" data-name="Trazado 1307" d="M987.789,170.426,986.24,172.1l1.67-1.551Z" transform="translate(-966.989 -158.319)" fill="#7a361d"/>
            <path id="Trazado_1308" data-name="Trazado 1308" d="M987.109,170.9c-.433.159-.558.518-.945.64a1.44,1.44,0,0,0-.648.53c-.127.109-.257.045-.262.1s.153.1.352-.022.188-.3.665-.455.493-.425.94-.542Z" transform="translate(-967.229 -158.202)" fill="#f1bd51"/>
            <g id="Grupo_487" data-name="Grupo 487" transform="translate(18.015 12.695)">
              <path id="Trazado_1309" data-name="Trazado 1309" d="M985.368,172.238a.2.2,0,0,1-.094-.021l-.027-.042c0-.034.032-.036.068-.036a.324.324,0,0,0,.194-.071.556.556,0,0,0,.1-.119,1.1,1.1,0,0,1,.551-.413,1.135,1.135,0,0,0,.455-.3,1.408,1.408,0,0,1,.492-.334l.008.019a1.451,1.451,0,0,0-.486.331,1.146,1.146,0,0,1-.464.307,1.067,1.067,0,0,0-.536.405,1.043,1.043,0,0,1-.107.122.342.342,0,0,1-.209.077c-.032,0-.049,0-.049.015a.3.3,0,0,0,.332-.03.688.688,0,0,0,.158-.138,1.013,1.013,0,0,1,.517-.319,1.257,1.257,0,0,0,.474-.28,1.045,1.045,0,0,1,.466-.265,1.3,1.3,0,0,0-.451.278,1.225,1.225,0,0,1-.484.286,1,1,0,0,0-.507.314.654.654,0,0,1-.16.139.474.474,0,0,1-.242.077Z" transform="translate(-985.246 -170.899)" fill="#7a361d"/>
            </g>
            <path id="Trazado_1310" data-name="Trazado 1310" d="M986.885,171c-.4.189-.484.494-.869.6.332-.024.459-.357.9-.523Z" transform="translate(-967.044 -158.18)" fill="#7a361d"/>
            <path id="Trazado_1311" data-name="Trazado 1311" d="M987.675,171.059l2.257-2.431s.044-.045.017-.075-.076.012-.076.012l-2.434,2.26Z" transform="translate(-966.698 -158.777)" fill="#f1bd51"/>
            <g id="Grupo_488" data-name="Grupo 488" transform="translate(20.746 9.757)">
              <path id="Trazado_1312" data-name="Trazado 1312" d="M987.682,171.068l-.013-.01,2.257-2.436s.032-.037.013-.06-.058.012-.058.012l-2.438,2.26,2.426-2.274c.011-.016.057-.041.085-.014s0,.071-.015.087l-2.257,2.434Z" transform="translate(-987.443 -168.535)" fill="#7a361d"/>
            </g>
            <path id="Trazado_1313" data-name="Trazado 1313" d="M987.608,170.847l1.551-1.668-1.673,1.55Z" transform="translate(-966.686 -158.622)" fill="#7a361d"/>
            <path id="Trazado_1314" data-name="Trazado 1314" d="M988.343,170.3c.428-.16.555-.517.947-.64a1.453,1.453,0,0,0,.648-.528c.127-.108.259-.045.259-.1s-.149-.1-.348.021-.194.3-.67.456-.492.426-.935.547Z" transform="translate(-966.502 -158.67)" fill="#f1bd51"/>
            <g id="Grupo_489" data-name="Grupo 489" transform="translate(21.742 10.3)">
              <path id="Trazado_1315" data-name="Trazado 1315" d="M988.343,170.312l-.005-.019a1.44,1.44,0,0,0,.484-.331,1.122,1.122,0,0,1,.469-.31,1.053,1.053,0,0,0,.532-.4.881.881,0,0,1,.112-.124.315.315,0,0,1,.2-.073c.036,0,.048,0,.048-.016a.3.3,0,0,0-.333.03.649.649,0,0,0-.153.136,1.062,1.062,0,0,1-.52.324,1.23,1.23,0,0,0-.479.278,1.04,1.04,0,0,1-.459.265,1.243,1.243,0,0,0,.447-.281,1.235,1.235,0,0,1,.487-.283.99.99,0,0,0,.5-.316.9.9,0,0,1,.163-.142.371.371,0,0,1,.336-.053l.029.045c0,.03-.034.032-.07.036a.283.283,0,0,0-.19.066,1.011,1.011,0,0,0-.109.122,1.057,1.057,0,0,1-.543.409,1.191,1.191,0,0,0-.461.306,1.428,1.428,0,0,1-.491.336Z" transform="translate(-988.244 -168.973)" fill="#7a361d"/>
            </g>
            <path id="Trazado_1316" data-name="Trazado 1316" d="M988.359,170.068c.4-.189.485-.493.874-.6-.333.021-.464.354-.9.521Z" transform="translate(-966.481 -158.552)" fill="#7a361d"/>
            <path id="Trazado_1317" data-name="Trazado 1317" d="M988.121,170.825l-2.435-2.26s-.043-.042-.071-.012.013.075.013.075l2.259,2.431Z" transform="translate(-967.144 -158.777)" fill="#f1bd51"/>
            <g id="Grupo_490" data-name="Grupo 490" transform="translate(18.452 9.757)">
              <path id="Trazado_1318" data-name="Trazado 1318" d="M987.9,171.058l-2.275-2.424c-.015-.016-.041-.057-.01-.086s.068,0,.086.012l2.433,2.259-.013.015-2.433-2.259s-.041-.034-.063-.014.013.06.017.06l2.258,2.436Z" transform="translate(-985.597 -168.535)" fill="#7a361d"/>
            </g>
            <path id="Trazado_1319" data-name="Trazado 1319" d="M987.911,170.729l-1.67-1.55,1.549,1.668Z" transform="translate(-966.989 -158.622)" fill="#7a361d"/>
            <path id="Trazado_1320" data-name="Trazado 1320" d="M987.36,170.049c-.155-.43-.512-.556-.639-.947a1.433,1.433,0,0,0-.527-.65c-.109-.126-.046-.256-.1-.26s-.094.154.018.351.306.191.461.67.423.492.543.939Z" transform="translate(-967.038 -158.862)" fill="#f1bd51"/>
            <g id="Grupo_491" data-name="Grupo 491" transform="translate(18.994 9.319)">
              <path id="Trazado_1321" data-name="Trazado 1321" d="M987.128,170.15a1.371,1.371,0,0,0-.278-.451,1.2,1.2,0,0,1-.285-.48,1.035,1.035,0,0,0-.316-.511.59.59,0,0,1-.143-.159.361.361,0,0,1-.051-.334l.046-.031c.026,0,.031.035.031.071a.335.335,0,0,0,.068.194.938.938,0,0,0,.127.108,1.071,1.071,0,0,1,.405.544,1.2,1.2,0,0,0,.306.456,1.543,1.543,0,0,1,.337.491l-.021.007a1.368,1.368,0,0,0-.333-.485,1.205,1.205,0,0,1-.308-.466,1.084,1.084,0,0,0-.4-.532,1.582,1.582,0,0,1-.127-.111.343.343,0,0,1-.072-.206c-.005-.035-.005-.05-.018-.051a.307.307,0,0,0,.026.336.77.77,0,0,0,.142.154,1.066,1.066,0,0,1,.321.517,1.242,1.242,0,0,0,.276.477,1.045,1.045,0,0,1,.267.461Z" transform="translate(-986.033 -168.183)" fill="#7a361d"/>
            </g>
            <path id="Trazado_1322" data-name="Trazado 1322" d="M987.135,169.826c-.2-.4-.5-.482-.61-.873.025.333.362.462.525.9Z" transform="translate(-966.92 -158.677)" fill="#7a361d"/>
            <path id="Trazado_1323" data-name="Trazado 1323" d="M987.44,170.613l2.434,2.259s.045.044.076.017-.017-.075-.017-.075l-2.257-2.435Z" transform="translate(-966.698 -158.33)" fill="#f1bd51"/>
            <g id="Grupo_492" data-name="Grupo 492" transform="translate(20.735 12.056)">
              <path id="Trazado_1324" data-name="Trazado 1324" d="M989.925,172.894a.071.071,0,0,1-.053-.016l-2.438-2.256.011-.014,2.438,2.255s.037.04.058.015-.013-.058-.013-.058l-2.257-2.434,2.27,2.419c.02.021.041.061.015.087a.116.116,0,0,1-.031,0Z" transform="translate(-987.434 -170.385)" fill="#7a361d"/>
            </g>
            <path id="Trazado_1325" data-name="Trazado 1325" d="M987.486,170.544l1.673,1.551-1.551-1.669Z" transform="translate(-966.686 -158.319)" fill="#7a361d"/>
            <path id="Trazado_1326" data-name="Trazado 1326" d="M987.965,171.284c.163.428.52.552.64.946a1.434,1.434,0,0,0,.527.646c.114.128.046.259.1.262s.1-.152-.019-.349-.3-.2-.454-.67-.43-.495-.547-.937Z" transform="translate(-966.57 -158.135)" fill="#f1bd51"/>
            <g id="Grupo_493" data-name="Grupo 493" transform="translate(21.385 13.049)">
              <path id="Trazado_1327" data-name="Trazado 1327" d="M989.234,173.147c-.031,0-.031-.035-.036-.071a.332.332,0,0,0-.068-.193.82.82,0,0,0-.121-.106,1.052,1.052,0,0,1-.41-.547,1.168,1.168,0,0,0-.306-.457,1.5,1.5,0,0,1-.336-.487l.02-.009a1.44,1.44,0,0,0,.332.484,1.15,1.15,0,0,1,.308.466,1.1,1.1,0,0,0,.4.536.577.577,0,0,1,.123.109.288.288,0,0,1,.071.2c.005.04.01.051.019.051a.286.286,0,0,0-.026-.331.775.775,0,0,0-.135-.159,1,1,0,0,1-.321-.513,1.217,1.217,0,0,0-.285-.479,1.048,1.048,0,0,1-.26-.46,1.193,1.193,0,0,0,.28.449,1.291,1.291,0,0,1,.283.484,1,1,0,0,0,.313.506.709.709,0,0,1,.142.16.36.36,0,0,1,.054.336l-.045.029Z" transform="translate(-987.957 -171.184)" fill="#7a361d"/>
            </g>
            <path id="Trazado_1328" data-name="Trazado 1328" d="M988.057,171.3c.186.4.495.482.6.873-.025-.334-.357-.462-.525-.9Z" transform="translate(-966.548 -158.114)" fill="#7a361d"/>
            <path id="Trazado_1329" data-name="Trazado 1329" d="M987.637,170.422l-1.154,3.115s-.021.057.015.071.063-.04.063-.04l1.381-3.018Z" transform="translate(-966.932 -158.32)" fill="#f1bd51"/>
            <g id="Grupo_494" data-name="Grupo 494" transform="translate(19.538 12.098)">
              <path id="Trazado_1330" data-name="Trazado 1330" d="M986.527,173.62c-.068-.017-.058-.063-.048-.087l1.15-3.114.02.009-1.154,3.113s-.016.05.007.061l.051-.039,1.384-3.017-1.366,3.028a.086.086,0,0,1-.044.046Z" transform="translate(-986.471 -170.419)" fill="#7a361d"/>
            </g>
            <path id="Trazado_1331" data-name="Trazado 1331" d="M987.633,170.448l-.8,2.137.947-2.073Z" transform="translate(-966.845 -158.314)" fill="#7a361d"/>
            <path id="Trazado_1332" data-name="Trazado 1332" d="M987.214,171.175c-.336.312-.316.689-.632.952a1.483,1.483,0,0,0-.4.737c-.076.149-.219.142-.2.189s.18.032.316-.15.063-.356.447-.68.288-.579.653-.861Z" transform="translate(-967.052 -158.137)" fill="#f1bd51"/>
            <g id="Grupo_495" data-name="Grupo 495" transform="translate(18.918 13.029)">
              <path id="Trazado_1333" data-name="Trazado 1333" d="M986.038,173.089h-.016l-.046-.027c-.012-.03.019-.045.051-.058a.332.332,0,0,0,.153-.139.947.947,0,0,0,.054-.157,1.063,1.063,0,0,1,.347-.583,1.259,1.259,0,0,0,.306-.457,1.41,1.41,0,0,1,.321-.5l.015.016a1.458,1.458,0,0,0-.321.487,1.157,1.157,0,0,1-.311.464,1.106,1.106,0,0,0-.341.577.839.839,0,0,1-.053.159.3.3,0,0,1-.162.145c-.032.017-.045.025-.04.036.081.024.193-.016.3-.154a.643.643,0,0,0,.089-.186,1.065,1.065,0,0,1,.357-.494,1.253,1.253,0,0,0,.332-.444,1.09,1.09,0,0,1,.326-.419,1.323,1.323,0,0,0-.306.426,1.262,1.262,0,0,1-.339.451,1.037,1.037,0,0,0-.351.485.7.7,0,0,1-.092.191.393.393,0,0,1-.27.179Z" transform="translate(-985.973 -171.168)" fill="#7a361d"/>
            </g>
            <path id="Trazado_1334" data-name="Trazado 1334" d="M987.093,171.271c-.3.324-.257.639-.577.889.3-.148.291-.507.63-.827Z" transform="translate(-966.922 -158.114)" fill="#7a361d"/>
            <path id="Trazado_1335" data-name="Trazado 1335" d="M987.716,171.148l1.161-3.113s.021-.056-.02-.072-.058.04-.058.04l-1.388,3.017Z" transform="translate(-966.705 -158.918)" fill="#f1bd51"/>
            <g id="Grupo_496" data-name="Grupo 496" transform="translate(20.715 9.035)">
              <path id="Trazado_1336" data-name="Trazado 1336" d="M987.729,171.151l-.022-.006,1.154-3.113s.022-.046-.005-.058l-.049.035-1.388,3.018L988.783,168a.114.114,0,0,1,.046-.046l.058.024a.111.111,0,0,1-.005.061l-1.154,3.111Z" transform="translate(-987.418 -167.955)" fill="#7a361d"/>
            </g>
            <path id="Trazado_1337" data-name="Trazado 1337" d="M987.625,170.917l.8-2.135-.947,2.072Z" transform="translate(-966.689 -158.719)" fill="#7a361d"/>
            <path id="Trazado_1338" data-name="Trazado 1338" d="M988.137,170.145c.332-.313.316-.69.63-.952a1.424,1.424,0,0,0,.391-.738c.082-.149.226-.138.209-.188s-.18-.034-.316.149-.063.354-.446.68-.295.581-.659.861Z" transform="translate(-966.575 -158.85)" fill="#f1bd51"/>
            <g id="Grupo_497" data-name="Grupo 497" transform="translate(21.382 9.382)">
              <path id="Trazado_1339" data-name="Trazado 1339" d="M988.14,170.156l-.015-.014a1.389,1.389,0,0,0,.321-.494,1.116,1.116,0,0,1,.311-.462,1.062,1.062,0,0,0,.342-.576.934.934,0,0,1,.053-.157.331.331,0,0,1,.16-.148c.029-.017.048-.024.043-.035-.084-.024-.2.016-.3.154a.7.7,0,0,0-.1.185.989.989,0,0,1-.356.5,1.261,1.261,0,0,0-.329.441,1.03,1.03,0,0,1-.323.419,1.374,1.374,0,0,0,.306-.429,1.214,1.214,0,0,1,.333-.446,1.023,1.023,0,0,0,.352-.486.893.893,0,0,1,.094-.193.352.352,0,0,1,.288-.178l.045.031c.01.027-.018.042-.049.058a.269.269,0,0,0-.153.137.568.568,0,0,0-.054.154,1.066,1.066,0,0,1-.348.587,1.234,1.234,0,0,0-.308.455,1.386,1.386,0,0,1-.322.5Z" transform="translate(-987.955 -168.234)" fill="#7a361d"/>
            </g>
            <path id="Trazado_1340" data-name="Trazado 1340" d="M988.1,169.853c.3-.326.257-.641.578-.891-.3.149-.295.5-.636.828Z" transform="translate(-966.551 -158.675)" fill="#7a361d"/>
            <path id="Trazado_1341" data-name="Trazado 1341" d="M988.207,170.578l-3.113-1.155s-.056-.025-.072.014.046.062.046.062l3.014,1.385Z" transform="translate(-967.286 -158.565)" fill="#f1bd51"/>
            <g id="Grupo_498" data-name="Grupo 498" transform="translate(17.724 10.84)">
              <path id="Trazado_1342" data-name="Trazado 1342" d="M988.087,170.879l-3.022-1.367c-.025-.012-.063-.039-.051-.077a.065.065,0,0,1,.087-.019l3.113,1.154-.005.019-3.113-1.154c-.005,0-.051-.02-.063.007s.037.052.037.052l3.017,1.385Z" transform="translate(-985.012 -169.407)" fill="#7a361d"/>
            </g>
            <path id="Trazado_1343" data-name="Trazado 1343" d="M987.976,170.569l-2.137-.8,2.073.952Z" transform="translate(-967.087 -158.478)" fill="#7a361d"/>
            <path id="Trazado_1344" data-name="Trazado 1344" d="M987.206,170.152c-.311-.337-.69-.316-.955-.633a1.431,1.431,0,0,0-.735-.394c-.149-.077-.139-.22-.19-.2s-.036.179.153.316.353.063.677.444.581.293.864.656Z" transform="translate(-967.217 -158.685)" fill="#f1bd51"/>
            <g id="Grupo_499" data-name="Grupo 499" transform="translate(18.072 10.226)">
              <path id="Trazado_1345" data-name="Trazado 1345" d="M987.03,170.334a1.256,1.256,0,0,0-.43-.306,1.279,1.279,0,0,1-.45-.338,1.007,1.007,0,0,0-.482-.349.712.712,0,0,1-.194-.093.374.374,0,0,1-.18-.291l.031-.041c.027-.012.046.015.061.048a.3.3,0,0,0,.139.153.682.682,0,0,0,.148.05,1.071,1.071,0,0,1,.589.349,1.214,1.214,0,0,0,.457.306,1.4,1.4,0,0,1,.5.324l-.017.015a1.463,1.463,0,0,0-.489-.323,1.191,1.191,0,0,1-.467-.308,1.048,1.048,0,0,0-.578-.341,1.43,1.43,0,0,1-.153-.052.323.323,0,0,1-.148-.162c-.015-.034-.022-.048-.037-.042-.021.078.017.194.158.3a.75.75,0,0,0,.185.091,1.011,1.011,0,0,1,.495.356,1.2,1.2,0,0,0,.443.332,1.036,1.036,0,0,1,.42.326Z" transform="translate(-985.292 -168.913)" fill="#7a361d"/>
            </g>
            <path id="Trazado_1346" data-name="Trazado 1346" d="M986.914,170.029c-.327-.293-.643-.259-.893-.574.148.3.5.29.83.633Z" transform="translate(-967.042 -158.555)" fill="#7a361d"/>
            <path id="Trazado_1347" data-name="Trazado 1347" d="M987.484,170.657l3.113,1.154s.054.026.073-.014-.041-.061-.041-.061l-3.021-1.385Z" transform="translate(-966.687 -158.337)" fill="#f1bd51"/>
            <g id="Grupo_500" data-name="Grupo 500" transform="translate(20.792 12.021)">
              <path id="Trazado_1348" data-name="Trazado 1348" d="M990.635,171.828a.149.149,0,0,1-.042-.009l-3.113-1.154.008-.017L990.6,171.8s.044.017.058-.01-.036-.048-.036-.048l-3.018-1.386,3.028,1.367c.021.011.062.039.046.075a.05.05,0,0,1-.046.029Z" transform="translate(-987.48 -170.357)" fill="#7a361d"/>
            </g>
            <path id="Trazado_1349" data-name="Trazado 1349" d="M987.508,170.566l2.137.794-2.073-.947Z" transform="translate(-966.681 -158.322)" fill="#7a361d"/>
            <path id="Trazado_1350" data-name="Trazado 1350" d="M988.234,171.073c.316.337.695.316.955.631a1.423,1.423,0,0,0,.736.394c.153.078.138.221.194.2s.029-.179-.155-.317-.349-.058-.675-.441-.585-.292-.864-.658Z" transform="translate(-966.505 -158.207)" fill="#f1bd51"/>
            <g id="Grupo_501" data-name="Grupo 501" transform="translate(21.724 12.686)">
              <path id="Trazado_1351" data-name="Trazado 1351" d="M990.109,172.314c-.024,0-.036-.026-.051-.055a.306.306,0,0,0-.133-.152,1.156,1.156,0,0,0-.158-.053,1.049,1.049,0,0,1-.583-.344,1.165,1.165,0,0,0-.459-.3,1.452,1.452,0,0,1-.5-.324l.012-.015a1.417,1.417,0,0,0,.494.321,1.214,1.214,0,0,1,.464.308,1.058,1.058,0,0,0,.576.342.98.98,0,0,1,.155.052.327.327,0,0,1,.148.16c.016.039.021.046.036.042.022-.077-.015-.194-.155-.3a.7.7,0,0,0-.189-.088,1.048,1.048,0,0,1-.5-.356,1.179,1.179,0,0,0-.441-.332,1.045,1.045,0,0,1-.413-.326,1.28,1.28,0,0,0,.428.308,1.208,1.208,0,0,1,.446.336,1,1,0,0,0,.486.349.6.6,0,0,1,.189.094.35.35,0,0,1,.179.29l-.026.042-.012,0Z" transform="translate(-988.23 -170.892)" fill="#7a361d"/>
            </g>
            <path id="Trazado_1352" data-name="Trazado 1352" d="M988.332,171.041c.323.3.639.256.889.578-.151-.3-.5-.293-.825-.634Z" transform="translate(-966.481 -158.183)" fill="#7a361d"/>
            <path id="Trazado_1353" data-name="Trazado 1353" d="M988.083,170.351l-3.014,1.385s-.058.021-.046.061.072.014.072.014l3.113-1.154Z" transform="translate(-967.286 -158.337)" fill="#f1bd51"/>
            <g id="Grupo_502" data-name="Grupo 502" transform="translate(17.724 12.004)">
              <path id="Trazado_1354" data-name="Trazado 1354" d="M985.065,171.831a.053.053,0,0,1-.051-.029c-.012-.036.026-.065.051-.075l3.014-1.385.008.017-3.017,1.386s-.046.021-.037.048.058.01.063.01l3.113-1.154-3.108,1.171a.109.109,0,0,1-.036.009Z" transform="translate(-985.012 -170.343)" fill="#7a361d"/>
            </g>
            <path id="Trazado_1355" data-name="Trazado 1355" d="M987.913,170.413l-2.073.947,2.137-.794Z" transform="translate(-967.087 -158.322)" fill="#7a361d"/>
            <path id="Trazado_1356" data-name="Trazado 1356" d="M987.074,170.571c-.46-.016-.712.265-1.125.229a1.436,1.436,0,0,0-.8.24c-.163.053-.257-.058-.28-.009s.1.148.328.114.3-.205.793-.167.619-.205,1.079-.143Z" transform="translate(-967.322 -158.284)" fill="#f1bd51"/>
            <g id="Grupo_503" data-name="Grupo 503" transform="translate(17.539 12.278)">
              <path id="Trazado_1357" data-name="Trazado 1357" d="M985.118,171.165a.3.3,0,0,1-.242-.087l-.012-.051c.017-.027.044-.016.081,0a.3.3,0,0,0,.2.01.8.8,0,0,0,.15-.071,1.085,1.085,0,0,1,.655-.172,1.139,1.139,0,0,0,.542-.107,1.407,1.407,0,0,1,.583-.119v.02a1.474,1.474,0,0,0-.578.118,1.227,1.227,0,0,1-.547.109,1.047,1.047,0,0,0-.648.169,1.287,1.287,0,0,1-.148.071.318.318,0,0,1-.216-.01c-.041-.015-.051-.015-.053-.007.041.076.143.129.318.1a.675.675,0,0,0,.194-.065,1.008,1.008,0,0,1,.6-.1,1.25,1.25,0,0,0,.552-.078,1.067,1.067,0,0,1,.527-.067,1.264,1.264,0,0,0-.522.087,1.262,1.262,0,0,1-.557.078,1,1,0,0,0-.589.1.755.755,0,0,1-.2.071c-.032,0-.063,0-.091,0Z" transform="translate(-984.863 -170.563)" fill="#7a361d"/>
            </g>
            <path id="Trazado_1358" data-name="Trazado 1358" d="M986.784,170.642c-.441.022-.634.272-1.042.223.321.108.563-.15,1.037-.135Z" transform="translate(-967.11 -158.266)" fill="#7a361d"/>
            <path id="Trazado_1359" data-name="Trazado 1359" d="M987.608,170.884l3.021-1.385s.057-.022.041-.062-.073-.014-.073-.014l-3.113,1.155Z" transform="translate(-966.687 -158.565)" fill="#f1bd51"/>
            <g id="Grupo_504" data-name="Grupo 504" transform="translate(20.799 10.84)">
              <path id="Trazado_1360" data-name="Trazado 1360" d="M987.613,170.9l-.008-.017,3.018-1.385s.051-.021.036-.052-.058-.007-.058-.007l-3.115,1.154,3.105-1.172c.025-.011.073-.017.088.019s-.025.065-.046.077l-3.021,1.385Z" transform="translate(-987.486 -169.407)" fill="#7a361d"/>
            </g>
            <path id="Trazado_1361" data-name="Trazado 1361" d="M987.571,170.722l2.073-.952-2.137.8Z" transform="translate(-966.681 -158.478)" fill="#7a361d"/>
            <path id="Trazado_1362" data-name="Trazado 1362" d="M988.43,170.49c.454.019.711-.266,1.121-.227a1.425,1.425,0,0,0,.8-.241c.163-.05.257.057.281.01s-.1-.149-.334-.117-.292.206-.792.167-.619.2-1.073.143Z" transform="translate(-966.457 -158.445)" fill="#f1bd51"/>
            <g id="Grupo_505" data-name="Grupo 505" transform="translate(21.973 11.452)">
              <path id="Trazado_1363" data-name="Trazado 1363" d="M988.469,170.5h-.039v-.021a1.418,1.418,0,0,0,.573-.121,1.215,1.215,0,0,1,.548-.107,1.065,1.065,0,0,0,.649-.169.838.838,0,0,1,.148-.072.315.315,0,0,1,.218.011c.035.014.05.016.05,0-.037-.072-.144-.127-.316-.1a.593.593,0,0,0-.2.068,1.037,1.037,0,0,1-.6.1,1.193,1.193,0,0,0-.546.08,1.107,1.107,0,0,1-.527.066,1.254,1.254,0,0,0,.517-.087,1.307,1.307,0,0,1,.556-.08,1,1,0,0,0,.59-.094.6.6,0,0,1,.2-.071.354.354,0,0,1,.334.082l.008.051c-.013.026-.044.016-.08,0a.289.289,0,0,0-.2-.011.886.886,0,0,0-.144.071,1.067,1.067,0,0,1-.663.17,1.138,1.138,0,0,0-.536.108,1.491,1.491,0,0,1-.542.121Z" transform="translate(-988.43 -169.899)" fill="#7a361d"/>
            </g>
            <path id="Trazado_1364" data-name="Trazado 1364" d="M988.492,170.353c.44-.02.634-.27,1.034-.223-.316-.108-.563.154-1.032.139Z" transform="translate(-966.442 -158.397)" fill="#7a361d"/>
            <path id="Trazado_1365" data-name="Trazado 1365" d="M987.943,171.02,986.561,168s-.025-.057-.063-.04-.015.072-.015.072l1.154,3.113Z" transform="translate(-966.932 -158.918)" fill="#f1bd51"/>
            <g id="Grupo_506" data-name="Grupo 506" transform="translate(19.537 9.035)">
              <path id="Trazado_1366" data-name="Trazado 1366" d="M987.648,171.145l-1.17-3.105a.1.1,0,0,1-.005-.06l.053-.025a.082.082,0,0,1,.044.046l1.384,3.017-.017.009-1.41-3.062-.025.009-.007.058,1.154,3.113Z" transform="translate(-986.47 -167.955)" fill="#7a361d"/>
            </g>
            <path id="Trazado_1367" data-name="Trazado 1367" d="M987.781,170.853l-.947-2.072.8,2.135Z" transform="translate(-966.845 -158.719)" fill="#7a361d"/>
            <path id="Trazado_1368" data-name="Trazado 1368" d="M987.554,170.012c.016-.46-.265-.712-.231-1.121a1.455,1.455,0,0,0-.242-.8c-.049-.16.057-.252.014-.277s-.153.1-.116.329.206.295.164.8.2.617.147,1.074Z" transform="translate(-966.812 -158.955)" fill="#f1bd51"/>
            <g id="Grupo_507" data-name="Grupo 507" transform="translate(20.149 8.848)">
              <path id="Trazado_1369" data-name="Trazado 1369" d="M987.565,170.013h-.021a1.5,1.5,0,0,0-.119-.574,1.2,1.2,0,0,1-.112-.548,1.043,1.043,0,0,0-.168-.648,1.388,1.388,0,0,1-.072-.147.339.339,0,0,1,.015-.22c.009-.035.014-.048,0-.053-.077.04-.125.148-.1.317a.944.944,0,0,0,.068.2,1.012,1.012,0,0,1,.1.6,1.3,1.3,0,0,0,.078.547,1.054,1.054,0,0,1,.065.527,1.323,1.323,0,0,0-.084-.521,1.27,1.27,0,0,1-.08-.554.992.992,0,0,0-.1-.59.659.659,0,0,1-.067-.2.358.358,0,0,1,.075-.331l.056-.011c.027.014.018.044.005.08a.3.3,0,0,0-.015.2,1.322,1.322,0,0,0,.073.145,1.1,1.1,0,0,1,.17.66,1.139,1.139,0,0,0,.109.539,1.473,1.473,0,0,1,.121.581Z" transform="translate(-986.963 -167.804)" fill="#7a361d"/>
            </g>
            <path id="Trazado_1370" data-name="Trazado 1370" d="M987.416,169.722c-.021-.443-.27-.636-.226-1.038-.106.317.154.564.142,1.034Z" transform="translate(-966.765 -158.742)" fill="#7a361d"/>
            <path id="Trazado_1371" data-name="Trazado 1371" d="M987.41,170.55l1.388,3.018s.022.057.058.04.02-.071.02-.071l-1.161-3.115Z" transform="translate(-966.705 -158.32)" fill="#f1bd51"/>
            <g id="Grupo_508" data-name="Grupo 508" transform="translate(20.695 12.107)">
              <path id="Trazado_1372" data-name="Trazado 1372" d="M988.864,173.618a.114.114,0,0,1-.077-.046l-1.385-3.019.02-.009,1.388,3.017s.022.051.049.039.005-.06.005-.061l-1.154-3.113,1.176,3.105c.01.024.019.07-.022.087Z" transform="translate(-987.402 -170.426)" fill="#7a361d"/>
            </g>
            <path id="Trazado_1373" data-name="Trazado 1373" d="M987.477,170.511l.947,2.073-.8-2.137Z" transform="translate(-966.689 -158.314)" fill="#7a361d"/>
            <path id="Trazado_1374" data-name="Trazado 1374" d="M987.633,171.366c-.02.459.265.714.227,1.124a1.526,1.526,0,0,0,.239.8c.056.159-.058.252-.007.276s.148-.106.117-.332-.206-.292-.168-.794-.2-.617-.143-1.072Z" transform="translate(-966.651 -158.09)" fill="#f1bd51"/>
            <g id="Grupo_509" data-name="Grupo 509" transform="translate(20.966 13.276)">
              <path id="Trazado_1375" data-name="Trazado 1375" d="M988.09,173.579c-.031-.015-.017-.048,0-.08a.3.3,0,0,0,.01-.206.946.946,0,0,0-.073-.148,1.127,1.127,0,0,1-.172-.658,1.2,1.2,0,0,0-.1-.538,1.428,1.428,0,0,1-.127-.583h.022a1.426,1.426,0,0,0,.121.574,1.161,1.161,0,0,1,.109.548,1.089,1.089,0,0,0,.165.648.655.655,0,0,1,.073.149.312.312,0,0,1-.01.219c-.012.034-.012.046,0,.053.071-.04.126-.148.1-.322a.577.577,0,0,0-.068-.2,1.068,1.068,0,0,1-.094-.6,1.239,1.239,0,0,0-.082-.547,1.093,1.093,0,0,1-.066-.527,1.312,1.312,0,0,0,.087.521,1.257,1.257,0,0,1,.078.554,1.031,1.031,0,0,0,.094.592.764.764,0,0,1,.073.2.382.382,0,0,1-.081.332l-.051.011Z" transform="translate(-987.62 -171.366)" fill="#7a361d"/>
            </g>
            <path id="Trazado_1376" data-name="Trazado 1376" d="M987.7,171.43c.025.44.272.635.224,1.038.107-.319-.151-.566-.137-1.032Z" transform="translate(-966.634 -158.075)" fill="#7a361d"/>
            <path id="Trazado_1377" data-name="Trazado 1377" d="M987.8,169.387a1.351,1.351,0,1,1-1.355,1.349,1.347,1.347,0,0,1,1.355-1.349Z" transform="translate(-966.94 -158.572)" fill="#f1bd51"/>
            <g id="Grupo_510" data-name="Grupo 510" transform="translate(19.499 10.804)">
              <path id="Trazado_1378" data-name="Trazado 1378" d="M987.8,172.1a1.362,1.362,0,1,1,1.365-1.364A1.362,1.362,0,0,1,987.8,172.1Zm0-2.7a1.342,1.342,0,1,0,1.34,1.339,1.345,1.345,0,0,0-1.34-1.339Z" transform="translate(-986.44 -169.378)" fill="#7a361d"/>
            </g>
            <path id="Trazado_1379" data-name="Trazado 1379" d="M988.382,170.286a.544.544,0,0,0-.712-.08.435.435,0,0,0,.037.549.1.1,0,0,0-.046.017.716.716,0,0,1-.054-.59.5.5,0,0,1,.775.1Z" transform="translate(-966.667 -158.411)" fill="#7a361d"/>
            <path id="Trazado_1380" data-name="Trazado 1380" d="M987.989,170.189a.279.279,0,0,0-.231.083c-.063.053-.094.041-.107.053s0,.041.022.03a.586.586,0,0,0,.127-.083.261.261,0,0,1,.189-.051c.184,0,.288.155.311.145s-.107-.178-.311-.178Z" transform="translate(-966.647 -158.377)" fill="#7a361d"/>
            <path id="Trazado_1381" data-name="Trazado 1381" d="M988.2,170.354a.309.309,0,0,0-.485.01h.041c.1-.167.357-.1.374-.021v.021Z" transform="translate(-966.63 -158.364)" fill="#7a361d"/>
            <path id="Trazado_1382" data-name="Trazado 1382" d="M987.922,170.247a.1.1,0,0,1,.094.094.1.1,0,0,1-.094.093.1.1,0,0,1-.094-.093.1.1,0,0,1,.094-.094Z" transform="translate(-966.603 -158.362)" fill="#7a361d"/>
            <path id="Trazado_1383" data-name="Trazado 1383" d="M987.719,170.344a.418.418,0,0,0,.485-.01l-.07-.011a.277.277,0,0,1-.374.021v-.021Z" transform="translate(-966.63 -158.344)" fill="#7a361d"/>
            <path id="Trazado_1384" data-name="Trazado 1384" d="M988.229,170.377a.413.413,0,0,1-.459.063c-.1-.063-.1-.083-.083-.083s.042.02.127.061a.518.518,0,0,0,.415-.041Z" transform="translate(-966.64 -158.336)" fill="#7a361d"/>
            <path id="Trazado_1385" data-name="Trazado 1385" d="M987.757,170.626a.061.061,0,0,1-.039.116.062.062,0,0,1-.046-.055.158.158,0,0,1-.134.082h-.019l.019.032a.212.212,0,0,0,.124-.032.094.094,0,1,0,.153-.108.078.078,0,0,0-.058-.035Z" transform="translate(-966.678 -158.27)" fill="#7a361d"/>
            <path id="Trazado_1386" data-name="Trazado 1386" d="M987.879,171.005c-.091-.062-.134-.155-.239-.155a.234.234,0,0,0-.1.032h-.019l.019.029c.039,0,.1-.051.18-.009s.112.082.16.1Z" transform="translate(-966.678 -158.216)" fill="#7a361d"/>
            <path id="Trazado_1387" data-name="Trazado 1387" d="M987.852,170.982a.56.56,0,0,0-.313-.021h-.019l.019.044c.081,0,.124-.063.313-.022Z" transform="translate(-966.678 -158.192)" fill="#7a361d"/>
            <path id="Trazado_1388" data-name="Trazado 1388" d="M987.879,170.975c-.224-.021-.154.114-.341.114h-.019l.019.032c.229,0,.124-.124.341-.147Z" transform="translate(-966.678 -158.186)" fill="#7a361d"/>
            <path id="Trazado_1389" data-name="Trazado 1389" d="M987.758,171.278a.187.187,0,0,0-.186-.185.189.189,0,0,0-.189.185.189.189,0,0,1,.232-.139.183.183,0,0,1,.143.139Z" transform="translate(-966.712 -158.157)" fill="#7a361d"/>
            <path id="Trazado_1390" data-name="Trazado 1390" d="M986.848,170.286a.539.539,0,0,1,.709-.08.439.439,0,0,1-.031.549.127.127,0,0,1,.041.017.712.712,0,0,0,.053-.59.5.5,0,0,0-.772.1Z" transform="translate(-966.842 -158.411)" fill="#7a361d"/>
            <path id="Trazado_1391" data-name="Trazado 1391" d="M987.212,170.189a.282.282,0,0,1,.229.083c.061.053.089.041.1.053s0,.041-.022.03a.658.658,0,0,1-.126-.083.259.259,0,0,0-.185-.051c-.186,0-.288.155-.313.145s.1-.178.313-.178Z" transform="translate(-966.83 -158.377)" fill="#7a361d"/>
            <path id="Trazado_1392" data-name="Trazado 1392" d="M986.957,170.354a.316.316,0,0,1,.491.01H987.4c-.1-.167-.352-.1-.368-.021v.021Z" transform="translate(-966.815 -158.364)" fill="#7a361d"/>
            <path id="Trazado_1393" data-name="Trazado 1393" d="M987.187,170.247a.094.094,0,0,0-.095.094.093.093,0,0,0,.095.093.092.092,0,0,0,.089-.093.093.093,0,0,0-.089-.094Z" transform="translate(-966.782 -158.362)" fill="#7a361d"/>
            <path id="Trazado_1394" data-name="Trazado 1394" d="M987.448,170.344a.428.428,0,0,1-.491-.01l.078-.011a.269.269,0,0,0,.368.021v-.021Z" transform="translate(-966.815 -158.344)" fill="#7a361d"/>
            <path id="Trazado_1395" data-name="Trazado 1395" d="M986.947,170.377a.414.414,0,0,0,.459.063c.1-.063.1-.083.083-.083s-.039.02-.124.061a.524.524,0,0,1-.418-.041Z" transform="translate(-966.818 -158.336)" fill="#7a361d"/>
            <path id="Trazado_1396" data-name="Trazado 1396" d="M987.374,170.626a.056.056,0,0,0-.034.078.055.055,0,0,0,.076.037.062.062,0,0,0,.041-.055.159.159,0,0,0,.135.082h.022l-.022.032a.221.221,0,0,1-.126-.032.093.093,0,0,1-.127.026.1.1,0,0,1-.029-.134.105.105,0,0,1,.062-.035Z" transform="translate(-966.733 -158.27)" fill="#7a361d"/>
            <path id="Trazado_1397" data-name="Trazado 1397" d="M987.258,171.005c.094-.062.135-.155.24-.155a.246.246,0,0,1,.1.032h.022l-.022.029c-.041,0-.1-.051-.176-.009s-.117.082-.168.1Z" transform="translate(-966.742 -158.216)" fill="#7a361d"/>
            <path id="Trazado_1398" data-name="Trazado 1398" d="M987.283,170.982a.562.562,0,0,1,.313-.021h.022L987.6,171c-.082,0-.125-.063-.313-.022Z" transform="translate(-966.736 -158.192)" fill="#7a361d"/>
            <path id="Trazado_1399" data-name="Trazado 1399" d="M987.258,170.975c.23-.021.155.114.344.114h.022l-.022.032c-.227,0-.125-.124-.344-.147Z" transform="translate(-966.742 -158.186)" fill="#7a361d"/>
            <path id="Trazado_1400" data-name="Trazado 1400" d="M987.383,171.278a.189.189,0,0,1,.189-.185.187.187,0,0,1,.186.185.187.187,0,0,0-.232-.139.191.191,0,0,0-.143.139Z" transform="translate(-966.712 -158.157)" fill="#7a361d"/>
          </g>
        </g>
      </g>
    </g>
  </g>
</svg>
