<svg id="BRAZIL" xmlns="http://www.w3.org/2000/svg" xmlns:xlink="http://www.w3.org/1999/xlink" width="42.516" height="24.8" viewBox="0 0 42.516 24.8">
  <defs>
    <clipPath id="clip-path">
      <rect id="Rect치ngulo_313" data-name="Rect치ngulo 313" width="42.516" height="24.8" fill="none"/>
    </clipPath>
  </defs>
  <g id="Grupo_520" data-name="Grupo 520">
    <g id="Grupo_519" data-name="Grupo 519">
      <g id="Grupo_518" data-name="Grupo 518" clip-path="url(#clip-path)">
        <rect id="Rect치ngulo_311" data-name="Rect치ngulo 311" width="42.516" height="24.8" fill="#3c9242"/>
        <path id="Trazado_1401" data-name="Trazado 1401" d="M975.681,147.452l14.7,9.389,14.709-9.389-14.709-9.388Z" transform="translate(-969.125 -135.052)" fill="#edc226"/>
        <g id="Grupo_517" data-name="Grupo 517">
          <g id="Grupo_516" data-name="Grupo 516" clip-path="url(#clip-path)">
            <path id="Trazado_1402" data-name="Trazado 1402" d="M994.79,146.781a6.2,6.2,0,1,1-6.2-6.2,6.2,6.2,0,0,1,6.2,6.2" transform="translate(-967.334 -134.381)" fill="#2d146e"/>
            <path id="Trazado_1403" data-name="Trazado 1403" d="M985.01,143.376a15.5,15.5,0,0,0-2.132.151,6.356,6.356,0,0,0-.329.948,14.565,14.565,0,0,1,2.461-.212,14.114,14.114,0,0,1,9.459,3.623,5.706,5.706,0,0,0,.22-.98,14.987,14.987,0,0,0-9.679-3.529" transform="translate(-967.293 -133.635)" fill="#fff"/>
            <path id="Trazado_1404" data-name="Trazado 1404" d="M983.176,144.166a.3.3,0,0,0-.071-.584.272.272,0,0,0-.225.324.276.276,0,0,0,.3.26m-.011-.108a.179.179,0,0,0,.13-.2.169.169,0,0,0-.179-.165.171.171,0,0,0-.133.2.177.177,0,0,0,.181.166" transform="translate(-967.206 -133.581)" fill="#3c9242" fill-rule="evenodd"/>
            <path id="Trazado_1405" data-name="Trazado 1405" d="M983.5,144.133l.106-.01-.015-.218.241-.016a.192.192,0,0,0,.171-.2.189.189,0,0,0-.2-.171l-.341.023Zm.084-.337.228-.014a.081.081,0,0,0,.07-.084.073.073,0,0,0-.077-.07l-.229.013Z" transform="translate(-967.049 -133.597)" fill="#3c9242" fill-rule="evenodd"/>
            <path id="Trazado_1406" data-name="Trazado 1406" d="M983.951,144.03c-.005-.085-.015-.269-.144-.262l-.16.01c.182-.01.2.176.207.258" transform="translate(-967 -133.531)" fill="#3c9242"/>
            <path id="Trazado_1407" data-name="Trazado 1407" d="M984.088,144.092l.275-.006a.254.254,0,0,0,.252-.258l-.005-.085a.256.256,0,0,0-.257-.248l-.275.006Zm.1-.113.161,0a.156.156,0,0,0,.156-.162v-.053a.159.159,0,0,0-.158-.155l-.163,0Z" transform="translate(-966.885 -133.604)" fill="#3c9242" fill-rule="evenodd"/>
            <path id="Trazado_1408" data-name="Trazado 1408" d="M984.672,144.085l.534.018.005-.111-.428-.015,0-.15.339.009v-.1l-.334-.012v-.116l.408.014v-.111l-.5-.017Z" transform="translate(-966.727 -133.604)" fill="#3c9242"/>
            <path id="Trazado_1409" data-name="Trazado 1409" d="M985.268,144.108l.1.009.035-.4.079.413.1.009.151-.393-.035.4.1.01.052-.59-.143-.012-.156.393-.082-.414-.148-.012Z" transform="translate(-966.568 -133.597)" fill="#3c9242"/>
            <path id="Trazado_1410" data-name="Trazado 1410" d="M986.23,144.2l.443.074.012-.1-.334-.057.022-.132.277.047.012-.1-.27-.046.012-.093.327.057.012-.1-.421-.074Z" transform="translate(-966.311 -133.554)" fill="#3c9242"/>
            <path id="Trazado_1411" data-name="Trazado 1411" d="M987.117,144.387l.1.028.06-.212.226.057a.186.186,0,0,0,.229-.132.193.193,0,0,0-.133-.228l-.327-.085Zm.194-.293.217.058a.071.071,0,0,0,.09-.054.076.076,0,0,0-.052-.092l-.221-.057Z" transform="translate(-966.075 -133.518)" fill="#3c9242" fill-rule="evenodd"/>
            <path id="Trazado_1412" data-name="Trazado 1412" d="M987.69,144.537l.105.032.067-.208.22.071a.187.187,0,0,0,.234-.12.182.182,0,0,0-.118-.232l-.327-.1Zm.205-.281.217.07a.078.078,0,0,0,.095-.051.072.072,0,0,0-.049-.094l-.215-.07Z" transform="translate(-965.922 -133.475)" fill="#3c9242" fill-rule="evenodd"/>
            <path id="Trazado_1413" data-name="Trazado 1413" d="M988.105,144.61c.028-.08.082-.256-.037-.294l-.151-.049c.174.056.119.232.091.314" transform="translate(-965.861 -133.398)" fill="#3c9242"/>
            <path id="Trazado_1414" data-name="Trazado 1414" d="M988.484,144.8a.283.283,0,0,0,.352-.184.268.268,0,1,0-.5-.189.284.284,0,0,0,.146.372m.038-.1a.189.189,0,0,0,.133-.348.18.18,0,0,0-.215.12.176.176,0,0,0,.082.228" transform="translate(-965.755 -133.408)" fill="#3c9242" fill-rule="evenodd"/>
            <path id="Trazado_1415" data-name="Trazado 1415" d="M989.03,145.016a.287.287,0,0,0,.364-.165.284.284,0,0,0-.128-.378.278.278,0,0,0-.36.165.285.285,0,0,0,.124.377m.044-.1a.166.166,0,0,0,.215-.108.174.174,0,0,0-.067-.233.171.171,0,0,0-.215.109.169.169,0,0,0,.067.232" transform="translate(-965.605 -133.348)" fill="#3c9242" fill-rule="evenodd"/>
            <path id="Trazado_1416" data-name="Trazado 1416" d="M989.128,144.7l.208.09-.04.077-.2-.091Z" transform="translate(-965.547 -133.283)" fill="#3c9242"/>
            <path id="Trazado_1417" data-name="Trazado 1417" d="M989.247,144.739l.079.036-.121.27-.072-.035Z" transform="translate(-965.537 -133.272)" fill="#3c9242"/>
            <path id="Trazado_1418" data-name="Trazado 1418" d="M989.35,145.164l.1.048.1-.2.21.109a.185.185,0,0,0,.247-.084.183.183,0,0,0-.081-.248l-.3-.151Zm.242-.246.2.1a.075.075,0,0,0,.1-.034.076.076,0,0,0-.032-.1l-.208-.1Z" transform="translate(-965.479 -133.298)" fill="#3c9242" fill-rule="evenodd"/>
            <path id="Trazado_1419" data-name="Trazado 1419" d="M989.73,145.308c.037-.075.119-.241.008-.3l-.146-.075c.171.086.086.252.052.326" transform="translate(-965.414 -133.219)" fill="#3c9242"/>
            <path id="Trazado_1420" data-name="Trazado 1420" d="M989.875,145.431l.465.261.05-.1-.371-.212.072-.132.294.167.05-.092-.292-.163.059-.105.349.2.059-.1-.445-.25Z" transform="translate(-965.339 -133.225)" fill="#3c9242"/>
            <path id="Trazado_1421" data-name="Trazado 1421" d="M990.587,145.621c-.033.048,0,.105.068.151s.119.042.142.013c.063-.1-.308-.252-.194-.427.1-.152.267-.034.332.006a.193.193,0,0,1,.086.269l-.108-.071c.037-.051,0-.1-.062-.136s-.1-.056-.132,0c-.057.08.312.233.2.412-.076.129-.222.071-.317.011s-.205-.176-.128-.3Z" transform="translate(-965.187 -133.127)" fill="#3c9242"/>
            <path id="Trazado_1422" data-name="Trazado 1422" d="M991.087,145.95c-.038.047-.01.105.06.155s.12.052.143.02c.067-.1-.3-.266-.171-.436.107-.147.272-.02.332.022a.191.191,0,0,1,.068.274l-.1-.075c.033-.051,0-.1-.057-.144s-.091-.056-.128-.005c-.06.079.294.255.175.424-.091.125-.234.061-.32-.006s-.2-.185-.112-.305Z" transform="translate(-965.054 -133.037)" fill="#3c9242"/>
            <path id="Trazado_1423" data-name="Trazado 1423" d="M991.546,146.525a.3.3,0,0,0,.369-.461.277.277,0,0,0-.39.066.282.282,0,0,0,.021.4m.07-.087a.171.171,0,0,0,.241-.048.174.174,0,0,0-.01-.241.167.167,0,0,0-.236.047.165.165,0,0,0,.005.242" transform="translate(-964.918 -132.932)" fill="#3c9242" fill-rule="evenodd"/>
            <path id="Trazado_1424" data-name="Trazado 1424" d="M983.308,144.386l-.082.252.129.042Z" transform="translate(-967.113 -133.366)" fill="#fff"/>
            <path id="Trazado_1425" data-name="Trazado 1425" d="M983.3,144.386l.084.252-.126.042Z" transform="translate(-967.104 -133.366)" fill="#fff"/>
            <path id="Trazado_1426" data-name="Trazado 1426" d="M983.546,144.531h-.265v.13Z" transform="translate(-967.098 -133.327)" fill="#fff"/>
            <path id="Trazado_1427" data-name="Trazado 1427" d="M983.552,144.531l-.21.155-.084-.106Z" transform="translate(-967.104 -133.327)" fill="#fff"/>
            <path id="Trazado_1428" data-name="Trazado 1428" d="M983.092,144.531l.215.155.079-.106Z" transform="translate(-967.148 -133.327)" fill="#fff"/>
            <path id="Trazado_1429" data-name="Trazado 1429" d="M983.092,144.531h.267v.13Z" transform="translate(-967.148 -133.327)" fill="#fff"/>
            <path id="Trazado_1430" data-name="Trazado 1430" d="M983.457,144.818l-.082-.252-.124.042Z" transform="translate(-967.106 -133.318)" fill="#fff"/>
            <path id="Trazado_1431" data-name="Trazado 1431" d="M983.459,144.82l-.215-.157.079-.108Z" transform="translate(-967.108 -133.321)" fill="#fff"/>
            <path id="Trazado_1432" data-name="Trazado 1432" d="M983.168,144.82l.215-.157-.077-.108Z" transform="translate(-967.128 -133.321)" fill="#fff"/>
            <path id="Trazado_1433" data-name="Trazado 1433" d="M983.168,144.818l.084-.252.129.042Z" transform="translate(-967.128 -133.318)" fill="#fff"/>
            <path id="Trazado_1434" data-name="Trazado 1434" d="M983.744,146.443l-.084.251.129.041Z" transform="translate(-966.997 -132.817)" fill="#fff"/>
            <path id="Trazado_1435" data-name="Trazado 1435" d="M983.736,146.443l.079.251-.124.041Z" transform="translate(-966.989 -132.817)" fill="#fff"/>
            <path id="Trazado_1436" data-name="Trazado 1436" d="M983.977,146.588h-.262v.134Z" transform="translate(-966.982 -132.778)" fill="#fff"/>
            <path id="Trazado_1437" data-name="Trazado 1437" d="M983.983,146.588l-.21.157-.079-.11Z" transform="translate(-966.988 -132.778)" fill="#fff"/>
            <path id="Trazado_1438" data-name="Trazado 1438" d="M983.527,146.588l.211.157.084-.11Z" transform="translate(-967.032 -132.778)" fill="#fff"/>
            <path id="Trazado_1439" data-name="Trazado 1439" d="M983.527,146.588h.267v.134Z" transform="translate(-967.032 -132.778)" fill="#fff"/>
            <path id="Trazado_1440" data-name="Trazado 1440" d="M983.894,146.876l-.081-.252-.129.041Z" transform="translate(-966.991 -132.769)" fill="#fff"/>
            <path id="Trazado_1441" data-name="Trazado 1441" d="M983.895,146.879l-.215-.158.077-.105Z" transform="translate(-966.992 -132.771)" fill="#fff"/>
            <path id="Trazado_1442" data-name="Trazado 1442" d="M983.6,146.879l.22-.158-.082-.105Z" transform="translate(-967.013 -132.771)" fill="#fff"/>
            <path id="Trazado_1443" data-name="Trazado 1443" d="M983.6,146.876l.082-.252.129.041Z" transform="translate(-967.013 -132.769)" fill="#fff"/>
            <path id="Trazado_1444" data-name="Trazado 1444" d="M983.135,146.951l-.05.171.082.027Z" transform="translate(-967.15 -132.682)" fill="#fff"/>
            <path id="Trazado_1445" data-name="Trazado 1445" d="M983.131,146.951l.055.171-.082.027Z" transform="translate(-967.145 -132.682)" fill="#fff"/>
            <path id="Trazado_1446" data-name="Trazado 1446" d="M983.3,147.049h-.178v.089Z" transform="translate(-967.142 -132.655)" fill="#fff"/>
            <path id="Trazado_1447" data-name="Trazado 1447" d="M983.3,147.049l-.141.105-.052-.072Z" transform="translate(-967.145 -132.655)" fill="#fff"/>
            <path id="Trazado_1448" data-name="Trazado 1448" d="M982.994,147.049l.141.105.052-.072Z" transform="translate(-967.175 -132.655)" fill="#fff"/>
            <path id="Trazado_1449" data-name="Trazado 1449" d="M982.994,147.049h.176v.089Z" transform="translate(-967.175 -132.655)" fill="#fff"/>
            <path id="Trazado_1450" data-name="Trazado 1450" d="M983.236,147.241l-.054-.168-.082.028Z" transform="translate(-967.146 -132.649)" fill="#fff"/>
            <path id="Trazado_1451" data-name="Trazado 1451" d="M983.237,147.242l-.141-.1.052-.073Z" transform="translate(-967.147 -132.651)" fill="#fff"/>
            <path id="Trazado_1452" data-name="Trazado 1452" d="M983.045,147.242l.141-.1-.05-.073Z" transform="translate(-967.161 -132.651)" fill="#fff"/>
            <path id="Trazado_1453" data-name="Trazado 1453" d="M983.045,147.241l.052-.168.082.028Z" transform="translate(-967.161 -132.649)" fill="#fff"/>
            <path id="Trazado_1454" data-name="Trazado 1454" d="M984.214,146.253l-.042.119.059.022Z" transform="translate(-966.86 -132.868)" fill="#fff"/>
            <path id="Trazado_1455" data-name="Trazado 1455" d="M984.21,146.253l.037.119-.059.022Z" transform="translate(-966.856 -132.868)" fill="#fff"/>
            <path id="Trazado_1456" data-name="Trazado 1456" d="M984.325,146.323H984.2v.062Z" transform="translate(-966.853 -132.849)" fill="#fff"/>
            <path id="Trazado_1457" data-name="Trazado 1457" d="M984.327,146.323l-.1.074-.035-.052Z" transform="translate(-966.855 -132.849)" fill="#fff"/>
            <path id="Trazado_1458" data-name="Trazado 1458" d="M984.107,146.323l.106.074.035-.052Z" transform="translate(-966.878 -132.849)" fill="#fff"/>
            <path id="Trazado_1459" data-name="Trazado 1459" d="M984.107,146.323h.129v.062Z" transform="translate(-966.878 -132.849)" fill="#fff"/>
            <path id="Trazado_1460" data-name="Trazado 1460" d="M984.284,146.46l-.042-.122-.054.021Z" transform="translate(-966.856 -132.845)" fill="#fff"/>
            <path id="Trazado_1461" data-name="Trazado 1461" d="M984.285,146.461l-.1-.076.037-.052Z" transform="translate(-966.857 -132.846)" fill="#fff"/>
            <path id="Trazado_1462" data-name="Trazado 1462" d="M984.146,146.461l.1-.076-.037-.052Z" transform="translate(-966.867 -132.846)" fill="#fff"/>
            <path id="Trazado_1463" data-name="Trazado 1463" d="M984.146,146.46l.037-.122.059.021Z" transform="translate(-966.867 -132.845)" fill="#fff"/>
            <path id="Trazado_1464" data-name="Trazado 1464" d="M984.761,146.964l-.069.212.1.036Z" transform="translate(-966.722 -132.678)" fill="#fff"/>
            <path id="Trazado_1465" data-name="Trazado 1465" d="M984.754,146.964l.064.212-.1.036Z" transform="translate(-966.715 -132.678)" fill="#fff"/>
            <path id="Trazado_1466" data-name="Trazado 1466" d="M984.955,147.086h-.22v.109Z" transform="translate(-966.71 -132.646)" fill="#fff"/>
            <path id="Trazado_1467" data-name="Trazado 1467" d="M984.959,147.086l-.178.13-.064-.092Z" transform="translate(-966.715 -132.646)" fill="#fff"/>
            <path id="Trazado_1468" data-name="Trazado 1468" d="M984.578,147.086l.178.13.064-.092Z" transform="translate(-966.752 -132.646)" fill="#fff"/>
            <path id="Trazado_1469" data-name="Trazado 1469" d="M984.578,147.086h.22v.109Z" transform="translate(-966.752 -132.646)" fill="#fff"/>
            <path id="Trazado_1470" data-name="Trazado 1470" d="M984.885,147.322l-.069-.208-.106.035Z" transform="translate(-966.717 -132.638)" fill="#fff"/>
            <path id="Trazado_1471" data-name="Trazado 1471" d="M984.886,147.324l-.181-.129.064-.088Z" transform="translate(-966.718 -132.64)" fill="#fff"/>
            <path id="Trazado_1472" data-name="Trazado 1472" d="M984.644,147.324l.173-.129-.064-.088Z" transform="translate(-966.734 -132.64)" fill="#fff"/>
            <path id="Trazado_1473" data-name="Trazado 1473" d="M984.644,147.322l.064-.208.1.035Z" transform="translate(-966.734 -132.638)" fill="#fff"/>
            <path id="Trazado_1474" data-name="Trazado 1474" d="M984.612,147.45l-.069.212.1.035Z" transform="translate(-966.761 -132.548)" fill="#fff"/>
            <path id="Trazado_1475" data-name="Trazado 1475" d="M984.605,147.45l.067.212-.1.035Z" transform="translate(-966.755 -132.548)" fill="#fff"/>
            <path id="Trazado_1476" data-name="Trazado 1476" d="M984.81,147.572h-.22v.108Z" transform="translate(-966.749 -132.516)" fill="#fff"/>
            <path id="Trazado_1477" data-name="Trazado 1477" d="M984.815,147.572l-.181.13-.064-.09Z" transform="translate(-966.754 -132.516)" fill="#fff"/>
            <path id="Trazado_1478" data-name="Trazado 1478" d="M984.434,147.572l.178.13.064-.09Z" transform="translate(-966.791 -132.516)" fill="#fff"/>
            <path id="Trazado_1479" data-name="Trazado 1479" d="M984.434,147.572h.22v.108Z" transform="translate(-966.791 -132.516)" fill="#fff"/>
            <path id="Trazado_1480" data-name="Trazado 1480" d="M984.735,147.811l-.064-.212-.106.035Z" transform="translate(-966.756 -132.509)" fill="#fff"/>
            <path id="Trazado_1481" data-name="Trazado 1481" d="M984.737,147.813l-.181-.132.069-.087Z" transform="translate(-966.758 -132.51)" fill="#fff"/>
            <path id="Trazado_1482" data-name="Trazado 1482" d="M984.5,147.813l.178-.132-.064-.087Z" transform="translate(-966.774 -132.51)" fill="#fff"/>
            <path id="Trazado_1483" data-name="Trazado 1483" d="M984.5,147.811l.067-.212.106.035Z" transform="translate(-966.774 -132.509)" fill="#fff"/>
            <path id="Trazado_1484" data-name="Trazado 1484" d="M988.822,143.746l-.082.254.129.04Z" transform="translate(-965.642 -133.537)" fill="#fff"/>
            <path id="Trazado_1485" data-name="Trazado 1485" d="M988.814,143.746l.084.254-.129.04Z" transform="translate(-965.634 -133.537)" fill="#fff"/>
            <path id="Trazado_1486" data-name="Trazado 1486" d="M989.06,143.891h-.265v.135Z" transform="translate(-965.627 -133.498)" fill="#fff"/>
            <path id="Trazado_1487" data-name="Trazado 1487" d="M989.065,143.891l-.215.157-.077-.109Z" transform="translate(-965.633 -133.498)" fill="#fff"/>
            <path id="Trazado_1488" data-name="Trazado 1488" d="M988.605,143.891l.218.157.077-.109Z" transform="translate(-965.678 -133.498)" fill="#fff"/>
            <path id="Trazado_1489" data-name="Trazado 1489" d="M988.605,143.891h.267v.135Z" transform="translate(-965.678 -133.498)" fill="#fff"/>
            <path id="Trazado_1490" data-name="Trazado 1490" d="M988.973,144.18l-.084-.254-.124.042Z" transform="translate(-965.635 -133.488)" fill="#fff"/>
            <path id="Trazado_1491" data-name="Trazado 1491" d="M988.975,144.183l-.218-.157.079-.109Z" transform="translate(-965.637 -133.491)" fill="#fff"/>
            <path id="Trazado_1492" data-name="Trazado 1492" d="M988.682,144.183l.215-.157-.077-.109Z" transform="translate(-965.657 -133.491)" fill="#fff"/>
            <path id="Trazado_1493" data-name="Trazado 1493" d="M988.682,144.18l.084-.254.129.042Z" transform="translate(-965.657 -133.488)" fill="#fff"/>
            <path id="Trazado_1494" data-name="Trazado 1494" d="M990.732,146.983l-.081.252.129.042Z" transform="translate(-965.132 -132.673)" fill="#fff"/>
            <path id="Trazado_1495" data-name="Trazado 1495" d="M990.723,146.983l.084.252-.124.042Z" transform="translate(-965.123 -132.673)" fill="#fff"/>
            <path id="Trazado_1496" data-name="Trazado 1496" d="M990.972,147.128H990.7v.131Z" transform="translate(-965.117 -132.634)" fill="#fff"/>
            <path id="Trazado_1497" data-name="Trazado 1497" d="M990.978,147.128l-.213.156-.082-.109Z" transform="translate(-965.123 -132.634)" fill="#fff"/>
            <path id="Trazado_1498" data-name="Trazado 1498" d="M990.516,147.128l.218.156.077-.109Z" transform="translate(-965.168 -132.634)" fill="#fff"/>
            <path id="Trazado_1499" data-name="Trazado 1499" d="M990.516,147.128h.267v.131Z" transform="translate(-965.168 -132.634)" fill="#fff"/>
            <path id="Trazado_1500" data-name="Trazado 1500" d="M990.889,147.415l-.084-.252-.129.04Z" transform="translate(-965.125 -132.625)" fill="#fff"/>
            <path id="Trazado_1501" data-name="Trazado 1501" d="M990.89,147.418l-.218-.156.079-.109Z" transform="translate(-965.126 -132.628)" fill="#fff"/>
            <path id="Trazado_1502" data-name="Trazado 1502" d="M990.594,147.418l.215-.156-.079-.109Z" transform="translate(-965.147 -132.628)" fill="#fff"/>
            <path id="Trazado_1503" data-name="Trazado 1503" d="M990.594,147.415l.081-.252.129.04Z" transform="translate(-965.147 -132.625)" fill="#fff"/>
            <path id="Trazado_1504" data-name="Trazado 1504" d="M991.411,147.1l-.059.167.089.027Z" transform="translate(-964.945 -132.642)" fill="#fff"/>
            <path id="Trazado_1505" data-name="Trazado 1505" d="M991.406,147.1l.055.167-.089.027Z" transform="translate(-964.94 -132.642)" fill="#fff"/>
            <path id="Trazado_1506" data-name="Trazado 1506" d="M991.564,147.2h-.173v.087Z" transform="translate(-964.935 -132.616)" fill="#fff"/>
            <path id="Trazado_1507" data-name="Trazado 1507" d="M991.568,147.2l-.141.1-.052-.073Z" transform="translate(-964.939 -132.616)" fill="#fff"/>
            <path id="Trazado_1508" data-name="Trazado 1508" d="M991.264,147.2l.141.1.057-.073Z" transform="translate(-964.969 -132.616)" fill="#fff"/>
            <path id="Trazado_1509" data-name="Trazado 1509" d="M991.264,147.2h.178v.087Z" transform="translate(-964.969 -132.616)" fill="#fff"/>
            <path id="Trazado_1510" data-name="Trazado 1510" d="M991.505,147.387l-.05-.169-.087.03Z" transform="translate(-964.94 -132.61)" fill="#fff"/>
            <path id="Trazado_1511" data-name="Trazado 1511" d="M991.506,147.389l-.141-.1.055-.073Z" transform="translate(-964.941 -132.612)" fill="#fff"/>
            <path id="Trazado_1512" data-name="Trazado 1512" d="M991.315,147.389l.141-.1-.049-.073Z" transform="translate(-964.955 -132.612)" fill="#fff"/>
            <path id="Trazado_1513" data-name="Trazado 1513" d="M991.315,147.387l.054-.169.082.03Z" transform="translate(-964.955 -132.61)" fill="#fff"/>
            <path id="Trazado_1514" data-name="Trazado 1514" d="M990.93,147.45l-.064.212.1.035Z" transform="translate(-965.075 -132.548)" fill="#fff"/>
            <path id="Trazado_1515" data-name="Trazado 1515" d="M990.923,147.45l.067.212-.1.035Z" transform="translate(-965.068 -132.548)" fill="#fff"/>
            <path id="Trazado_1516" data-name="Trazado 1516" d="M991.128,147.572h-.22v.108Z" transform="translate(-965.063 -132.516)" fill="#fff"/>
            <path id="Trazado_1517" data-name="Trazado 1517" d="M991.133,147.572l-.173.13-.069-.09Z" transform="translate(-965.068 -132.516)" fill="#fff"/>
            <path id="Trazado_1518" data-name="Trazado 1518" d="M990.752,147.572l.18.13.064-.09Z" transform="translate(-965.105 -132.516)" fill="#fff"/>
            <path id="Trazado_1519" data-name="Trazado 1519" d="M990.752,147.572h.22v.108Z" transform="translate(-965.105 -132.516)" fill="#fff"/>
            <path id="Trazado_1520" data-name="Trazado 1520" d="M991.056,147.811l-.067-.212-.107.035Z" transform="translate(-965.07 -132.509)" fill="#fff"/>
            <path id="Trazado_1521" data-name="Trazado 1521" d="M991.057,147.813l-.178-.132.064-.087Z" transform="translate(-965.071 -132.51)" fill="#fff"/>
            <path id="Trazado_1522" data-name="Trazado 1522" d="M990.814,147.813l.178-.132-.064-.087Z" transform="translate(-965.088 -132.51)" fill="#fff"/>
            <path id="Trazado_1523" data-name="Trazado 1523" d="M990.814,147.811l.067-.212.106.035Z" transform="translate(-965.088 -132.509)" fill="#fff"/>
            <path id="Trazado_1524" data-name="Trazado 1524" d="M989.753,148.476l-.069.209.1.036Z" transform="translate(-965.39 -132.275)" fill="#fff"/>
            <path id="Trazado_1525" data-name="Trazado 1525" d="M989.747,148.476l.067.209-.106.036Z" transform="translate(-965.384 -132.275)" fill="#fff"/>
            <path id="Trazado_1526" data-name="Trazado 1526" d="M989.951,148.6h-.22v.111Z" transform="translate(-965.377 -132.242)" fill="#fff"/>
            <path id="Trazado_1527" data-name="Trazado 1527" d="M989.956,148.6l-.181.129-.064-.09Z" transform="translate(-965.383 -132.242)" fill="#fff"/>
            <path id="Trazado_1528" data-name="Trazado 1528" d="M989.574,148.6l.178.129.059-.09Z" transform="translate(-965.419 -132.242)" fill="#fff"/>
            <path id="Trazado_1529" data-name="Trazado 1529" d="M989.574,148.6h.22v.111Z" transform="translate(-965.419 -132.242)" fill="#fff"/>
            <path id="Trazado_1530" data-name="Trazado 1530" d="M989.874,148.836l-.062-.21-.111.033Z" transform="translate(-965.385 -132.235)" fill="#fff"/>
            <path id="Trazado_1531" data-name="Trazado 1531" d="M989.875,148.838l-.178-.131.064-.088Z" transform="translate(-965.386 -132.237)" fill="#fff"/>
            <path id="Trazado_1532" data-name="Trazado 1532" d="M989.637,148.838l.178-.131-.064-.088Z" transform="translate(-965.403 -132.237)" fill="#fff"/>
            <path id="Trazado_1533" data-name="Trazado 1533" d="M989.637,148.836l.067-.21.106.033Z" transform="translate(-965.403 -132.235)" fill="#fff"/>
            <path id="Trazado_1534" data-name="Trazado 1534" d="M989.742,149l-.052.166.084.029Z" transform="translate(-965.389 -132.134)" fill="#fff"/>
            <path id="Trazado_1535" data-name="Trazado 1535" d="M989.737,149l.054.166-.084.029Z" transform="translate(-965.384 -132.134)" fill="#fff"/>
            <path id="Trazado_1536" data-name="Trazado 1536" d="M989.9,149.1h-.173v.088Z" transform="translate(-965.378 -132.108)" fill="#fff"/>
            <path id="Trazado_1537" data-name="Trazado 1537" d="M989.9,149.1l-.146.1-.052-.07Z" transform="translate(-965.384 -132.108)" fill="#fff"/>
            <path id="Trazado_1538" data-name="Trazado 1538" d="M989.6,149.1l.141.1.052-.07Z" transform="translate(-965.412 -132.108)" fill="#fff"/>
            <path id="Trazado_1539" data-name="Trazado 1539" d="M989.6,149.1h.176v.088Z" transform="translate(-965.412 -132.108)" fill="#fff"/>
            <path id="Trazado_1540" data-name="Trazado 1540" d="M989.842,149.29l-.054-.165-.086.025Z" transform="translate(-965.385 -132.102)" fill="#fff"/>
            <path id="Trazado_1541" data-name="Trazado 1541" d="M989.843,149.291l-.146-.1.054-.072Z" transform="translate(-965.386 -132.103)" fill="#fff"/>
            <path id="Trazado_1542" data-name="Trazado 1542" d="M989.65,149.291l.141-.1-.054-.072Z" transform="translate(-965.399 -132.103)" fill="#fff"/>
            <path id="Trazado_1543" data-name="Trazado 1543" d="M989.65,149.29l.055-.165.082.025Z" transform="translate(-965.399 -132.102)" fill="#fff"/>
            <path id="Trazado_1544" data-name="Trazado 1544" d="M990.239,148.124l-.059.169.081.027Z" transform="translate(-965.258 -132.369)" fill="#fff"/>
            <path id="Trazado_1545" data-name="Trazado 1545" d="M990.233,148.124l.049.169-.082.027Z" transform="translate(-965.252 -132.369)" fill="#fff"/>
            <path id="Trazado_1546" data-name="Trazado 1546" d="M990.4,148.221h-.181v.089Z" transform="translate(-965.248 -132.343)" fill="#fff"/>
            <path id="Trazado_1547" data-name="Trazado 1547" d="M990.4,148.221l-.144.106-.054-.071Z" transform="translate(-965.252 -132.343)" fill="#fff"/>
            <path id="Trazado_1548" data-name="Trazado 1548" d="M990.092,148.221l.143.106.049-.071Z" transform="translate(-965.281 -132.343)" fill="#fff"/>
            <path id="Trazado_1549" data-name="Trazado 1549" d="M990.092,148.221h.181v.089Z" transform="translate(-965.281 -132.343)" fill="#fff"/>
            <path id="Trazado_1550" data-name="Trazado 1550" d="M990.336,148.412l-.057-.167-.082.027Z" transform="translate(-965.253 -132.336)" fill="#fff"/>
            <path id="Trazado_1551" data-name="Trazado 1551" d="M990.337,148.414l-.143-.1.057-.072Z" transform="translate(-965.254 -132.338)" fill="#fff"/>
            <path id="Trazado_1552" data-name="Trazado 1552" d="M990.143,148.414l.143-.1-.052-.072Z" transform="translate(-965.268 -132.338)" fill="#fff"/>
            <path id="Trazado_1553" data-name="Trazado 1553" d="M990.143,148.412l.057-.167.082.027Z" transform="translate(-965.268 -132.336)" fill="#fff"/>
            <path id="Trazado_1554" data-name="Trazado 1554" d="M990.631,147.844l-.067.209.1.035Z" transform="translate(-965.155 -132.443)" fill="#fff"/>
            <path id="Trazado_1555" data-name="Trazado 1555" d="M990.626,147.844l.069.209-.109.035Z" transform="translate(-965.149 -132.443)" fill="#fff"/>
            <path id="Trazado_1556" data-name="Trazado 1556" d="M990.828,147.965h-.22v.109Z" transform="translate(-965.144 -132.411)" fill="#fff"/>
            <path id="Trazado_1557" data-name="Trazado 1557" d="M990.831,147.965l-.173.13-.064-.092Z" transform="translate(-965.147 -132.411)" fill="#fff"/>
            <path id="Trazado_1558" data-name="Trazado 1558" d="M990.451,147.965l.181.13L990.7,148Z" transform="translate(-965.185 -132.411)" fill="#fff"/>
            <path id="Trazado_1559" data-name="Trazado 1559" d="M990.451,147.965h.22v.109Z" transform="translate(-965.185 -132.411)" fill="#fff"/>
            <path id="Trazado_1560" data-name="Trazado 1560" d="M990.755,148.2l-.064-.207-.109.033Z" transform="translate(-965.15 -132.403)" fill="#fff"/>
            <path id="Trazado_1561" data-name="Trazado 1561" d="M990.756,148.2l-.178-.129.064-.089Z" transform="translate(-965.151 -132.406)" fill="#fff"/>
            <path id="Trazado_1562" data-name="Trazado 1562" d="M990.514,148.2l.183-.129-.069-.089Z" transform="translate(-965.169 -132.406)" fill="#fff"/>
            <path id="Trazado_1563" data-name="Trazado 1563" d="M990.514,148.2l.072-.207.1.033Z" transform="translate(-965.169 -132.403)" fill="#fff"/>
            <path id="Trazado_1564" data-name="Trazado 1564" d="M989.725,148.031l-.049.168.081.028Z" transform="translate(-965.392 -132.393)" fill="#fff"/>
            <path id="Trazado_1565" data-name="Trazado 1565" d="M989.72,148.031l.059.168-.087.028Z" transform="translate(-965.387 -132.393)" fill="#fff"/>
            <path id="Trazado_1566" data-name="Trazado 1566" d="M989.892,148.129h-.181v.088Z" transform="translate(-965.383 -132.367)" fill="#fff"/>
            <path id="Trazado_1567" data-name="Trazado 1567" d="M989.9,148.129l-.146.1-.052-.073Z" transform="translate(-965.386 -132.367)" fill="#fff"/>
            <path id="Trazado_1568" data-name="Trazado 1568" d="M989.586,148.129l.141.1.052-.073Z" transform="translate(-965.416 -132.367)" fill="#fff"/>
            <path id="Trazado_1569" data-name="Trazado 1569" d="M989.586,148.129h.178v.088Z" transform="translate(-965.416 -132.367)" fill="#fff"/>
            <path id="Trazado_1570" data-name="Trazado 1570" d="M989.833,148.322l-.057-.171-.087.026Z" transform="translate(-965.389 -132.361)" fill="#fff"/>
            <path id="Trazado_1571" data-name="Trazado 1571" d="M989.833,148.323l-.146-.108.049-.068Z" transform="translate(-965.389 -132.362)" fill="#fff"/>
            <path id="Trazado_1572" data-name="Trazado 1572" d="M989.637,148.323l.141-.108-.052-.068Z" transform="translate(-965.403 -132.362)" fill="#fff"/>
            <path id="Trazado_1573" data-name="Trazado 1573" d="M989.637,148.322l.054-.171.087.026Z" transform="translate(-965.403 -132.361)" fill="#fff"/>
            <path id="Trazado_1574" data-name="Trazado 1574" d="M985.438,145.5l-.069.209.107.033Z" transform="translate(-966.541 -133.069)" fill="#fff"/>
            <path id="Trazado_1575" data-name="Trazado 1575" d="M985.432,145.5l.067.209-.1.033Z" transform="translate(-966.534 -133.069)" fill="#fff"/>
            <path id="Trazado_1576" data-name="Trazado 1576" d="M985.636,145.62h-.22v.11Z" transform="translate(-966.529 -133.037)" fill="#fff"/>
            <path id="Trazado_1577" data-name="Trazado 1577" d="M985.641,145.62l-.178.132-.064-.092Z" transform="translate(-966.533 -133.037)" fill="#fff"/>
            <path id="Trazado_1578" data-name="Trazado 1578" d="M985.256,145.62l.18.132.064-.092Z" transform="translate(-966.571 -133.037)" fill="#fff"/>
            <path id="Trazado_1579" data-name="Trazado 1579" d="M985.256,145.62h.22v.11Z" transform="translate(-966.571 -133.037)" fill="#fff"/>
            <path id="Trazado_1580" data-name="Trazado 1580" d="M985.561,145.859l-.064-.209-.106.033Z" transform="translate(-966.535 -133.029)" fill="#fff"/>
            <path id="Trazado_1581" data-name="Trazado 1581" d="M985.563,145.862l-.181-.13.064-.09Z" transform="translate(-966.537 -133.031)" fill="#fff"/>
            <path id="Trazado_1582" data-name="Trazado 1582" d="M985.318,145.862l.183-.13-.064-.09Z" transform="translate(-966.554 -133.031)" fill="#fff"/>
            <path id="Trazado_1583" data-name="Trazado 1583" d="M985.318,145.859l.072-.209.1.033Z" transform="translate(-966.554 -133.029)" fill="#fff"/>
            <path id="Trazado_1584" data-name="Trazado 1584" d="M988.628,145.087l-.049.169.082.026Z" transform="translate(-965.685 -133.179)" fill="#fff"/>
            <path id="Trazado_1585" data-name="Trazado 1585" d="M988.623,145.087l.059.169-.087.026Z" transform="translate(-965.68 -133.179)" fill="#fff"/>
            <path id="Trazado_1586" data-name="Trazado 1586" d="M988.791,145.185h-.178v.087Z" transform="translate(-965.676 -133.153)" fill="#fff"/>
            <path id="Trazado_1587" data-name="Trazado 1587" d="M988.8,145.185l-.146.1-.049-.072Z" transform="translate(-965.679 -133.153)" fill="#fff"/>
            <path id="Trazado_1588" data-name="Trazado 1588" d="M988.486,145.185l.144.1.049-.072Z" transform="translate(-965.709 -133.153)" fill="#fff"/>
            <path id="Trazado_1589" data-name="Trazado 1589" d="M988.486,145.185h.181v.087Z" transform="translate(-965.709 -133.153)" fill="#fff"/>
            <path id="Trazado_1590" data-name="Trazado 1590" d="M988.733,145.378l-.059-.17-.082.029Z" transform="translate(-965.681 -133.147)" fill="#fff"/>
            <path id="Trazado_1591" data-name="Trazado 1591" d="M988.734,145.379l-.146-.106.052-.072Z" transform="translate(-965.682 -133.148)" fill="#fff"/>
            <path id="Trazado_1592" data-name="Trazado 1592" d="M988.537,145.379l.144-.106-.052-.072Z" transform="translate(-965.696 -133.148)" fill="#fff"/>
            <path id="Trazado_1593" data-name="Trazado 1593" d="M988.537,145.378l.054-.17.084.029Z" transform="translate(-965.696 -133.147)" fill="#fff"/>
            <path id="Trazado_1594" data-name="Trazado 1594" d="M987.3,147.462l-.084.252.129.042Z" transform="translate(-966.047 -132.545)" fill="#fff"/>
            <path id="Trazado_1595" data-name="Trazado 1595" d="M987.3,147.462l.082.252-.124.042Z" transform="translate(-966.038 -132.545)" fill="#fff"/>
            <path id="Trazado_1596" data-name="Trazado 1596" d="M987.542,147.606h-.262v.134Z" transform="translate(-966.031 -132.507)" fill="#fff"/>
            <path id="Trazado_1597" data-name="Trazado 1597" d="M987.547,147.606l-.213.158-.077-.11Z" transform="translate(-966.037 -132.507)" fill="#fff"/>
            <path id="Trazado_1598" data-name="Trazado 1598" d="M987.088,147.606l.22.158.072-.11Z" transform="translate(-966.082 -132.507)" fill="#fff"/>
            <path id="Trazado_1599" data-name="Trazado 1599" d="M987.088,147.606h.265v.134Z" transform="translate(-966.082 -132.507)" fill="#fff"/>
            <path id="Trazado_1600" data-name="Trazado 1600" d="M987.454,147.895l-.079-.251-.129.04Z" transform="translate(-966.04 -132.497)" fill="#fff"/>
            <path id="Trazado_1601" data-name="Trazado 1601" d="M987.455,147.9l-.213-.157.074-.106Z" transform="translate(-966.041 -132.499)" fill="#fff"/>
            <path id="Trazado_1602" data-name="Trazado 1602" d="M987.164,147.9l.215-.157-.079-.106Z" transform="translate(-966.062 -132.499)" fill="#fff"/>
            <path id="Trazado_1603" data-name="Trazado 1603" d="M987.164,147.895l.082-.251.129.04Z" transform="translate(-966.062 -132.497)" fill="#fff"/>
            <path id="Trazado_1604" data-name="Trazado 1604" d="M987.87,146.525l-.069.21.107.032Z" transform="translate(-965.892 -132.795)" fill="#fff"/>
            <path id="Trazado_1605" data-name="Trazado 1605" d="M987.863,146.525l.069.21-.107.032Z" transform="translate(-965.886 -132.795)" fill="#fff"/>
            <path id="Trazado_1606" data-name="Trazado 1606" d="M988.066,146.646h-.222v.108Z" transform="translate(-965.881 -132.763)" fill="#fff"/>
            <path id="Trazado_1607" data-name="Trazado 1607" d="M988.071,146.646l-.18.129-.064-.089Z" transform="translate(-965.886 -132.763)" fill="#fff"/>
            <path id="Trazado_1608" data-name="Trazado 1608" d="M987.689,146.646l.178.129.064-.089Z" transform="translate(-965.922 -132.763)" fill="#fff"/>
            <path id="Trazado_1609" data-name="Trazado 1609" d="M987.689,146.646h.22v.108Z" transform="translate(-965.922 -132.763)" fill="#fff"/>
            <path id="Trazado_1610" data-name="Trazado 1610" d="M987.993,146.885l-.069-.212-.1.036Z" transform="translate(-965.887 -132.756)" fill="#fff"/>
            <path id="Trazado_1611" data-name="Trazado 1611" d="M987.994,146.887l-.178-.131.064-.09Z" transform="translate(-965.888 -132.758)" fill="#fff"/>
            <path id="Trazado_1612" data-name="Trazado 1612" d="M987.75,146.887l.181-.131-.064-.09Z" transform="translate(-965.906 -132.758)" fill="#fff"/>
            <path id="Trazado_1613" data-name="Trazado 1613" d="M987.75,146.885l.069-.212.106.036Z" transform="translate(-965.906 -132.756)" fill="#fff"/>
            <path id="Trazado_1614" data-name="Trazado 1614" d="M987.3,146.087l-.069.208.106.035Z" transform="translate(-966.044 -132.912)" fill="#fff"/>
            <path id="Trazado_1615" data-name="Trazado 1615" d="M987.294,146.087l.067.208-.1.035Z" transform="translate(-966.036 -132.912)" fill="#fff"/>
            <path id="Trazado_1616" data-name="Trazado 1616" d="M987.5,146.206h-.22v.111Z" transform="translate(-966.031 -132.88)" fill="#fff"/>
            <path id="Trazado_1617" data-name="Trazado 1617" d="M987.5,146.206l-.178.129-.064-.088Z" transform="translate(-966.036 -132.88)" fill="#fff"/>
            <path id="Trazado_1618" data-name="Trazado 1618" d="M987.123,146.206l.181.129.059-.088Z" transform="translate(-966.073 -132.88)" fill="#fff"/>
            <path id="Trazado_1619" data-name="Trazado 1619" d="M987.123,146.206h.22v.111Z" transform="translate(-966.073 -132.88)" fill="#fff"/>
            <path id="Trazado_1620" data-name="Trazado 1620" d="M987.427,146.446l-.067-.21-.106.032Z" transform="translate(-966.038 -132.872)" fill="#fff"/>
            <path id="Trazado_1621" data-name="Trazado 1621" d="M987.428,146.448l-.178-.13.064-.09Z" transform="translate(-966.039 -132.875)" fill="#fff"/>
            <path id="Trazado_1622" data-name="Trazado 1622" d="M987.185,146.448l.178-.13-.064-.09Z" transform="translate(-966.056 -132.875)" fill="#fff"/>
            <path id="Trazado_1623" data-name="Trazado 1623" d="M987.185,146.446l.067-.21.107.032Z" transform="translate(-966.056 -132.872)" fill="#fff"/>
            <path id="Trazado_1624" data-name="Trazado 1624" d="M986.8,146.56l-.054.169.087.027Z" transform="translate(-966.173 -132.786)" fill="#fff"/>
            <path id="Trazado_1625" data-name="Trazado 1625" d="M986.8,146.56l.059.169-.086.027Z" transform="translate(-966.167 -132.786)" fill="#fff"/>
            <path id="Trazado_1626" data-name="Trazado 1626" d="M986.965,146.656h-.176v.087Z" transform="translate(-966.162 -132.76)" fill="#fff"/>
            <path id="Trazado_1627" data-name="Trazado 1627" d="M986.969,146.656l-.143.1-.054-.073Z" transform="translate(-966.167 -132.76)" fill="#fff"/>
            <path id="Trazado_1628" data-name="Trazado 1628" d="M986.664,146.656l.141.1.049-.073Z" transform="translate(-966.196 -132.76)" fill="#fff"/>
            <path id="Trazado_1629" data-name="Trazado 1629" d="M986.664,146.656h.173v.087Z" transform="translate(-966.196 -132.76)" fill="#fff"/>
            <path id="Trazado_1630" data-name="Trazado 1630" d="M986.906,146.848l-.052-.168-.086.027Z" transform="translate(-966.168 -132.754)" fill="#fff"/>
            <path id="Trazado_1631" data-name="Trazado 1631" d="M986.907,146.849l-.141-.1.055-.072Z" transform="translate(-966.168 -132.756)" fill="#fff"/>
            <path id="Trazado_1632" data-name="Trazado 1632" d="M986.715,146.849l.141-.1-.052-.072Z" transform="translate(-966.182 -132.756)" fill="#fff"/>
            <path id="Trazado_1633" data-name="Trazado 1633" d="M986.715,146.848l.055-.168.082.027Z" transform="translate(-966.182 -132.754)" fill="#fff"/>
            <path id="Trazado_1634" data-name="Trazado 1634" d="M987.051,146.939l-.04.12.059.019Z" transform="translate(-966.103 -132.685)" fill="#fff"/>
            <path id="Trazado_1635" data-name="Trazado 1635" d="M987.048,146.939l.037.12-.059.019Z" transform="translate(-966.099 -132.685)" fill="#fff"/>
            <path id="Trazado_1636" data-name="Trazado 1636" d="M987.163,147.008h-.126v.063Z" transform="translate(-966.096 -132.666)" fill="#fff"/>
            <path id="Trazado_1637" data-name="Trazado 1637" d="M987.165,147.008l-.1.076-.037-.052Z" transform="translate(-966.098 -132.666)" fill="#fff"/>
            <path id="Trazado_1638" data-name="Trazado 1638" d="M986.945,147.008l.106.076.037-.052Z" transform="translate(-966.12 -132.666)" fill="#fff"/>
            <path id="Trazado_1639" data-name="Trazado 1639" d="M986.945,147.008h.129v.063Z" transform="translate(-966.12 -132.666)" fill="#fff"/>
            <path id="Trazado_1640" data-name="Trazado 1640" d="M987.118,147.147l-.037-.121-.06.018Z" transform="translate(-966.1 -132.662)" fill="#fff"/>
            <path id="Trazado_1641" data-name="Trazado 1641" d="M987.119,147.148l-.1-.076.042-.052Z" transform="translate(-966.101 -132.663)" fill="#fff"/>
            <path id="Trazado_1642" data-name="Trazado 1642" d="M986.982,147.148l.1-.076-.037-.052Z" transform="translate(-966.111 -132.663)" fill="#fff"/>
            <path id="Trazado_1643" data-name="Trazado 1643" d="M986.982,147.147l.042-.121.059.018Z" transform="translate(-966.111 -132.662)" fill="#fff"/>
            <path id="Trazado_1644" data-name="Trazado 1644" d="M988.768,148.595l-.069.212.106.036Z" transform="translate(-965.653 -132.243)" fill="#fff"/>
            <path id="Trazado_1645" data-name="Trazado 1645" d="M988.762,148.595l.069.212-.109.036Z" transform="translate(-965.646 -132.243)" fill="#fff"/>
            <path id="Trazado_1646" data-name="Trazado 1646" d="M988.964,148.715h-.22v.114Z" transform="translate(-965.641 -132.211)" fill="#fff"/>
            <path id="Trazado_1647" data-name="Trazado 1647" d="M988.969,148.715l-.178.132-.064-.091Z" transform="translate(-965.645 -132.211)" fill="#fff"/>
            <path id="Trazado_1648" data-name="Trazado 1648" d="M988.588,148.715l.176.132.069-.091Z" transform="translate(-965.682 -132.211)" fill="#fff"/>
            <path id="Trazado_1649" data-name="Trazado 1649" d="M988.588,148.715h.22v.114Z" transform="translate(-965.682 -132.211)" fill="#fff"/>
            <path id="Trazado_1650" data-name="Trazado 1650" d="M988.892,148.957l-.069-.212-.1.036Z" transform="translate(-965.647 -132.203)" fill="#fff"/>
            <path id="Trazado_1651" data-name="Trazado 1651" d="M988.893,148.958l-.178-.13.065-.089Z" transform="translate(-965.648 -132.205)" fill="#fff"/>
            <path id="Trazado_1652" data-name="Trazado 1652" d="M988.65,148.958l.178-.13-.064-.089Z" transform="translate(-965.666 -132.205)" fill="#fff"/>
            <path id="Trazado_1653" data-name="Trazado 1653" d="M988.65,148.957l.067-.212.106.036Z" transform="translate(-965.666 -132.203)" fill="#fff"/>
            <path id="Trazado_1654" data-name="Trazado 1654" d="M989.183,148.2l-.055.168.082.028Z" transform="translate(-965.538 -132.349)" fill="#fff"/>
            <path id="Trazado_1655" data-name="Trazado 1655" d="M989.179,148.2l.054.168-.086.028Z" transform="translate(-965.533 -132.349)" fill="#fff"/>
            <path id="Trazado_1656" data-name="Trazado 1656" d="M989.342,148.3h-.178v.084Z" transform="translate(-965.529 -132.323)" fill="#fff"/>
            <path id="Trazado_1657" data-name="Trazado 1657" d="M989.346,148.3l-.141.1-.055-.069Z" transform="translate(-965.532 -132.323)" fill="#fff"/>
            <path id="Trazado_1658" data-name="Trazado 1658" d="M989.037,148.3l.144.1.054-.069Z" transform="translate(-965.563 -132.323)" fill="#fff"/>
            <path id="Trazado_1659" data-name="Trazado 1659" d="M989.037,148.3h.181v.084Z" transform="translate(-965.563 -132.323)" fill="#fff"/>
            <path id="Trazado_1660" data-name="Trazado 1660" d="M989.283,148.486l-.055-.168-.081.028Z" transform="translate(-965.533 -132.317)" fill="#fff"/>
            <path id="Trazado_1661" data-name="Trazado 1661" d="M989.283,148.487l-.141-.1.052-.072Z" transform="translate(-965.534 -132.319)" fill="#fff"/>
            <path id="Trazado_1662" data-name="Trazado 1662" d="M989.092,148.487l.141-.1-.054-.072Z" transform="translate(-965.548 -132.319)" fill="#fff"/>
            <path id="Trazado_1663" data-name="Trazado 1663" d="M989.092,148.486l.055-.168.084.028Z" transform="translate(-965.548 -132.317)" fill="#fff"/>
            <path id="Trazado_1664" data-name="Trazado 1664" d="M988.379,148.078l-.054.167.082.03Z" transform="translate(-965.753 -132.381)" fill="#fff"/>
            <path id="Trazado_1665" data-name="Trazado 1665" d="M988.373,148.078l.055.167-.082.03Z" transform="translate(-965.747 -132.381)" fill="#fff"/>
            <path id="Trazado_1666" data-name="Trazado 1666" d="M988.535,148.174h-.176v.09Z" transform="translate(-965.743 -132.355)" fill="#fff"/>
            <path id="Trazado_1667" data-name="Trazado 1667" d="M988.539,148.174l-.143.106-.05-.074Z" transform="translate(-965.747 -132.355)" fill="#fff"/>
            <path id="Trazado_1668" data-name="Trazado 1668" d="M988.232,148.174l.144.106.05-.074Z" transform="translate(-965.777 -132.355)" fill="#fff"/>
            <path id="Trazado_1669" data-name="Trazado 1669" d="M988.232,148.174h.181v.09Z" transform="translate(-965.777 -132.355)" fill="#fff"/>
            <path id="Trazado_1670" data-name="Trazado 1670" d="M988.479,148.367l-.054-.168-.087.029Z" transform="translate(-965.749 -132.349)" fill="#fff"/>
            <path id="Trazado_1671" data-name="Trazado 1671" d="M988.48,148.368l-.146-.1.055-.07Z" transform="translate(-965.75 -132.35)" fill="#fff"/>
            <path id="Trazado_1672" data-name="Trazado 1672" d="M988.283,148.368l.144-.1-.052-.07Z" transform="translate(-965.764 -132.35)" fill="#fff"/>
            <path id="Trazado_1673" data-name="Trazado 1673" d="M988.283,148.367l.055-.168.089.029Z" transform="translate(-965.764 -132.349)" fill="#fff"/>
            <path id="Trazado_1674" data-name="Trazado 1674" d="M985.339,147.861l-.079.251.124.042Z" transform="translate(-966.57 -132.439)" fill="#fff"/>
            <path id="Trazado_1675" data-name="Trazado 1675" d="M985.331,147.861l.082.251-.124.042Z" transform="translate(-966.562 -132.439)" fill="#fff"/>
            <path id="Trazado_1676" data-name="Trazado 1676" d="M985.582,148.008h-.267v.132Z" transform="translate(-966.556 -132.4)" fill="#fff"/>
            <path id="Trazado_1677" data-name="Trazado 1677" d="M985.587,148.008l-.22.155-.074-.108Z" transform="translate(-966.561 -132.4)" fill="#fff"/>
            <path id="Trazado_1678" data-name="Trazado 1678" d="M985.121,148.008l.223.155.072-.108Z" transform="translate(-966.607 -132.4)" fill="#fff"/>
            <path id="Trazado_1679" data-name="Trazado 1679" d="M985.121,148.008h.267v.132Z" transform="translate(-966.607 -132.4)" fill="#fff"/>
            <path id="Trazado_1680" data-name="Trazado 1680" d="M985.488,148.294l-.079-.251-.124.04Z" transform="translate(-966.563 -132.39)" fill="#fff"/>
            <path id="Trazado_1681" data-name="Trazado 1681" d="M985.49,148.3l-.213-.156.074-.108Z" transform="translate(-966.565 -132.393)" fill="#fff"/>
            <path id="Trazado_1682" data-name="Trazado 1682" d="M985.2,148.3l.215-.156-.079-.108Z" transform="translate(-966.586 -132.393)" fill="#fff"/>
            <path id="Trazado_1683" data-name="Trazado 1683" d="M985.2,148.294l.087-.251.124.04Z" transform="translate(-966.586 -132.39)" fill="#fff"/>
            <path id="Trazado_1684" data-name="Trazado 1684" d="M987.293,149.232l-.027.085.04.014Z" transform="translate(-966.035 -132.073)" fill="#fff"/>
            <path id="Trazado_1685" data-name="Trazado 1685" d="M987.289,149.232l.027.085-.037.014Z" transform="translate(-966.031 -132.073)" fill="#fff"/>
            <path id="Trazado_1686" data-name="Trazado 1686" d="M987.375,149.282h-.092v.043Z" transform="translate(-966.03 -132.06)" fill="#fff"/>
            <path id="Trazado_1687" data-name="Trazado 1687" d="M987.376,149.282l-.074.052-.022-.037Z" transform="translate(-966.031 -132.06)" fill="#fff"/>
            <path id="Trazado_1688" data-name="Trazado 1688" d="M987.221,149.282l.074.052.022-.037Z" transform="translate(-966.047 -132.06)" fill="#fff"/>
            <path id="Trazado_1689" data-name="Trazado 1689" d="M987.221,149.282h.087v.043Z" transform="translate(-966.047 -132.06)" fill="#fff"/>
            <path id="Trazado_1690" data-name="Trazado 1690" d="M987.34,149.377l-.022-.084-.042.015Z" transform="translate(-966.032 -132.057)" fill="#fff"/>
            <path id="Trazado_1691" data-name="Trazado 1691" d="M987.341,149.377l-.069-.051.022-.035Z" transform="translate(-966.034 -132.057)" fill="#fff"/>
            <path id="Trazado_1692" data-name="Trazado 1692" d="M987.246,149.377l.069-.051-.022-.035Z" transform="translate(-966.04 -132.057)" fill="#fff"/>
            <path id="Trazado_1693" data-name="Trazado 1693" d="M987.246,149.377l.03-.084.04.015Z" transform="translate(-966.04 -132.057)" fill="#fff"/>
          </g>
        </g>
      </g>
    </g>
  </g>
</svg>
