<?xml version="1.0" encoding="utf-8"?>
<!-- Generator: Adobe Illustrator 24.0.1, SVG Export Plug-In . SVG Version: 6.00 Build 0)  -->
<svg version="1.1" id="Capa_1" xmlns="http://www.w3.org/2000/svg" xmlns:xlink="http://www.w3.org/1999/xlink" x="0px" y="0px"
	 viewBox="0 0 81 81" style="enable-background:new 0 0 81 81;" xml:space="preserve">
<style type="text/css">
	.st0{fill:#FCFCFC;}
	.st1{fill:#002270;}
</style>
<circle class="st0" cx="40.5" cy="40.5" r="40.5"/>
<g transform="translate(29.498 19.614)">
	<path class="st1" d="M22.2,0.1L15.9,0c-5.1-0.1-9.4,4-9.5,9.1c0,0.1,0,0.1,0,0.2v6H0.4c-0.2,0-0.4,0.2-0.4,0.4c0,0,0,0,0,0v7.6
		c0,0.2,0.2,0.4,0.4,0.4l0,0h5.9V43c0,0.2,0.2,0.4,0.4,0.4h7.8c0.2,0,0.4-0.2,0.4-0.4c0,0,0,0,0,0V23.8h6c0.2,0,0.4-0.2,0.4-0.4
		l1-7.6c0-0.2-0.1-0.5-0.4-0.5c0,0,0,0-0.1,0H15v-3.8c-0.1-1,0.2-2.1,0.8-2.9c0.5-0.5,1.2-0.8,1.9-0.7h4.5c0.2,0,0.4-0.2,0.4-0.4
		c0,0,0,0,0,0V0.6C22.7,0.3,22.5,0.1,22.2,0.1z"/>
</g>
</svg>
