<svg xmlns="http://www.w3.org/2000/svg" xmlns:xlink="http://www.w3.org/1999/xlink" width="331.695" height="52.192" viewBox="0 0 331.695 52.192">
  <defs>
    <linearGradient id="linear-gradient" x1="0.962" y1="0.61" x2="0.088" y2="0.39" gradientUnits="objectBoundingBox">
      <stop offset="0.153" stop-color="#0066b3"/>
      <stop offset="0.285" stop-color="#00559b"/>
      <stop offset="0.577" stop-color="#002966"/>
      <stop offset="1"/>
    </linearGradient>
    <linearGradient id="linear-gradient-2" x1="1.022" y1="0.042" x2="0.223" y2="0.947" gradientUnits="objectBoundingBox">
      <stop offset="0.411" stop-color="#0066b3"/>
      <stop offset="0.503" stop-color="#00559b"/>
      <stop offset="0.706" stop-color="#002966"/>
      <stop offset="1"/>
    </linearGradient>
    <linearGradient id="linear-gradient-3" x1="0.469" y1="0.89" x2="0.543" y2="-0.006" xlink:href="#linear-gradient-2"/>
    <linearGradient id="linear-gradient-4" x1="0.879" y1="0.603" x2="0.017" y2="0.417" xlink:href="#linear-gradient-2"/>
    <linearGradient id="linear-gradient-5" x1="0.723" y1="-0.015" x2="0.378" y2="0.973" gradientUnits="objectBoundingBox">
      <stop offset="0.135" stop-color="#0066b3"/>
      <stop offset="0.354" stop-color="#0052a5"/>
      <stop offset="0.491" stop-color="#17479e"/>
      <stop offset="0.988"/>
    </linearGradient>
    <linearGradient id="linear-gradient-6" x1="0.026" y1="0.007" x2="0.805" y2="0.967" xlink:href="#linear-gradient-2"/>
  </defs>
  <g id="Grupo_35" data-name="Grupo 35" transform="translate(0 -2)">
    <g id="Grupo_34" data-name="Grupo 34" transform="translate(0 2)">
      <g id="Grupo_33" data-name="Grupo 33">
        <g id="Grupo_13" data-name="Grupo 13" transform="translate(63.051 16.661)">
          <g id="Grupo_11" data-name="Grupo 11" transform="translate(0 0.262)">
            <g id="Grupo_9" data-name="Grupo 9">
              <path id="Trazado_19" data-name="Trazado 19" d="M84.429,21.942c0,5.373-4.193,9.042-10.615,9.042S63.2,27.315,63.2,21.942,67.525,12.9,73.815,12.9s10.615,3.669,10.615,9.042M73.684,15.914c-4.325,0-7.47,2.228-7.47,6.028s3.145,6.028,7.47,6.028,7.47-2.228,7.47-6.028S78.008,15.914,73.684,15.914Z" transform="translate(-43.412 -12.9)"/>
              <path id="Trazado_20" data-name="Trazado 20" d="M61.86,30.6l-3.014-4.98h-7.47V30.6H48.1V13.3H58.584c3.931,0,5.9,3.145,5.9,6.159a6.273,6.273,0,0,1-2.49,5.111l3.669,5.9h-3.8ZM51.376,15.921v6.945H57.8a3.191,3.191,0,0,0,3.276-3.407A3.3,3.3,0,0,0,57.8,15.921Z" transform="translate(-48.1 -12.776)"/>
              <path id="Trazado_21" data-name="Trazado 21" d="M88.573,30.6V24.439L79.4,13.3h3.931l6.814,8.518L96.96,13.3h3.931l-9.3,11.27V30.6Z" transform="translate(-38.383 -12.776)"/>
              <path id="Trazado_22" data-name="Trazado 22" d="M109.9,27.315H98.366l-2.1,3.276H92.6L104.132,12.9l11.532,17.691h-3.669Zm-9.828-2.752h7.994L104,18.273Z" transform="translate(-34.285 -12.9)"/>
              <path id="Trazado_23" data-name="Trazado 23" d="M112.3,30.629V13.2h3.276V27.746H127.5V30.5H112.3Z" transform="translate(-28.168 -12.807)"/>
            </g>
            <g id="Grupo_10" data-name="Grupo 10" transform="translate(110.734 0.131)">
              <path id="Trazado_24" data-name="Trazado 24" d="M135.876,25.649V30.5H132.6V13.2h9.7c4.456,0,6.683,3.145,6.683,6.159,0,3.145-2.228,6.159-6.683,6.159h-6.421Zm.131-9.7V22.9h6.29c2.752,0,4.062-1.7,4.062-3.407s-1.31-3.407-4.062-3.407h-6.29Z" transform="translate(-132.6 -12.938)"/>
              <path id="Trazado_25" data-name="Trazado 25" d="M163.9,30.5V13.2h16.119v2.752H167.176v5.5h10.615v2.752H167.176v3.669h12.843v2.752H163.9Z" transform="translate(-122.883 -12.938)"/>
              <path id="Trazado_26" data-name="Trazado 26" d="M200.508,30.5V15.952H193.3V13.2h17.56v2.752h-7.208V30.5Z" transform="translate(-113.755 -12.938)"/>
              <path id="Trazado_27" data-name="Trazado 27" d="M209.2,30.5V13.2h3.276V30.5Z" transform="translate(-108.819 -12.938)"/>
              <path id="Trazado_28" data-name="Trazado 28" d="M161.76,30.5l-3.014-4.98h-7.47V30.5H148V13.2h10.484c3.931,0,5.9,3.145,5.9,6.159a6.273,6.273,0,0,1-2.49,5.111l3.669,5.9h-3.8ZM151.276,15.952V22.9h6.552A3.19,3.19,0,0,0,161.1,19.49a3.3,3.3,0,0,0-3.276-3.538Z" transform="translate(-127.819 -12.938)"/>
              <path id="Trazado_29" data-name="Trazado 29" d="M233.4,30.5V13.2h16.119v2.752H236.676v5.5h10.615v2.752H236.676v3.669h12.843v2.752H233.4Z" transform="translate(-101.306 -12.938)"/>
              <path id="Trazado_30" data-name="Trazado 30" d="M194.588,16.669a24.342,24.342,0,0,0-7.076-.917c-1.966,0-5.5.131-5.5,2.1,0,4.325,13.76-.655,13.76,7.6,0,4.587-4.718,5.373-8.78,5.373A34.287,34.287,0,0,1,178.6,29.9l.131-3.014a32.326,32.326,0,0,0,8.256,1.048c2.752,0,5.766-.393,5.766-2.359,0-4.587-13.76.393-13.76-7.47,0-4.587,4.98-5.111,8.518-5.111a26.094,26.094,0,0,1,7.208.917Z" transform="translate(-118.319 -13)"/>
              <path id="Trazado_31" data-name="Trazado 31" d="M223.9,24.108V21.487h11.532v2.228c-.393,3.407-4.456,7.076-10.222,7.076-6.683,0-11.008-3.669-11.008-8.911s4.325-8.78,11.139-8.78a19.144,19.144,0,0,1,7.863,1.573v3.145a15.5,15.5,0,0,0-7.47-1.835c-4.718,0-8.125,1.966-8.125,5.766,0,3.669,3.145,5.9,7.863,5.9,2.752,0,5.9-1.7,6.421-3.538H223.9Z" transform="translate(-107.266 -12.969)"/>
            </g>
          </g>
          <g id="Grupo_12" data-name="Grupo 12" transform="translate(261.568)">
            <path id="Trazado_32" data-name="Trazado 32" d="M253.728,18.728a3.355,3.355,0,0,1-2.49,1.048,3.58,3.58,0,0,1-2.49-1.048,3.355,3.355,0,0,1-1.048-2.49,3.834,3.834,0,0,1,1.048-2.49,3.355,3.355,0,0,1,2.49-1.048,3.58,3.58,0,0,1,2.49,1.048,3.355,3.355,0,0,1,1.048,2.49A2.937,2.937,0,0,1,253.728,18.728Zm-4.456-4.456a3.093,3.093,0,0,0-.917,2.1,2.607,2.607,0,0,0,.917,2.1,3.093,3.093,0,0,0,2.1.917,2.607,2.607,0,0,0,2.1-.917,3.093,3.093,0,0,0,.917-2.1,2.607,2.607,0,0,0-.917-2.1,3.093,3.093,0,0,0-2.1-.917A2.608,2.608,0,0,0,249.273,14.273Zm1.966.131a2.253,2.253,0,0,1,1.048.131.877.877,0,0,1,.524.917.934.934,0,0,1-.393.786c-.131.131-.262.131-.524.131a.721.721,0,0,1,.655.393c.131.262.262.393.262.524v.786h-.655V17.68a1.02,1.02,0,0,0-.393-.917c-.131-.131-.393-.131-.786-.131h-.524v1.442H249.8V14.4Zm.786.655c-.131-.131-.393-.131-.786-.131h-.524v1.31h.655a.982.982,0,0,0,.655-.131.605.605,0,0,0,.393-.655C252.287,15.321,252.156,15.059,252.025,15.059Z" transform="translate(-247.7 -12.7)"/>
          </g>
        </g>
        <g id="Grupo_32" data-name="Grupo 32">
          <g id="Grupo_31" data-name="Grupo 31">
            <g id="Grupo_22" data-name="Grupo 22" transform="translate(2.508 2.77)">
              <g id="Grupo_21" data-name="Grupo 21">
                <g id="Grupo_20" data-name="Grupo 20">
                  <g id="Grupo_19" data-name="Grupo 19">
                    <g id="Grupo_18" data-name="Grupo 18">
                      <g id="Grupo_17" data-name="Grupo 17">
                        <path id="Trazado_33" data-name="Trazado 33" d="M23.4,13.686a.982.982,0,0,1,.131.655c1.048,0,.786.786,1.573.393A18.82,18.82,0,0,0,23.139,12.9c-.786.131-1.442.131-2.359.262-.393.524-.393.917-.262.917.262,0,.393-.524.917-.262a1.628,1.628,0,0,0,1.048.786A1.076,1.076,0,0,0,23.4,13.686Z" transform="translate(3.856 1.253)"/>
                        <g id="Grupo_16" data-name="Grupo 16">
                          <g id="Grupo_15" data-name="Grupo 15" transform="translate(24.637 9.305)">
                            <g id="Grupo_14" data-name="Grupo 14">
                              <path id="Trazado_34" data-name="Trazado 34" d="M31.446,16.538a2.034,2.034,0,0,0-.524-1.966.977.977,0,0,1-.655.786,10.713,10.713,0,0,1-1.048-1.179,2.4,2.4,0,0,1,2.49.131l.131-.393a6.962,6.962,0,0,0-4.456-3.931c4.193-2.228,12.711.524,14.284,5.242A6.252,6.252,0,0,0,35.9,13.786c3.407.655,6.552,4.062,6.945,7.076,0,.393.131,1.573.131,2.752-.524-1.442-2.752-3.276-5.635-3.407,5.635,3.407,4.98,9.042,3.931,11.925a24.264,24.264,0,0,1-3.538,5.9,6.858,6.858,0,0,0-3.8-8.911c2.49,2.621,3.8,10.353-2.228,14.153a7.269,7.269,0,0,0-.524-5.111c-2.1-4.587-7.076-6.552-10.484-9.435,1.048.393,3.538.393,4.456.655a2.3,2.3,0,0,1,1.573,1.835,3.891,3.891,0,0,0,3.8-1.31,1.023,1.023,0,0,1,.524.524A5.267,5.267,0,0,0,32.1,26.76c-.262-1.7-.917-1.835-1.442-1.966a6.481,6.481,0,0,0-3.145.917c-.917.393-1.31.524-1.835.786a1.985,1.985,0,0,1-1.7-.131c-.262-.131-.655-1.31-.393-1.31a10.172,10.172,0,0,0,2.752.524,5.689,5.689,0,0,0,3.145-1.442,1.947,1.947,0,0,1,1.179-.262,7.382,7.382,0,0,0,0-1.7c-.262-.655-.917-.655-1.966-1.442-.393-.262-.524-1.048-.262-1.048.262-.131,1.835.655,3.407.524a4.175,4.175,0,0,0,1.7-.524c.131,0-.131.786-.393,1.048a5.586,5.586,0,0,0-1.573,1.442,7.388,7.388,0,0,0-.524,1.573c1.179.131,1.442,2.359,1.442,2.359,1.31.131,1.573-4.718,1.179-5.5.131-.262.393-.917.262-1.179C33.28,18.5,31.97,17.194,31.446,16.538Z" transform="translate(-20.7 -9.201)" fill="url(#linear-gradient)"/>
                            </g>
                          </g>
                          <path id="Trazado_35" data-name="Trazado 35" d="M18.207,13.3c-3.407,2.883-5.635,9.828-4.98,16.774.393,3.8,2.49,12.187,8.78,15.2h0C26.2,28.37,12.572,29.55,18.207,13.3Z" transform="translate(1.581 1.377)" fill="url(#linear-gradient-2)"/>
                          <path id="Trazado_36" data-name="Trazado 36" d="M35.423,5.638c-2.883.393-4.849,3.407-5.635,5.5h0c.131-4.193,2.1-5.766,3.538-6.683h0A22.8,22.8,0,0,0,23.891,2.1h-.262c5.242,3.276,5.635,9.7,5.635,9.828h0A15.5,15.5,0,0,0,18.911,2.493,19.492,19.492,0,0,0,10,5.9a20.172,20.172,0,0,1,17.3,5.242c.786.786,1.573,1.573,2.228,2.359.524-1.31,2.228-4.456,5.766-4.325a3.622,3.622,0,0,1,3.8,2.49,8.777,8.777,0,0,0,.131-3.145h0a16.171,16.171,0,0,0-3.8-2.883Z" transform="translate(0.615 -2.1)" fill="url(#linear-gradient-3)"/>
                          <path id="Trazado_37" data-name="Trazado 37" d="M8.321,7.992a23.993,23.993,0,0,0-5.9,11.27,23.166,23.166,0,0,1,21.1-9.435c-4.98.393-10.877,2.752-14.153,5.635A26.968,26.968,0,0,0,1.9,25.815h0A23.93,23.93,0,0,0,6.487,38.133h0c-.393-4.98,1.31-11.663,5.373-17.167,5.635-7.6,12.056-11.008,17.56-9.959C23.523,5.5,15.136,5.372,8.321,7.992Z" transform="translate(-1.9 -0.785)" fill="url(#linear-gradient-4)"/>
                          <path id="Trazado_38" data-name="Trazado 38" d="M13.857,34.6c-1.835-9.435,1.31-18.609,6.945-22.8-4.456,2.1-9.173,7.339-11.27,12.58-2.49,5.635-2.883,11.139-1.31,15.594h0a23.2,23.2,0,0,0,10.746,5.373A21.711,21.711,0,0,1,13.857,34.6Z" transform="translate(-0.228 0.911)" fill="url(#linear-gradient-5)"/>
                        </g>
                      </g>
                      <path id="Trazado_39" data-name="Trazado 39" d="M28.723,34.519a39.219,39.219,0,0,0-6.159-5.242c-.786-.524-5.635-4.062-4.718-10.353.262,2.1,2.228,1.7,2.752,4.062h0c.262-4.718-3.276-4.325-3.014-9.173h0a20.078,20.078,0,0,0-.655,7.6h0c.524,4.718,3.014,7.863,4.98,11.27a15.662,15.662,0,0,1,2.228,10.091,19.534,19.534,0,0,1-.524,2.359,27.332,27.332,0,0,0,6.421-1.7h0A7.768,7.768,0,0,0,28.723,34.519Z" transform="translate(2.728 1.519)" fill="url(#linear-gradient-6)"/>
                    </g>
                  </g>
                </g>
              </g>
            </g>
            <g id="Grupo_30" data-name="Grupo 30">
              <g id="Grupo_29" data-name="Grupo 29">
                <g id="Grupo_27" data-name="Grupo 27">
                  <g id="Grupo_26" data-name="Grupo 26">
                    <g id="Grupo_25" data-name="Grupo 25">
                      <g id="Grupo_24" data-name="Grupo 24">
                        <g id="Grupo_23" data-name="Grupo 23">
                          <path id="Trazado_40" data-name="Trazado 40" d="M25.034,52.161A26.248,26.248,0,0,1,0,25.034,26.248,26.248,0,0,1,27.131,0a26.1,26.1,0,0,1-2.1,52.156Zm2.1-50.846A24.79,24.79,0,1,0,50.85,27.131,24.857,24.857,0,0,0,27.131,1.315Z" transform="translate(0.014 0.014)"/>
                        </g>
                      </g>
                    </g>
                  </g>
                </g>
                <g id="Grupo_28" data-name="Grupo 28" transform="translate(44.967 47.194)">
                  <path id="Trazado_41" data-name="Trazado 41" d="M34.3,36.262V36h1.966v.262h-.786v2.1h-.262v-2.1Z" transform="translate(-34.3 -36)"/>
                  <path id="Trazado_42" data-name="Trazado 42" d="M36.393,36l.786,2.1.786-2.1h.393v2.359H38.1V36.393h0l-.786,1.966h-.262l-.786-1.966h0v1.966H36V36Z" transform="translate(-33.772 -36)"/>
                </g>
              </g>
            </g>
          </g>
        </g>
      </g>
    </g>
  </g>
</svg>
