<svg xmlns="http://www.w3.org/2000/svg" width="88.199" height="88.199" viewBox="0 0 88.199 88.199">
  <g id="Grupo_79" data-name="Grupo 79" transform="translate(-1082.5 -106.5)">
    <g id="Grupo_58" data-name="Grupo 58" transform="translate(1083 107)">
      <g id="Grupo_36" data-name="Grupo 36" transform="translate(0)">
        <path id="Trazado_45" data-name="Trazado 45" d="M43.6,1.681A42.918,42.918,0,1,1,.681,44.6,43,43,0,0,1,43.6,1.681M43.6,1A43.6,43.6,0,1,0,87.2,44.6,43.64,43.64,0,0,0,43.6,1Z" transform="translate(0 -1)" fill="none" stroke="#e2dfdf" stroke-width="1"/>
      </g>
    </g>
    <path id="Polígono_1" data-name="Polígono 1" d="M15.1,2.279a1.5,1.5,0,0,1,2.6,0L31.517,26.455a1.5,1.5,0,0,1-1.3,2.244H2.585a1.5,1.5,0,0,1-1.3-2.244Z" transform="translate(1143.474 134.675) rotate(90)" fill="#fff"/>
  </g>
</svg>
