<svg id="USA" xmlns="http://www.w3.org/2000/svg" xmlns:xlink="http://www.w3.org/1999/xlink" width="42.385" height="24.723" viewBox="0 0 42.385 24.723">
  <defs>
    <clipPath id="clip-path">
      <rect id="Rectángulo_255" data-name="Rectángulo 255" width="42.385" height="24.723" fill="none"/>
    </clipPath>
  </defs>
  <g id="Grupo_192" data-name="Grupo 192" transform="translate(0 0)">
    <g id="Grupo_191" data-name="Grupo 191">
      <g id="Grupo_190" data-name="Grupo 190" clip-path="url(#clip-path)">
        <rect id="Rectángulo_241" data-name="Rectángulo 241" width="42.385" height="1.902" transform="translate(0 22.821)" fill="#cb001c"/>
        <rect id="Rectángulo_242" data-name="Rectángulo 242" width="42.385" height="1.902" transform="translate(0 20.92)" fill="#fff"/>
        <rect id="Rectángulo_243" data-name="Rectángulo 243" width="42.385" height="1.9" transform="translate(0 19.019)" fill="#cb001c"/>
        <rect id="Rectángulo_244" data-name="Rectángulo 244" width="42.385" height="1.902" transform="translate(0 17.118)" fill="#fff"/>
        <rect id="Rectángulo_245" data-name="Rectángulo 245" width="42.385" height="1.903" transform="translate(0 15.215)" fill="#cb001c"/>
        <rect id="Rectángulo_246" data-name="Rectángulo 246" width="42.385" height="1.9" transform="translate(0 13.315)" fill="#fff"/>
        <rect id="Rectángulo_247" data-name="Rectángulo 247" width="42.385" height="1.904" transform="translate(0 11.411)" fill="#cb001c"/>
        <rect id="Rectángulo_248" data-name="Rectángulo 248" width="42.385" height="1.9" transform="translate(0 9.51)" fill="#fff"/>
        <rect id="Rectángulo_249" data-name="Rectángulo 249" width="42.385" height="1.902" transform="translate(0 7.609)" fill="#cb001c"/>
        <rect id="Rectángulo_250" data-name="Rectángulo 250" width="42.385" height="1.903" transform="translate(0 5.706)" fill="#fff"/>
        <rect id="Rectángulo_251" data-name="Rectángulo 251" width="42.385" height="1.902" transform="translate(0 3.804)" fill="#cb001c"/>
        <rect id="Rectángulo_252" data-name="Rectángulo 252" width="42.385" height="1.902" transform="translate(0 1.903)" fill="#fff"/>
        <rect id="Rectángulo_253" data-name="Rectángulo 253" width="42.385" height="1.903" fill="#cb001c"/>
        <rect id="Rectángulo_254" data-name="Rectángulo 254" width="19.356" height="13.315" fill="#2a3560"/>
        <path id="Trazado_163" data-name="Trazado 163" d="M618.4,180.986l.165.5h.53l-.429.311.163.5-.429-.311-.429.311.168-.5-.429-.311h.525Z" transform="translate(-616.649 -179.519)" fill="#fff"/>
        <path id="Trazado_164" data-name="Trazado 164" d="M618.4,182.747l.165.5h.53l-.429.31.163.506-.429-.312-.429.312.168-.506-.429-.31h.525Z" transform="translate(-616.649 -179.056)" fill="#fff"/>
        <path id="Trazado_165" data-name="Trazado 165" d="M618.4,184.507l.165.5h.53l-.429.311.163.5-.429-.312-.429.312.168-.5-.429-.311h.525Z" transform="translate(-616.649 -178.594)" fill="#fff"/>
        <path id="Trazado_166" data-name="Trazado 166" d="M618.4,186.266l.165.5h.53l-.429.311.163.5-.429-.309-.429.309.168-.5-.429-.311h.525Z" transform="translate(-616.649 -178.132)" fill="#fff"/>
        <path id="Trazado_167" data-name="Trazado 167" d="M618.4,188.025l.165.506h.53l-.429.308.163.5-.429-.311-.429.311.168-.5-.429-.308h.525Z" transform="translate(-616.649 -177.669)" fill="#fff"/>
        <path id="Trazado_168" data-name="Trazado 168" d="M619.625,181.913l.158.5h.533l-.427.312.16.5-.424-.31-.427.31.16-.5-.427-.312h.53Z" transform="translate(-616.327 -179.275)" fill="#fff"/>
        <path id="Trazado_169" data-name="Trazado 169" d="M619.625,183.674l.158.5h.533l-.427.312.16.5-.424-.308-.427.308.16-.5-.427-.312h.53Z" transform="translate(-616.327 -178.813)" fill="#fff"/>
        <path id="Trazado_170" data-name="Trazado 170" d="M619.625,185.434l.158.5h.533l-.427.311.16.5-.424-.311-.427.311.16-.5-.427-.311h.53Z" transform="translate(-616.327 -178.35)" fill="#fff"/>
        <path id="Trazado_171" data-name="Trazado 171" d="M619.625,187.194l.158.5h.533l-.427.311.16.5-.424-.312-.427.312.16-.5-.427-.311h.53Z" transform="translate(-616.327 -177.887)" fill="#fff"/>
        <path id="Trazado_172" data-name="Trazado 172" d="M620.863,180.986l.165.5h.53l-.429.311.165.5-.432-.311-.424.311.163-.5-.429-.311h.528Z" transform="translate(-616.001 -179.519)" fill="#fff"/>
        <path id="Trazado_173" data-name="Trazado 173" d="M620.863,182.747l.165.5h.53l-.429.31.165.506-.432-.312-.424.312.163-.506-.429-.31h.528Z" transform="translate(-616.001 -179.056)" fill="#fff"/>
        <path id="Trazado_174" data-name="Trazado 174" d="M620.863,184.507l.165.5h.53l-.429.311.165.5-.432-.312-.424.312.163-.5-.429-.311h.528Z" transform="translate(-616.001 -178.594)" fill="#fff"/>
        <path id="Trazado_175" data-name="Trazado 175" d="M620.863,186.266l.165.5h.53l-.429.311.165.5-.432-.309-.424.309.163-.5-.429-.311h.528Z" transform="translate(-616.001 -178.132)" fill="#fff"/>
        <path id="Trazado_176" data-name="Trazado 176" d="M620.863,188.025l.165.506h.53l-.429.308.165.5-.432-.311-.424.311.163-.5-.429-.308h.528Z" transform="translate(-616.001 -177.669)" fill="#fff"/>
        <path id="Trazado_177" data-name="Trazado 177" d="M622.09,181.913l.163.5h.533l-.432.312.165.5-.429-.31-.427.31.165-.5-.432-.312h.53Z" transform="translate(-615.679 -179.275)" fill="#fff"/>
        <path id="Trazado_178" data-name="Trazado 178" d="M622.09,183.674l.163.5h.533l-.432.312.165.5-.429-.308-.427.308.165-.5-.432-.312h.53Z" transform="translate(-615.679 -178.813)" fill="#fff"/>
        <path id="Trazado_179" data-name="Trazado 179" d="M622.09,185.434l.163.5h.533l-.432.311.165.5-.429-.311-.427.311.165-.5-.432-.311h.53Z" transform="translate(-615.679 -178.35)" fill="#fff"/>
        <path id="Trazado_180" data-name="Trazado 180" d="M622.09,187.194l.163.5h.533l-.432.311.165.5-.429-.312-.427.312.165-.5-.432-.311h.53Z" transform="translate(-615.679 -177.887)" fill="#fff"/>
        <path id="Trazado_181" data-name="Trazado 181" d="M623.331,180.986l.165.5h.525l-.429.311.17.5-.432-.311-.429.311.163-.5-.424-.311h.528Z" transform="translate(-615.352 -179.519)" fill="#fff"/>
        <path id="Trazado_182" data-name="Trazado 182" d="M623.331,182.747l.165.5h.525l-.429.31.17.506-.432-.312-.429.312.163-.506-.424-.31h.528Z" transform="translate(-615.352 -179.056)" fill="#fff"/>
        <path id="Trazado_183" data-name="Trazado 183" d="M623.331,184.507l.165.5h.525l-.429.311.17.5-.432-.312-.429.312.163-.5-.424-.311h.528Z" transform="translate(-615.352 -178.594)" fill="#fff"/>
        <path id="Trazado_184" data-name="Trazado 184" d="M623.331,186.266l.165.5h.525l-.429.311.17.5-.432-.309-.429.309.163-.5-.424-.311h.528Z" transform="translate(-615.352 -178.132)" fill="#fff"/>
        <path id="Trazado_185" data-name="Trazado 185" d="M623.331,188.025l.165.506h.525l-.429.308.17.5-.432-.311-.429.311.163-.5-.424-.308h.528Z" transform="translate(-615.352 -177.669)" fill="#fff"/>
        <path id="Trazado_186" data-name="Trazado 186" d="M624.558,181.913l.163.5h.528l-.427.312.16.5-.424-.31-.427.31.16-.5-.427-.312h.528Z" transform="translate(-615.031 -179.275)" fill="#fff"/>
        <path id="Trazado_187" data-name="Trazado 187" d="M624.558,183.674l.163.5h.528l-.427.312.16.5-.424-.308-.427.308.16-.5-.427-.312h.528Z" transform="translate(-615.031 -178.813)" fill="#fff"/>
        <path id="Trazado_188" data-name="Trazado 188" d="M624.558,185.434l.163.5h.528l-.427.311.16.5-.424-.311-.427.311.16-.5-.427-.311h.528Z" transform="translate(-615.031 -178.35)" fill="#fff"/>
        <path id="Trazado_189" data-name="Trazado 189" d="M624.558,187.194l.163.5h.528l-.427.311.16.5-.424-.312-.427.312.16-.5-.427-.311h.528Z" transform="translate(-615.031 -177.887)" fill="#fff"/>
        <path id="Trazado_190" data-name="Trazado 190" d="M625.8,180.986l.165.5h.528l-.427.311.165.5-.432-.311-.424.311.16-.5-.427-.311h.528Z" transform="translate(-614.705 -179.519)" fill="#fff"/>
        <path id="Trazado_191" data-name="Trazado 191" d="M625.8,182.747l.165.5h.528l-.427.31.165.506-.432-.312-.424.312.16-.506-.427-.31h.528Z" transform="translate(-614.705 -179.056)" fill="#fff"/>
        <path id="Trazado_192" data-name="Trazado 192" d="M625.8,184.507l.165.5h.528l-.427.311.165.5-.432-.312-.424.312.16-.5-.427-.311h.528Z" transform="translate(-614.705 -178.594)" fill="#fff"/>
        <path id="Trazado_193" data-name="Trazado 193" d="M625.8,186.266l.165.5h.528l-.427.311.165.5-.432-.309-.424.309.16-.5-.427-.311h.528Z" transform="translate(-614.705 -178.132)" fill="#fff"/>
        <path id="Trazado_194" data-name="Trazado 194" d="M625.8,188.025l.165.506h.528l-.427.308.165.5-.432-.311-.424.311.16-.5-.427-.308h.528Z" transform="translate(-614.705 -177.669)" fill="#fff"/>
        <path id="Trazado_195" data-name="Trazado 195" d="M627.023,181.913l.163.5h.533l-.429.312.163.5-.429-.31-.427.31.165-.5-.429-.312h.53Z" transform="translate(-614.382 -179.275)" fill="#fff"/>
        <path id="Trazado_196" data-name="Trazado 196" d="M627.023,183.674l.163.5h.533l-.429.312.163.5-.429-.308-.427.308.165-.5-.429-.312h.53Z" transform="translate(-614.382 -178.813)" fill="#fff"/>
        <path id="Trazado_197" data-name="Trazado 197" d="M627.023,185.434l.163.5h.533l-.429.311.163.5-.429-.311-.427.311.165-.5-.429-.311h.53Z" transform="translate(-614.382 -178.35)" fill="#fff"/>
        <path id="Trazado_198" data-name="Trazado 198" d="M627.023,187.194l.163.5h.533l-.429.311.163.5-.429-.312-.427.312.165-.5-.429-.311h.53Z" transform="translate(-614.382 -177.887)" fill="#fff"/>
        <path id="Trazado_199" data-name="Trazado 199" d="M628.265,180.986l.165.5h.528l-.427.311.16.5-.427-.311-.424.311.16-.5-.427-.311h.528Z" transform="translate(-614.056 -179.519)" fill="#fff"/>
        <path id="Trazado_200" data-name="Trazado 200" d="M628.265,182.747l.165.5h.528l-.427.31.16.506-.427-.312-.424.312.16-.506-.427-.31h.528Z" transform="translate(-614.056 -179.056)" fill="#fff"/>
        <path id="Trazado_201" data-name="Trazado 201" d="M628.265,184.507l.165.5h.528l-.427.311.16.5-.427-.312-.424.312.16-.5-.427-.311h.528Z" transform="translate(-614.056 -178.594)" fill="#fff"/>
        <path id="Trazado_202" data-name="Trazado 202" d="M628.265,186.266l.165.5h.528l-.427.311.16.5-.427-.309-.424.309.16-.5-.427-.311h.528Z" transform="translate(-614.056 -178.132)" fill="#fff"/>
        <path id="Trazado_203" data-name="Trazado 203" d="M628.265,188.025l.165.506h.528l-.427.308.16.5-.427-.311-.424.311.16-.5-.427-.308h.528Z" transform="translate(-614.056 -177.669)" fill="#fff"/>
        <path id="Trazado_204" data-name="Trazado 204" d="M629.491,181.913l.16.5h.53l-.424.312.158.5-.424-.31-.432.31.165-.5-.424-.312h.525Z" transform="translate(-613.734 -179.275)" fill="#fff"/>
        <path id="Trazado_205" data-name="Trazado 205" d="M629.491,183.674l.16.5h.53l-.424.312.158.5-.424-.308-.432.308.165-.5-.424-.312h.525Z" transform="translate(-613.734 -178.813)" fill="#fff"/>
        <path id="Trazado_206" data-name="Trazado 206" d="M629.491,185.434l.16.5h.53l-.424.311.158.5-.424-.311-.432.311.165-.5-.424-.311h.525Z" transform="translate(-613.734 -178.35)" fill="#fff"/>
        <path id="Trazado_207" data-name="Trazado 207" d="M629.491,187.194l.16.5h.53l-.424.311.158.5-.424-.312-.432.312.165-.5-.424-.311h.525Z" transform="translate(-613.734 -177.887)" fill="#fff"/>
        <path id="Trazado_208" data-name="Trazado 208" d="M630.73,180.986l.168.5h.525L631,181.8l.165.5-.432-.311-.424.311.16-.5-.427-.311h.528Z" transform="translate(-613.408 -179.519)" fill="#fff"/>
        <path id="Trazado_209" data-name="Trazado 209" d="M630.73,182.747l.168.5h.525l-.427.31.165.506-.432-.312-.424.312.16-.506-.427-.31h.528Z" transform="translate(-613.408 -179.056)" fill="#fff"/>
        <path id="Trazado_210" data-name="Trazado 210" d="M630.73,184.507l.168.5h.525l-.427.311.165.5-.432-.312-.424.312.16-.5-.427-.311h.528Z" transform="translate(-613.408 -178.594)" fill="#fff"/>
        <path id="Trazado_211" data-name="Trazado 211" d="M630.73,186.266l.168.5h.525l-.427.311.165.5-.432-.309-.424.309.16-.5-.427-.311h.528Z" transform="translate(-613.408 -178.132)" fill="#fff"/>
        <path id="Trazado_212" data-name="Trazado 212" d="M630.73,188.025l.168.506h.525l-.427.308.165.5-.432-.311-.424.311.16-.5-.427-.308h.528Z" transform="translate(-613.408 -177.669)" fill="#fff"/>
      </g>
    </g>
  </g>
</svg>
