<svg xmlns="http://www.w3.org/2000/svg" width="81" height="81" viewBox="0 0 81 81"><defs><style>.a{fill:#002270;}.b{fill:#fff;}</style></defs><g transform="translate(-0.339)"><circle class="a" cx="40.5" cy="40.5" r="40.5" transform="translate(0.339)"/><g transform="translate(19.226 24.46)"><path class="b" d="M1019.87,277.191H992.643a8.867,8.867,0,0,0-8.866,8.866v15.977a8.865,8.865,0,0,0,8.866,8.865h27.227a8.865,8.865,0,0,0,8.866-8.865V286.057A8.867,8.867,0,0,0,1019.87,277.191Zm-19.152,24.247V286.653a1.5,1.5,0,0,1,2.277-1.292l12.356,7.392a1.505,1.505,0,0,1,0,2.583L1003,302.73A1.5,1.5,0,0,1,1000.719,301.438Z" transform="translate(-983.777 -277.191)"/></g></g></svg>